<svg xmlns="http://www.w3.org/2000/svg" width="32" height="35" viewBox="0 0 32 35">
  <g fill="none" fill-rule="evenodd" transform="translate(.418)">
    <path fill="#07FFDE" d="M31.4643013,23.3780309 C31.4643013,25.4276588 30.3839383,27.3216606 28.630127,28.3465064 C25.7898548,30.0061797 21.4411525,32.5473639 18.5918603,34.2123158 C16.8222958,35.2463848 14.6420054,35.2463848 12.872441,34.2123158 C10.0234664,32.547529 5.67530399,30.0066878 2.83503811,28.346951 C1.08071234,27.3218512 0,25.4272777 0,23.3770145 L0,11.621461 C0,9.56872051 1.08200181,7.67192377 2.83842377,6.64555354 C5.68584846,4.98168784 10.0462704,2.43367514 12.8937205,0.769745917 C14.6501361,-0.256624319 16.8141652,-0.256624319 18.5705808,0.769745917 C21.4180309,2.43367514 25.7784211,4.98168784 28.6258711,6.64555354 C30.3822868,7.67192377 31.4643013,9.56872051 31.4643013,11.621461 L31.4643013,23.3780309 Z"/>
    <path fill="#FFF" d="M23.3032668,14.1128766 L23.3032668,25.619873 L19.7682668,27.6496824 L8.16103448,20.8749274 L8.16103448,9.36793103 L11.6960345,7.3381216 C15.5650907,9.59641561 19.4342105,11.8546461 23.3032668,14.1128766 Z M12.8615789,18.1758621 L18.6027223,21.5267786 L18.6027223,16.8119419 L12.8615789,13.4610254 L12.8615789,18.1758621 Z"/>
  </g>
</svg>
