<svg xmlns="http://www.w3.org/2000/svg" xmlns:xlink="http://www.w3.org/1999/xlink" width="600" height="442" viewBox="0 0 600 442">
  <defs>
    <polygon id="cdl-thumb-a" points="0 0 302.959 0 302.959 143.906 0 143.906"/>
  </defs>
  <g fill="none" fill-rule="evenodd">
    <rect width="600" height="442" fill="#1D1D2A"/>
    <g transform="translate(148.398 149)">
      <mask id="cdl-thumb-b" fill="#fff">
        <use xlink:href="#cdl-thumb-a"/>
      </mask>
      <path fill="#23D5CC" d="M166.627282,136.331487 L227.218872,136.331487 L227.218872,7.57415385 L166.627282,7.57415385 L166.627282,136.331487 Z M230.164513,143.905641 L159.053128,143.905641 L159.053128,0 L230.164513,0 C232.716718,0 234.793026,2.07671795 234.793026,4.62892308 L234.793026,139.277128 C234.793026,141.829333 232.716718,143.905641 230.164513,143.905641 L230.164513,143.905641 Z" mask="url(#cdl-thumb-b)"/>
      <path fill="#23D5CC" d="M231.00599,7.57431795 C195.507323,7.57431795 166.627323,36.4543179 166.627323,71.9529846 C166.627323,107.451651 195.507323,136.331651 231.00599,136.331651 C266.504656,136.331651 295.384656,107.451651 295.384656,71.9529846 C295.384656,36.4543179 266.504656,7.57431795 231.00599,7.57431795 M231.00599,143.905805 C191.330913,143.905805 159.053169,111.627651 159.053169,71.9529846 C159.053169,32.2779077 191.330913,0.000164102564 231.00599,0.000164102564 C270.681067,0.000164102564 302.95881,32.2779077 302.95881,71.9529846 C302.95881,111.627651 270.681067,143.905805 231.00599,143.905805" mask="url(#cdl-thumb-b)"/>
      <polygon fill="#23D5CC" points="143.905 143.906 71.953 143.906 71.953 136.331 136.331 136.331 136.331 7.574 71.953 7.574 71.953 0 143.905 0" mask="url(#cdl-thumb-b)"/>
      <path fill="#23D5CC" d="M71.9527385,7.57431795 C36.4540718,7.57431795 7.57407179,36.4543179 7.57407179,71.9529846 C7.57407179,107.451651 36.4540718,136.331651 71.9527385,136.331651 C107.451405,136.331651 136.331405,107.451651 136.331405,71.9529846 C136.331405,36.4543179 107.451405,7.57431795 71.9527385,7.57431795 M71.9527385,143.905805 C32.2776615,143.905805 -8.2051282e-05,111.627651 -8.2051282e-05,71.9529846 C-8.2051282e-05,32.2779077 32.2776615,0.000164102564 71.9527385,0.000164102564 C111.627815,0.000164102564 143.905559,32.2779077 143.905559,71.9529846 C143.905559,111.627651 111.627815,143.905805 71.9527385,143.905805" mask="url(#cdl-thumb-b)"/>
      <polygon fill="#23D5CC" points="3.787 75.74 140.119 75.74 140.119 68.166 3.787 68.166" mask="url(#cdl-thumb-b)"/>
    </g>
  </g>
</svg>
