<svg xmlns="http://www.w3.org/2000/svg" xmlns:xlink="http://www.w3.org/1999/xlink" width="600" height="442" viewBox="0 0 600 442">
  <defs>
    <polygon id="copenhagen-thumb-a" points="0 .453 12.629 .453 12.629 12.945 0 12.945"/>
    <polygon id="copenhagen-thumb-c" points=".35 .195 242.92 .195 242.92 86.956 .35 86.956"/>
  </defs>
  <g fill="none" fill-rule="evenodd">
    <rect width="600" height="442" fill="#0F172D"/>
    <g transform="translate(174.339 168)">
      <g transform="translate(0 78.273)">
        <mask id="copenhagen-thumb-b" fill="#fff">
          <use xlink:href="#copenhagen-thumb-a"/>
        </mask>
        <path fill="#FC1A57" d="M0.0916372294,7.75438182 C0.681290909,11.1532649 3.94434719,13.4366242 7.38131688,12.8538537 C10.8178277,12.2710831 13.1259662,9.0429013 12.5367714,5.64310043 C11.9475766,2.24375844 8.68406147,-0.0391419913 5.24709177,0.543628571 C1.81058095,1.12639913 -0.497557576,4.35503983 0.0916372294,7.75438182" mask="url(#copenhagen-thumb-b)"/>
      </g>
      <path fill="#FC1A57" d="M43.8711515,92.7571584 C42.8001385,88.2872623 43.9991775,82.0919983 50.9075325,79.3447169 C69.2684762,72.0421887 87.7271602,66.1942926 105.768268,61.9620935 C113.058407,60.2514095 120.616528,58.7293229 128.232926,57.4371325 C136.873532,55.9714874 145.803229,54.7655654 154.774225,53.8528641 C163.000009,53.0158771 167.318935,58.5544918 168.517515,63.5520935 C169.713342,68.5409766 168.372511,75.3961022 160.65516,78.298942 C144.751489,84.2789939 128.774398,89.1678424 113.169913,92.8292017 C105.878398,94.5398857 98.3202771,96.0610545 90.7043377,97.353245 C79.5495584,99.2456433 67.9781212,100.696145 56.315368,101.662535 C48.8540693,102.280639 44.9504242,97.2513749 43.8711515,92.7571584 M56.6595238,105.739635 C74.1109784,104.293262 93.7452987,101.590492 114.123455,96.8099377 C131.477628,92.7388035 147.665801,87.5604052 162.124476,82.1232017 C180.600139,75.1763013 174.012996,47.781955 154.351602,49.7826476 C138.969212,51.3474095 122.160641,53.9111411 104.81381,57.9804398 C84.4150043,62.7660416 65.6277662,69.0810719 49.3661732,75.5475307 C32.447013,82.2760069 38.4880952,107.245661 56.6595238,105.739635"/>
      <g transform="translate(6.883 .264)">
        <mask id="copenhagen-thumb-d" fill="#fff">
          <use xlink:href="#copenhagen-thumb-c"/>
        </mask>
        <path fill="#FC1A57" d="M195.456566,28.4328251 C209.123224,24.5392753 220.576731,15.2690935 227.140471,2.78862597 L227.140471,2.7881671 C227.140471,2.7881671 227.713605,0.355214719 228.340887,0.206998268 C230.282843,-0.25187619 234.930783,12.1046952 238.722003,27.8064615 C242.513224,43.5082277 244.011908,56.6081758 242.069952,57.0670502 C241.44267,57.2157255 239.766402,55.0801238 239.766402,55.0801238 C229.522488,46.6620719 216.009094,43.2177602 202.928419,45.6910935 L1.7573974,86.956297 L0.350488312,81.2061411 L195.456566,28.4328251 Z" mask="url(#copenhagen-thumb-d)"/>
      </g>
      <path fill="#FC1A57" d="M108.868195 48.7034208L116.742939 46.8151524C117.053597 46.7408147 117.246325 46.4283212 117.171069 46.1208753L116.441459 43.1459922C116.366203 42.8390052 116.050498 42.6485723 115.740299 42.72291L107.865095 44.6111784C107.554896 44.6859749 107.362628 44.9980095 107.437883 45.3054554L108.167035 48.2803385C108.24229 48.5877844 108.557537 48.7782173 108.868195 48.7034208M97.6786788 51.3872398L105.552965 49.4989714C105.864081 49.4241749 106.05635 49.1116814 105.981094 48.8046944L105.251943 45.8298113C105.176687 45.5223654 104.860523 45.3319325 104.550324 45.406729L96.6755792 47.2949974C96.3653801 47.3693351 96.1726528 47.6818286 96.2479082 47.9888156L96.9770597 50.9641576C97.0523152 51.2711446 97.3680208 51.4615775 97.6786788 51.3872398M86.488658 54.0705541L94.3634026 52.1822857C94.6740606 52.1079481 94.866329 51.7954545 94.7910736 51.4880087L94.0619221 48.5131255C93.9866667 48.2061385 93.670961 48.0157056 93.3607619 48.0900433L85.4855584 49.9783117C85.1753593 50.0531082 84.982632 50.3651429 85.0578874 50.6725887L85.7874978 53.6474719C85.8627532 53.9549177 86.178 54.1453506 86.488658 54.0705541"/>
    </g>
  </g>
</svg>
