<svg xmlns="http://www.w3.org/2000/svg" width="600" height="442" viewBox="0 0 600 442">
  <g fill="none" fill-rule="evenodd">
    <rect width="600" height="442" fill="#1A263F"/>
    <g fill="#FC1A57" fill-rule="nonzero" transform="translate(186.871 141)">
      <polygon points="195.834 85.447 195.834 54.423 225.018 54.423 225.018 31.024 195.834 31.024 195.834 0 171.909 0 171.909 31.024 142.725 31.024 142.725 54.423 171.909 54.423 171.909 85.447"/>
      <path d="M70.4612772,168 C104.90317,168 125.673472,148.281359 133.035098,117.783194 L127.513879,114.365296 C117.5231,127.248142 104.90317,132.769361 88.3395117,132.769361 C65.202973,132.769361 48.9022297,114.365296 48.9022297,85.444623 L132.246352,85.444623 L132.246352,78.8717426 C132.246352,44.4298496 112.264796,19.9787348 72.8275141,19.9787348 C33.9160625,19.9787348 8.47150307e-13,49.4252387 8.47150307e-13,97.0128923 C8.47150307e-13,143.023055 31.2869104,168 70.4612772,168 Z M86.23619,72.5617775 L49.1651449,72.5617775 C50.2168058,47.8477474 56.2638557,31.5470042 69.4096164,31.5470042 C82.0295466,31.5470042 86.23619,46.5331713 86.23619,72.5617775 Z"/>
    </g>
  </g>
</svg>
