<svg xmlns="http://www.w3.org/2000/svg" width="600" height="442" viewBox="0 0 600 442">
  <g fill="none" fill-rule="evenodd">
    <rect width="600" height="442" fill="#2F3644"/>
    <g transform="translate(210.702 122)">
      <path fill="#07FFDE" d="M177.998047,132.25286 C177.998047,143.847898 171.886279,154.562537 161.964719,160.360236 C145.896893,169.749245 121.295662,184.125087 105.176809,193.543958 C95.1661307,199.393834 82.8319165,199.393834 72.8212377,193.543958 C56.7041815,184.126021 32.1060054,169.75212 16.0382156,160.362751 C6.1137441,154.563615 0,143.845742 0,132.247111 L0,65.744265 C0,54.1316189 6.12103884,43.4011688 16.0573688,37.5948457 C32.165657,28.1821198 56.8331869,13.7676479 72.9416189,4.35456261 C82.8779129,-1.45176044 95.1201343,-1.45176044 105.056428,4.35456261 C121.16486,13.7676479 145.832211,28.1821198 161.940642,37.5948457 C171.876936,43.4011688 177.998047,54.1316189 177.998047,65.744265 L177.998047,132.25286 Z"/>
      <path fill="#FFF" d="M131.829909,79.838559 L131.829909,144.935281 L111.831909,156.418203 L46.1681379,118.092446 L46.1681379,52.9957241 L66.1661379,41.5128022 C88.0539419,54.288294 109.942105,67.0634265 131.829909,79.838559 Z M72.7597895,102.823448 L105.238258,121.780062 L105.238258,95.1075572 L72.7597895,76.1509437 L72.7597895,102.823448 Z"/>
    </g>
  </g>
</svg>
