<svg xmlns="http://www.w3.org/2000/svg" xmlns:xlink="http://www.w3.org/1999/xlink" width="292" height="353" viewBox="0 0 292 353">
  <defs>
    <polygon id="caricature.svg-a" points="0 .786 291.142 .786 291.142 352.943 0 352.943"/>
  </defs>
  <g fill="none" fill-rule="evenodd">
    <mask id="caricature.svg-b" fill="#fff">
      <use xlink:href="#caricature.svg-a"/>
    </mask>
    <path fill="#888890" d="M121.13555,0.786035746 C0.372709167,0.786035746 -39.7886051,202.175758 45.2397936,287.320786 C93.7224105,335.864254 145.516308,352.942954 206.143665,352.942954 C279.098315,352.942954 291.141639,292.168541 291.141639,182.936865 C291.141639,73.9080246 229.885493,0.786035746 121.13555,0.786035746" mask="url(#caricature.svg-b)"/>
    <path fill="#1A1D1F" d="M99.9766867,186.208837 C99.3720928,186.208837 98.8022457,185.85442 98.5485942,185.267199 C98.2115505,184.481922 98.5763916,183.571557 99.3616688,183.234513 L107.259611,179.850177 C108.041414,179.513133 108.955254,179.877974 109.295772,180.663251 C109.629341,181.452003 109.267975,182.362369 108.479223,182.699413 L100.584755,186.083749 C100.386699,186.167141 100.181693,186.208837 99.9766867,186.208837"/>
    <path fill="#000" d="M89.1422942,194.196774 C89.4445912,194.196774 89.7468881,194.283641 90.0040143,194.457374 C90.4070769,194.728399 90.6607284,195.173158 90.6885258,195.659613 C90.9387026,200.009909 91.8942389,203.943245 92.6690921,207.105201 C92.8706234,207.942599 93.058256,208.707028 93.2111418,209.395014 C101.355786,246.247445 107.658852,273.356881 107.724871,273.624431 C109.903493,281.268722 116.852849,288.169432 126.766104,292.488456 C136.269348,296.626797 146.874064,297.690049 155.126424,295.337692 C157.767179,294.587162 166.196747,290.480093 163.771422,269.294983 C163.57684,267.627137 164.608819,266.09133 166.224544,265.643096 C166.255816,265.636147 166.294038,265.625723 166.332259,265.618774 C192.607772,258.930019 211.735873,235.416875 211.735873,209.728583 L211.735873,135.304461 C211.735873,114.286136 200.07138,90.7764666 174.452581,88.778527 L145.803863,88.778527 C104.420452,88.778527 90.5773361,99.0149274 90.1464761,159.599408 C90.1464761,159.616781 90.125628,160.87114 90.1047799,162.97332 C90.1013053,163.459775 89.8685018,163.921907 89.4723886,164.210305 C89.0762753,164.498703 88.5724471,164.58557 88.0998909,164.439634 C85.7371101,163.713426 83.3048357,163.550116 80.876036,163.956654 C73.2942892,165.235335 67.6618367,171.990108 67.7799757,179.672621 C67.8425199,183.963848 69.5937575,187.945828 72.7105434,190.881931 C75.830804,193.821508 79.9031262,195.326044 84.1839291,195.141886 C85.6780405,195.075867 87.1791013,194.787469 88.6349913,194.280166 C88.7983011,194.224571 88.972035,194.196774 89.1422942,194.196774 M145.751743,299.660191 C139.16028,299.660191 132.085836,298.183453 125.532594,295.330743 C114.761093,290.643402 107.175871,283.016485 104.719274,274.402759 C104.639357,274.058766 98.3328167,246.935432 90.1812228,210.062152 C90.0352864,209.398488 89.8546031,208.651433 89.6530718,207.841833 C89.0033071,205.166331 88.1450617,201.643008 87.7489485,197.761793 C86.6127288,198.029343 85.4660852,198.189178 84.3194416,198.241298 C79.2186147,198.467152 74.3193192,196.656845 70.5840406,193.136997 C66.8557115,189.620623 64.7535315,184.85684 64.6770886,179.717792 C64.5415761,170.516845 71.2824509,162.427795 80.3617837,160.902412 C82.5925268,160.527147 84.8267445,160.551469 87.0296902,160.978855 C87.0401142,160.068489 87.0435889,159.561186 87.0435889,159.561186 C87.4918223,96.8432539 102.82905,85.6791145 145.803863,85.6791145 L174.511651,85.6791145 C174.549872,85.6791145 174.591568,85.6825891 174.62979,85.6825891 C202.256952,87.7986678 214.835285,112.889315 214.835285,135.304461 L214.835285,209.728583 C214.835285,236.813696 194.727325,261.591622 167.02372,268.638269 C166.91948,268.669541 166.832613,268.798104 166.846512,268.940565 C167.534498,274.910062 168.768008,294.674029 155.974245,298.318965 C152.822712,299.218907 149.358459,299.660191 145.751743,299.660191"/>
    <path fill="#1A1D1F" d="M103.685558,170.370909 L86.023771,163.696053 C85.8222397,163.598762 79.4635795,163.435452 79.3801872,163.230446 C77.1390201,157.928088 48.1636828,80.6616799 134.471202,67.4891767 C166.754433,62.5620837 183.38424,62.9234502 204.482483,53.5452951 C204.958514,53.3368145 205.451918,53.8788642 205.472766,54.4000658 L214.810203,134.223837 C214.854396,135.221069 213.322063,135.499043 212.929424,134.581728 C207.331719,121.315409 186.865867,86.6242268 145.280924,100.307508 C92.8445633,117.562757 102.20187,159.522965 104.929492,169.325031 C105.134498,170.058188 104.377019,170.694054 103.685558,170.370909"/>
    <path fill="#1A1D1F" d="M189.656728 132.320756C188.423218 132.459743 187.363441 133.255444 186.880461 134.402088 185.931874 136.664103 187.596244 139.162396 190.052841 139.155461L214.069814 139.089428C212.749436 135.937895 213.221992 132.928824 211.401261 130.079588L189.656728 132.320756zM205.11279 162.953167C205.11279 169.426491 201.996004 174.673255 198.149535 174.673255 194.303067 174.673255 191.186281 169.426491 191.186281 162.953167 191.186281 156.479842 194.303067 151.233079 198.149535 151.233079 201.996004 151.233079 205.11279 156.479842 205.11279 162.953167M153.3321 162.953167C153.3321 169.426491 150.215314 174.673255 146.368846 174.673255 142.522378 174.673255 139.402117 169.426491 139.402117 162.953167 139.402117 156.479842 142.522378 151.233079 146.368846 151.233079 150.215314 151.233079 153.3321 156.479842 153.3321 162.953167M127.62157 128.503475C126.478401 128.371437 125.342181 128.82662 124.602075 129.712662L113.580397 142.912963C113.007076 143.455013 113.597771 144.45572 114.31008 144.153423L125.668801 139.334045C126.092712 139.153362 126.551369 139.06302 127.013501 139.06302L160.769995 139.156836C163.223118 139.163786 164.894438 136.665493 163.942376 134.400003 163.459396 133.256834 162.399619 132.461133 161.166108 132.322145L127.62157 128.503475zM180.237224 203.971042C178.631923 203.971042 176.88416 203.884175 174.99741 203.710441 174.14264 203.630524 173.517198 202.876518 173.597115 202.025222 173.673558 201.170452 174.413665 200.54501 175.282334 200.624927 183.746649 201.403255 188.913495 200.392124 190.636935 197.619331 193.444474 193.105725 187.381162 183.209843 182.506189 175.256305 178.77786 169.16867 175.556834 163.914957 175.122499 160.058065 175.028683 159.206769 175.640226 158.438865 176.491522 158.345049 177.325445 158.247758 178.110722 158.859301 178.204538 159.710597 178.56243 162.882978 181.762608 168.105419 185.150419 173.637106 191.019149 183.213317 197.085937 193.119623 193.267266 199.255904 191.304073 202.414386 187.019795 203.971042 180.237224 203.971042M195.166177 215.591407C195.499746 216.68593 194.881254 217.839523 193.793679 218.173092L177.636428 223.09671C177.483542 223.141881 177.330657 223.169679 177.174296 223.180103L169.978239 223.663083C169.710688 223.680456 169.446613 223.645709 169.196436 223.562317L159.470813 220.372563C158.386714 220.014671 157.792544 218.84718 158.150436 217.76308 158.508327 216.678981 159.672344 216.088285 160.759919 216.446177L170.099852 219.510843 176.656569 219.073034 192.587966 214.218909C192.789498 214.156365 192.991029 214.128567 193.189086 214.128567 194.075128 214.128567 194.895152 214.701889 195.166177 215.591407zM152.300468 180.355395L137.748518 180.355395C136.890273 180.355395 136.195337 179.660459 136.195337 178.805689 136.195337 177.950918 136.890273 177.255982 137.748518 177.255982L152.300468 177.255982C153.155239 177.255982 153.8467 177.950918 153.8467 178.805689 153.8467 179.660459 153.155239 180.355395 152.300468 180.355395M205.425163 180.355395L195.254781 180.355395C194.400011 180.355395 193.705075 179.660459 193.705075 178.805689 193.705075 177.950918 194.400011 177.255982 195.254781 177.255982L205.425163 177.255982C206.279934 177.255982 206.974869 177.950918 206.974869 178.805689 206.974869 179.660459 206.279934 180.355395 205.425163 180.355395M100.526381 194.181485C99.9044134 194.181485 99.3206676 193.80622 99.0809148 193.194677 98.7716685 192.395501 99.1643071 191.499034 99.963483 191.186313L110.721085 187.002801C111.516786 186.693555 112.416728 187.086193 112.729449 187.881894 113.038695 188.68107 112.642582 189.581012 111.846881 189.890258L101.089279 194.077245C100.901646 194.146738 100.714013 194.181485 100.526381 194.181485M101.300191 202.58812C100.678224 202.58812 100.094478 202.212855 99.8547255 201.601312 99.5454792 200.802136 99.9381178 199.905669 100.737294 199.592948L111.494896 195.409436C112.290597 195.10019 113.190539 195.492828 113.50326 196.292004 113.812506 197.087705 113.416393 197.987647 112.620691 198.296893L101.863089 202.48388C101.675457 202.553373 101.487824 202.58812 101.300191 202.58812M113.16969 209.89224C112.749254 209.89224 112.332293 209.721981 112.026522 209.384937 111.449725 208.752546 111.494896 207.772687 112.127287 207.19589L120.654146 199.419562C121.290012 198.842765 122.269871 198.887936 122.846668 199.520327 123.423464 200.152719 123.378294 201.132578 122.745902 201.709374L114.215568 209.485703C113.916746 209.756728 113.541481 209.89224 113.16969 209.89224M218.431577 206.581915C218.198773 206.581915 217.955546 206.52632 217.733166 206.41513L207.437696 201.199639C206.673267 200.810475 206.367496 199.879261 206.75666 199.118307 207.142349 198.350403 208.080512 198.044632 208.837991 198.433796L219.133461 203.649287C219.897891 204.034976 220.203662 204.969664 219.814498 205.730619 219.543473 206.272668 218.997949 206.581915 218.431577 206.581915M170.770118 212.949262C170.127302 212.949262 169.529658 212.549674 169.307278 211.910333 169.025829 211.100733 169.453215 210.218165 170.262815 209.936716L176.412994 207.79284C177.222594 207.507916 178.101688 207.938776 178.386611 208.748376 178.66806 209.554502 178.2372 210.440544 177.431075 210.721993L171.277421 212.862395C171.114111 212.921464 170.940377 212.949262 170.770118 212.949262M168.350699 250.017123C168.117896 250.017123 167.881618 249.965003 167.662713 249.853813L161.828729 246.955932C161.060826 246.577192 160.748105 245.645979 161.130319 244.878075 161.509059 244.113646 162.443747 243.800925 163.208177 244.179665L169.038686 247.077546C169.806589 247.459761 170.11931 248.387499 169.737096 249.155403 169.466071 249.700928 168.920547 250.017123 168.350699 250.017123M166.986541 258.965113C166.757212 258.965113 166.520934 258.912993 166.30203 258.805278L160.468046 255.907397C159.700142 255.525182 159.383946 254.597443 159.769635 253.82954 160.148375 253.061636 161.083064 252.748915 161.847493 253.131129L167.678002 256.025536C168.445906 256.407751 168.758627 257.338964 168.376412 258.103393 168.105387 258.648918 167.556388 258.965113 166.986541 258.965113M164.071634 264.005828C163.842305 264.005828 163.602552 263.953708 163.383648 263.845993L157.549664 260.948112C156.78176 260.565897 156.469039 259.634684 156.851254 258.86678 157.233468 258.102351 158.164682 257.78963 158.929111 258.171844L164.75962 261.066251C165.527524 261.448465 165.84372 262.379679 165.45803 263.144108 165.187005 263.689633 164.641481 264.005828 164.071634 264.005828M199.022027 215.60461C198.792698 215.60461 198.552946 215.55249 198.334041 215.4413L192.500057 212.543419C191.732153 212.164679 191.419432 211.233466 191.801647 210.465562 192.180387 209.701133 193.115075 209.388412 193.879504 209.767152L199.710013 212.665033C200.477917 213.047248 200.794113 213.974986 200.411898 214.74289 200.140873 215.288415 199.591874 215.60461 199.022027 215.60461M187.878736 214.15567C187.649407 214.15567 187.413129 214.10355 187.194224 213.99236L181.356766 211.097953C180.588862 210.715739 180.276141 209.784525 180.658355 209.016621 181.04057 208.252192 181.971784 207.939471 182.739687 208.318211L188.570196 211.216092C189.3381 211.598307 189.650821 212.526046 189.268607 213.29395 188.997582 213.839474 188.448583 214.15567 187.878736 214.15567M163.566068 214.242189C163.149107 214.242189 162.73562 214.075405 162.429849 213.741836 161.846103 213.116394 161.887799 212.136535 162.513241 211.556263L167.297872 207.136473C167.926789 206.556202 168.910123 206.590949 169.490394 207.219866 170.070665 207.852257 170.028969 208.832116 169.403527 209.412387L164.618896 213.832177C164.320073 214.106677 163.941334 214.242189 163.566068 214.242189M207.457502 215.210929C207.071813 215.210929 206.679174 215.064993 206.380352 214.776595L201.693012 210.252564C201.077994 209.658394 201.06062 208.678535 201.65479 208.060043 202.24896 207.445025 203.228819 207.427651 203.843837 208.021821L208.534652 212.545852C209.14967 213.140021 209.167043 214.119881 208.569399 214.734898 208.267102 215.051094 207.860565 215.210929 207.457502 215.210929M155.072914 216.452779C154.659427 216.452779 154.242466 216.285995 153.936694 215.952426 153.356423 215.326984 153.394644 214.347124 154.023561 213.763379L158.804717 209.343589C159.433634 208.763317 160.413493 208.801539 160.997239 209.430456 161.57751 210.059372 161.535814 211.039231 160.910372 211.619502L156.125741 216.039293C155.830393 216.317267 155.448179 216.452779 155.072914 216.452779M149.908153 224.924043C149.491191 224.924043 149.07423 224.757259 148.768458 224.427164 148.188187 223.798248 148.226409 222.818389 148.855325 222.238118L153.639957 217.818327C154.268873 217.238056 155.248732 217.272803 155.829003 217.90172 156.409275 218.534111 156.371053 219.510496 155.742137 220.094241L150.957505 224.514031C150.662158 224.788531 150.283418 224.924043 149.908153 224.924043M131.028491 248.566445C130.615005 248.566445 130.198043 248.399661 129.892272 248.069566 129.312001 247.44065 129.350222 246.460791 129.979139 245.880519L134.760295 241.460729C135.389212 240.880458 136.369071 240.915205 136.952817 241.544122 137.533088 242.176513 137.491392 243.156372 136.86595 243.736643L132.081319 248.156433C131.785971 248.430933 131.403757 248.566445 131.028491 248.566445M123.668429 222.516787C123.049937 222.516787 122.466191 222.144996 122.226438 221.533453L117.987331 210.796699C117.67461 210.000998 118.067249 209.101056 118.86295 208.788335 119.658651 208.472139 120.558593 208.864778 120.871314 209.660479L125.11042 220.397233C125.426616 221.192934 125.037452 222.092876 124.238276 222.409072 124.050644 222.48204 123.859536 222.516787 123.668429 222.516787M156.843957 243.138999C156.510388 243.138999 156.176819 243.031284 155.891895 242.808904L146.795189 235.703189C146.121101 235.175038 146.002962 234.202128 146.531113 233.52804 147.059264 232.853953 148.032174 232.732339 148.706262 233.26049L157.799493 240.366206C158.477055 240.894357 158.595194 241.867267 158.070518 242.544829 157.761272 242.933993 157.306089 243.138999 156.843957 243.138999M125.154549 243.291885C124.859201 243.291885 124.563854 243.208492 124.299778 243.031284L114.68187 236.648301C113.969561 236.175745 113.774979 235.213259 114.247535 234.50095 114.720092 233.788641 115.682577 233.594059 116.394886 234.066615L126.012794 240.449598C126.725103 240.922154 126.92316 241.88464 126.447129 242.596949 126.148307 243.048657 125.658377 243.291885 125.154549 243.291885M118.619375 228.768774C118.000882 228.768774 117.417136 228.396984 117.177384 227.78544L112.938277 217.048686C112.622081 216.252985 113.01472 215.353044 113.810421 215.040323 114.609597 214.724127 115.506064 215.116766 115.822259 215.912467L120.061366 226.649221C120.374087 227.444922 119.984923 228.344864 119.185747 228.661059 118.998115 228.734027 118.810482 228.768774 118.619375 228.768774M142.443155 244.148393C141.915004 244.148393 141.397277 243.877368 141.108879 243.387438L135.22625 233.456809C134.78844 232.720178 135.031668 231.768116 135.768299 231.333781 136.501456 230.899447 137.453518 231.139199 137.887853 231.875831L143.773957 241.80646C144.211766 242.546566 143.965064 243.495153 143.231907 243.932963 142.98173 244.078899 142.710705 244.148393 142.443155 244.148393M129.555576 239.182383C129.027425 239.182383 128.509698 238.911358 128.221299 238.421429L122.33867 228.4908C121.900861 227.754168 122.140613 226.805581 122.88072 226.367772 123.617351 225.933437 124.562464 226.176665 125.000273 226.913296L130.889852 236.843925C131.324187 237.580557 131.080959 238.529144 130.347802 238.966953 130.094151 239.11289 129.823126 239.182383 129.555576 239.182383"/>
    <path fill="#1A1D1F" d="M152.324444 257.516173C151.994349 257.516173 151.664255 257.411932 151.382806 257.196502L142.230505 250.16028C141.549468 249.639078 141.42438 248.666169 141.949056 247.985132 142.470258 247.30757 143.439693 247.179007 144.12073 247.703683L153.269556 254.739905C153.950593 255.261107 154.079156 256.234017 153.554479 256.911579 153.252183 257.307692 152.79005 257.516173 152.324444 257.516173L219.50142 317.499536M157.465229 251.571347C157.110812 251.571347 156.75987 251.453208 156.467997 251.20998L147.628417 243.784594C146.971703 243.235595 146.88831 242.255736 147.437309 241.599022 147.989783 240.945782 148.969642 240.858915 149.622882 241.411389L158.462462 248.833301C159.119176 249.385774 159.202568 250.362159 158.653569 251.018873 158.347797 251.383714 157.906513 251.571347 157.465229 251.571347M196.04944 245.451397C195.72977 245.451397 195.4101 245.354106 195.132125 245.152575 194.444139 244.645272 194.294728 243.675836 194.802031 242.984376L201.619349 233.672239C202.123177 232.980779 203.092612 232.831367 203.787547 233.33867 204.475534 233.842499 204.624945 234.811934 204.117642 235.503395L197.300324 244.815531C196.994553 245.232492 196.528946 245.451397 196.04944 245.451397M187.641068 246.332228C187.304024 246.332228 186.96698 246.224513 186.682057 245.998659 186.007969 245.470508 185.893305 244.497598 186.42493 243.82351L193.568868 234.758076C194.097019 234.083989 195.073403 233.969324 195.744016 234.50095 196.414629 235.029101 196.532768 236.002011 196.001142 236.676098L188.86068 245.741532C188.554908 246.130696 188.099725 246.332228 187.641068 246.332228M134.397886 227.833738C133.841938 227.833738 133.303363 227.531442 133.021914 226.999816L127.684809 216.763415C127.292171 216.005936 127.587518 215.067773 128.344998 214.671659 129.105952 214.279021 130.040641 214.570894 130.433279 215.331848L135.773859 225.564774C136.169972 226.325728 135.874624 227.260417 135.11367 227.65653 134.887816 227.774669 134.641114 227.833738 134.397886 227.833738M144.509546 230.712856C143.950123 230.712856 143.408073 230.407085 143.133574 229.871984L137.841639 219.614736C137.449001 218.850307 137.747823 217.915618 138.508778 217.526455 139.269732 217.130341 140.20442 217.429164 140.597059 218.190118L145.885518 228.450841C146.281632 229.211796 145.982809 230.146484 145.221855 230.539123 144.996001 230.657262 144.749299 230.712856 144.509546 230.712856M169.836819 241.445788C169.075865 241.445788 168.415676 240.886365 168.304486 240.114987L166.695711 228.683297C166.577571 227.835476 167.164792 227.050199 168.012613 226.93206 168.853485 226.813921 169.642237 227.401141 169.763851 228.248962L171.372627 239.680652C171.49424 240.528473 170.903545 241.310276 170.052249 241.43189 169.982756 241.442314 169.909787 241.445788 169.836819 241.445788M183.077079 242.719953C182.993686 242.719953 182.906819 242.713003 182.823427 242.699105 181.97908 242.560117 181.409233 241.760942 181.54822 240.916595L183.438445 229.530076C183.577432 228.682255 184.373133 228.112408 185.21748 228.251395 186.061827 228.393857 186.631674 229.189558 186.492687 230.037379L184.602462 241.423898C184.477374 242.181378 183.824134 242.719953 183.077079 242.719953M184.607674 262.558625C183.930112 262.558625 183.30467 262.106917 183.113563 261.418931L180.048897 250.293013C179.819568 249.466039 180.306023 248.611269 181.129522 248.385415 181.95302 248.159561 182.807791 248.642541 183.03712 249.466039L186.10526 260.595432C186.331114 261.418931 185.844659 262.273701 185.021161 262.499555 184.882174 262.541252 184.743186 262.558625 184.607674 262.558625M177.739626 238.899197C176.88833 238.899197 176.196869 238.214686 176.18992 237.36339L176.082205 225.82051C176.075255 224.96574 176.763242 224.263855 177.618012 224.256905L177.631911 224.256905C178.483207 224.256905 179.174668 224.941417 179.181617 225.792713L179.285858 237.335592C179.296282 238.190363 178.608296 238.892248 177.753525 238.899197L177.739626 238.899197zM174.285449 264.109374C173.430678 264.109374 172.739217 263.414438 172.739217 262.559667L172.739217 252.448355C172.739217 251.593585 173.430678 250.898649 174.285449 250.898649 175.14022 250.898649 175.835155 251.593585 175.835155 252.448355L175.835155 262.559667C175.835155 263.414438 175.14022 264.109374 174.285449 264.109374M211.807799 235.344602C211.5194 235.344602 211.231002 235.264684 210.970401 235.0979L198.492834 227.071394C197.773575 226.609262 197.565095 225.650251 198.027227 224.930993 198.492834 224.20826 199.451845 224.003254 200.167628 224.465386L212.648671 232.491891C213.367929 232.954024 213.576409 233.913035 213.114277 234.632293 212.815455 235.094425 212.315101 235.344602 211.807799 235.344602M210.68791 225.842053C210.482904 225.842053 210.277898 225.803832 210.076367 225.716965L199.839966 221.331922C199.054689 220.994878 198.689848 220.081038 199.026892 219.29576 199.363935 218.510483 200.274301 218.142167 201.059578 218.482686L211.299453 222.867729C212.08473 223.204773 212.453046 224.115138 212.112528 224.900416 211.862351 225.491111 211.289029 225.842053 210.68791 225.842053M196.643263 146.090556C191.44167 146.090556 187.212987 150.322713 187.212987 155.520831L187.212987 170.114477C187.212987 178.884564 194.346501 186.014603 203.109638 186.014603L213.373836 186.014603C223.613711 186.014603 227.248224 176.869251 227.248224 169.040802L227.248224 150.044739C227.248224 147.866116 225.476138 146.090556 223.297515 146.090556L196.643263 146.090556zM213.373836 189.114015L203.109638 189.114015C192.636959 189.114015 184.113575 180.590631 184.113575 170.114477L184.113575 155.520831C184.113575 148.613172 189.735603 142.991143 196.643263 142.991143L223.297515 142.991143C227.18568 142.991143 230.347636 146.156575 230.347636 150.044739L230.347636 169.040802C230.347636 181.049288 223.526844 189.114015 213.373836 189.114015L213.373836 189.114015zM126.596887 146.090556C124.418265 146.090556 122.642704 147.866116 122.642704 150.044739L122.642704 172.140214C122.642704 179.791455 128.865852 186.014603 136.517092 186.014603L146.78129 186.014603C155.547902 186.014603 162.681415 178.884564 162.681415 170.114477L162.681415 155.520831C162.681415 150.322713 158.449258 146.090556 153.25114 146.090556L126.596887 146.090556zM146.78129 189.114015L136.517092 189.114015C127.156311 189.114015 119.543292 181.500996 119.543292 172.140214L119.543292 150.044739C119.543292 146.156575 122.708723 142.991143 126.596887 142.991143L153.25114 142.991143C160.158799 142.991143 165.777353 148.613172 165.777353 155.520831L165.777353 170.114477C165.777353 180.590631 157.253969 189.114015 146.78129 189.114015L146.78129 189.114015z"/>
    <path fill="#1A1D1F" d="M185.662934 157.071232L164.231122 157.071232C163.372876 157.071232 162.681415 156.376297 162.681415 155.521526 162.681415 154.666755 163.372876 153.97182 164.231122 153.97182L185.662934 153.97182C186.517704 153.97182 187.21264 154.666755 187.21264 155.521526 187.21264 156.376297 186.517704 157.071232 185.662934 157.071232M66.3869774 164.867019C65.5322067 164.867019 64.8372712 164.172084 64.8372712 163.317313 64.8372712 159.238041 66.0429844 156.023964 68.4196639 153.755 72.1445184 150.200405 77.3530603 150.401936 77.5754396 150.41236L120.505083 150.408885C121.359853 150.408885 122.054789 151.103821 122.054789 151.958592 122.054789 152.816837 121.359853 153.508298 120.505083 153.508298L77.4989967 153.508298C77.3843324 153.504823 73.2842127 153.37626 70.5392173 156.017015 68.8123025 157.674436 67.9366837 160.131033 67.9366837 163.317313 67.9366837 164.172084 67.2417482 164.867019 66.3869774 164.867019M108.337804 224.891729C107.719311 224.891729 107.135565 224.519938 106.895812 223.91187L102.656706 213.171641C102.343985 212.37594 102.736623 211.479473 103.52885 211.163277 104.324551 210.847082 105.224492 211.23972 105.540688 212.035421L109.779795 222.772175C110.092516 223.567877 109.703352 224.467818 108.907651 224.784014 108.720018 224.856982 108.528911 224.891729 108.337804 224.891729M99.9971873 217.401366C99.3786947 217.401366 98.7949489 217.029576 98.5551961 216.421507L94.3160893 205.684753C94.0033683 204.885577 94.3960069 203.98911 95.1882334 203.672915 95.9874093 203.356719 96.8838761 203.749357 97.2000718 204.545059L101.439179 215.281813C101.755374 216.077514 101.362736 216.977455 100.567034 217.293651 100.379402 217.366619 100.188295 217.401366 99.9971873 217.401366M106.997273 232.564165C106.507343 232.564165 106.027838 232.334836 105.725541 231.900501L99.1132293 222.438954C98.6232998 221.737069 98.7970337 220.771109 99.4989186 220.281179 100.197329 219.791249 101.163289 219.961509 101.656693 220.663394L108.26553 230.124941C108.75546 230.826826 108.585201 231.792786 107.883316 232.282716 107.612291 232.473823 107.303045 232.564165 106.997273 232.564165"/>
  </g>
</svg>
