<svg xmlns="http://www.w3.org/2000/svg" xmlns:xlink="http://www.w3.org/1999/xlink" width="1280" height="566" viewBox="0 0 1280 566">
  <defs>
    <polygon id="cdl-placeholder-a" points="0 0 247.858 0 247.858 117.733 0 117.733"/>
  </defs>
  <g fill="none" fill-rule="evenodd" transform="translate(.163)">
    <rect width="1280" height="566" fill="#1D1D2A"/>
    <g transform="translate(373.484 224.095)">
      <mask id="cdl-placeholder-b" fill="#fff">
        <use xlink:href="#cdl-placeholder-a"/>
      </mask>
      <path fill="#00FFF0" d="M136.321893,111.536155 L185.893368,111.536155 L185.893368,6.19660224 L136.321893,6.19660224 L136.321893,111.536155 Z M188.30327,117.732757 L130.125291,117.732757 L130.125291,0 L188.30327,0 C190.391292,0 192.08997,1.69901422 192.08997,3.78703624 L192.08997,113.946057 C192.08997,116.034079 190.391292,117.732757 188.30327,117.732757 L188.30327,117.732757 Z" mask="url(#cdl-placeholder-b)"/>
      <path fill="#00FFF0" d="M188.991703,6.19673649 C159.949367,6.19673649 136.321926,29.8241774 136.321926,58.8665129 C136.321926,87.9088484 159.949367,111.536289 188.991703,111.536289 C218.034038,111.536289 241.661479,87.9088484 241.661479,58.8665129 C241.661479,29.8241774 218.034038,6.19673649 188.991703,6.19673649 M188.991703,117.732892 C156.532543,117.732892 130.125324,91.3253371 130.125324,58.8665129 C130.125324,26.4073531 156.532543,0.000134256359 188.991703,0.000134256359 C221.450863,0.000134256359 247.858081,26.4073531 247.858081,58.8665129 C247.858081,91.3253371 221.450863,117.732892 188.991703,117.732892" mask="url(#cdl-placeholder-b)"/>
      <polygon fill="#00FFF0" points="117.733 117.733 58.866 117.733 58.866 111.536 111.536 111.536 111.536 6.197 58.866 6.197 58.866 0 117.733 0" mask="url(#cdl-placeholder-b)"/>
      <path fill="#00FFF0" d="M58.8663115,6.19673649 C29.823976,6.19673649 6.19653511,29.8241774 6.19653511,58.8665129 C6.19653511,87.9088484 29.823976,111.536289 58.8663115,111.536289 C87.9086471,111.536289 111.536088,87.9088484 111.536088,58.8665129 C111.536088,29.8241774 87.9086471,6.19673649 58.8663115,6.19673649 M-6.71281793e-05,58.8665129 C-6.71281793e-05,26.4073531 26.4071517,0.000134256359 58.8663115,0.000134256359 C91.3254714,0.000134256359 117.73269,26.4073531 117.73269,58.8665129 C117.73269,91.3253371 91.3254714,117.732892 58.8663115,117.732892 C26.4071517,117.732892 -6.71281793e-05,91.3253371 -6.71281793e-05,58.8665129 Z" mask="url(#cdl-placeholder-b)"/>
      <polygon fill="#00FFF0" points="3.098 61.965 114.634 61.965 114.634 55.768 3.098 55.768" mask="url(#cdl-placeholder-b)"/>
    </g>
    <g fill="#FFF" transform="translate(643.618 229.822)">
      <path d="M18.3090639 16.2167085C18.2000814 17.1321617 17.9706732 18.0312675 17.622474 18.9140259 17.27373 19.7967844 16.7609672 20.5874526 16.0858204 21.2843958 15.2134153 22.1785974 14.2004228 22.8591933 13.045208 23.3278181 11.8899933 23.796443 10.6911855 24.0307554 9.44878478 24.0307554 8.20638401 24.0307554 7.02392363 23.8231437 5.90140364 23.409555 4.77833874 22.9959663 3.7702504 22.3420712 2.87713862 21.4478696 2.24503998 20.8157709 1.73827125 20.1515225 1.35683242 19.4534894.974848671 18.7560013.686589897 18.0149201.490421355 17.2302459.294252813 16.4455718.163473785 15.6232986.098084271 14.7617918.032694757 13.9008298-9.47364376e-13 12.9913707-9.47364376e-13 12.0317796-9.47364376e-13 11.0950748.032694757 10.1899749.098084271 9.31811473.163473785 8.44679946.294252813 7.61798737.490421355 6.8333132.686589897 6.04863903.974848671 5.30755787 1.35683242 4.61006972 1.73827125 3.91258157 2.24503998 3.24833309 2.87713862 2.61568954 3.7702504 1.72203285 4.77833874 1.06268859 5.90140364.637656744 7.02392363.212624903 8.20638401.000108982523 9.44878478.000108982523 10.6911855.000108982523 11.8899933.224068068 13.045208.670351501 14.2004228 1.11772476 15.2134153 1.78796728 16.0858204 2.68107906 16.7609672 3.37911212 17.27373 4.16378629 17.622474 5.03510156 17.9706732 5.90750666 18.2000814 6.80061844 18.3090639 7.71607164L13.993356 7.71607164C13.9492181 7.21475203 13.8407805 6.77337281 13.6664084 6.39193398 13.4914915 6.01104006 13.2522748 5.63505035 12.9471238 5.26396486 12.5760383 4.78498667 12.0807127 4.42534434 11.4595123 4.18503788 10.8383119 3.94527633 10.1680694 3.82539555 9.44878478 3.82539555 8.77309313 3.82539555 8.12464712 3.95617458 7.50344673 4.21773264 6.88224635 4.47929069 6.34278286 4.86072952 5.88505626 5.36204913 5.49271918 5.77618272 5.1870232 6.25625074 4.96960307 6.80061844 4.75163802 7.34553106 4.59361336 7.91823422 4.49552909 8.51709318 4.39744482 9.11704197 4.33695952 9.72189498 4.31570793 10.3316522 4.29336651 10.9419543 4.28301317 11.5086634 4.28301317 12.0317796 4.28301317 12.5548957 4.29336651 13.1221497 4.31570793 13.7319069 4.33695952 14.342754 4.39744482 14.9470621 4.49552909 15.5464659 4.59361336 16.1464147 4.75163802 16.718573 4.96960307 17.2629407 5.1870232 17.8078533 5.49271918 18.2879213 5.88505626 18.70151 6.34278286 19.2028296 6.88224635 19.5842684 7.50344673 19.8458265 8.12464712 20.1073845 8.77309313 20.2381636 9.44878478 20.2381636 10.1680694 20.2381636 10.8383119 20.1128337 11.4595123 19.8621739 12.0807127 19.6115141 12.5760383 19.2469675 12.9471238 18.7668995 13.556881 18.0263633 13.90617 17.1762996 13.993356 16.2167085L18.3090639 16.2167085zM35.5392554 12.0316706C35.5392554 11.5085545 35.5278122 10.9418453 35.5060157 10.3315432 35.4842192 9.721786 35.4188297 9.11693299 35.3098471 8.5169842 35.2008646 7.91812524 35.0319417 7.34542207 34.8030784 6.80050946 34.5742151 6.25614175 34.2636149 5.77661865 33.8712778 5.36194015 33.4140962 4.86062054 32.8577404 4.47918171 32.2043901 4.21762365 31.550495 3.9560656 30.8851567 3.82528657 30.21001 3.82528657 29.5337734 3.82528657 28.8695249 3.9560656 28.2156298 4.21762365 27.5611897 4.47918171 27.0059238 4.86062054 26.5481972 5.36194015 26.1553152 5.77661865 25.8452599 6.25614175 25.6163966 6.80050946 25.3869884 7.34542207 25.2186104 7.91812524 25.109083 8.5169842 25.0001004 9.11693299 24.9347109 9.721786 24.9134593 10.3315432 24.8911179 10.9418453 24.8802197 11.5085545 24.8802197 12.0316706 24.8802197 12.5547867 24.8911179 13.1220407 24.9134593 13.7317979 24.9347109 14.342645 25.0001004 14.941504 25.109083 15.5300096 25.2186104 16.1185152 25.3869884 16.6857692 25.6163966 17.2301369 25.8452599 17.7755945 26.1553152 18.2551176 26.5481972 18.6687063 27.0059238 19.1705708 27.5611897 19.5514647 28.2156298 19.8130227 28.8695249 20.0745808 29.5337734 20.2053598 30.21001 20.2053598 30.8851567 20.2053598 31.550495 20.0745808 32.2043901 19.8130227 32.8577404 19.5514647 33.4140962 19.1705708 33.8712778 18.6687063 34.2636149 18.2551176 34.5742151 17.7755945 34.8030784 17.2301369 35.0319417 16.6857692 35.2008646 16.1185152 35.3098471 15.5300096 35.4188297 14.941504 35.4842192 14.342645 35.5060157 13.7317979 35.5278122 13.1220407 35.5392554 12.5547867 35.5392554 12.0316706M39.8217236 12.0316706C39.8217236 12.9912617 39.7895738 13.8952717 39.7241843 14.7453354 39.6587947 15.5953991 39.5165726 16.412768 39.2986075 17.1974422 39.0806425 17.9821164 38.7809405 18.7237424 38.4000466 19.4206857 38.0180629 20.1187187 37.5112941 20.7835121 36.8797404 21.4150658 35.9855388 22.3092674 34.9611031 22.9680668 33.8058883 23.3930986 32.6506736 23.8181305 31.4524107 24.0306464 30.21001 24.0306464 28.9670643 24.0306464 27.7682565 23.8181305 26.6130418 23.3930986 25.457827 22.9680668 24.4333913 22.3092674 23.5397346 21.4150658 22.907636 20.7835121 22.4008673 20.1187187 22.0194284 19.4206857 21.6379896 18.7237424 21.3377427 17.9821164 21.1208675 17.1974422 20.9029025 16.412768 20.7612252 15.5953991 20.6958357 14.7453354 20.6304462 13.8952717 20.5972065 12.9912617 20.5972065 12.0316706 20.5972065 11.0949658 20.6304462 10.1904108 20.6958357 9.31800575 20.7612252 8.44669047 20.9029025 7.61787838 21.1208675 6.83320421 21.3377427 6.04853005 21.6379896 5.3079938 22.0194284 4.60996074 22.4008673 3.9130175 22.907636 3.24822411 23.5397346 2.61558056 24.4333913 1.72246878 25.457827 1.0625796 26.6130418.637547762 27.7682565.212515921 28.9670643 1.18420547e-13 30.21001 1.18420547e-13 31.4524107 1.18420547e-13 32.6506736.212515921 33.8058883.637547762 34.9611031 1.0625796 35.9855388 1.72246878 36.8797404 2.61558056 37.5112941 3.24822411 38.0180629 3.9130175 38.4000466 4.60996074 38.7809405 5.3079938 39.0806425 6.04853005 39.2986075 6.83320421 39.5165726 7.61787838 39.6587947 8.44669047 39.7241843 9.31800575 39.7895738 10.1904108 39.8217236 11.0949658 39.8217236 12.0316706"/>
      <polygon points="63.1 23.606 63.1 7.062 57.085 23.279 53.979 23.279 47.995 6.866 47.995 23.606 43.909 23.606 43.909 .425 49.598 .425 55.679 16.936 61.793 .425 67.187 .425 67.187 23.606"/>
      <path d="M85.6270237 7.8796544C85.6270237 6.76803267 85.2995312 5.86347772 84.6456361 5.16598957 83.9922858 4.46850142 82.9569519 4.11975735 81.5401791 4.11975735L76.7994393 4.11975735 76.7994393 11.6068567 81.5401791 11.6068567C82.9569519 11.6068567 83.9922858 11.2635618 84.6456361 10.5769719 85.2995312 9.89038196 85.6270237 8.99127614 85.6270237 7.8796544M89.8773421 7.84695965C89.8773421 8.95858139 89.7024252 9.97211885 89.354226 10.887572 89.004937 11.8030252 88.4878149 12.5876994 87.8006801 13.2415946 87.1140902 13.8954897 86.2585774 14.4022584 85.2341417 14.7619008 84.209706 15.1215431 83.0326947 15.3013642 81.7036529 15.3013642L76.7994393 15.3013642 76.7994393 23.6058325 72.6145104 23.6058325 72.6145104.425249806 81.7036529.425249806C83.0326947.425249806 84.209706.60507097 85.2341417.964713297 86.2585774 1.32435562 87.1140902 1.82622014 87.8006801 2.46867212 88.4878149 3.11166901 89.004937 3.89089405 89.354226 4.80634725 89.7024252 5.72180044 89.8773421 6.73533791 89.8773421 7.84695965M110.539775 14.7128586C110.539775 16.0860384 110.34851 17.3447866 109.967616 18.4891031 109.586178 19.6334195 109.014019 20.6142623 108.251687 21.4316312 107.487719 22.2490001 106.540116 22.8865479 105.406698 23.3442745 104.27328 23.8020011 102.954591 24.0308644 101.450632 24.0308644 99.9472183 24.0308644 98.6279848 23.8020011 97.4951115 23.3442745 96.3611484 22.8865479 95.4130004 22.2490001 94.6506676 21.4316312 93.8867002 20.6142623 93.3150868 19.6334195 92.933648 18.4891031 92.5522092 17.3447866 92.3620347 16.0860384 92.3620347 14.7128586L92.3620347.425249806 96.5791134.425249806 96.5791134 14.6474691C96.5791134 16.3040035 96.9719954 17.6444885 97.7561246 18.6689242 98.5407988 19.6939048 99.7717564 20.2055778 101.450632 20.2055778 103.128963 20.2055778 104.360466 19.6939048 105.145685 18.6689242 105.929814 17.6444885 106.322696 16.3040035 106.322696 14.6474691L106.322696.425249806 110.539775.425249806 110.539775 14.7128586z"/>
      <polygon points="123.879 4.349 123.879 23.606 119.662 23.606 119.662 4.349 112.796 4.349 112.796 .425 130.745 .425 130.745 4.349"/>
      <path d="M139.016745,5.59091243 L135.714574,15.3666448 L142.31946,15.3666448 L139.016745,5.59091243 Z M145.131209,23.6057235 L143.62725,19.1592366 L134.406784,19.1592366 L132.902825,23.6057235 L128.652507,23.6057235 L136.794046,0.425140824 L141.404007,0.425140824 L149.544456,23.6057235 L145.131209,23.6057235 Z"/>
      <polygon points="158.536 4.349 158.536 23.606 154.318 23.606 154.318 4.349 147.452 4.349 147.452 .425 165.402 .425 165.402 4.349"/>
      <polygon points="168.311 23.605 172.593 23.605 172.593 .425 168.311 .425"/>
      <path d="M191.622663,12.0316706 C191.622663,11.5085545 191.61122,10.9418453 191.589423,10.3315432 C191.567627,9.721786 191.502237,9.11693299 191.393255,8.5169842 C191.284272,7.91812524 191.115349,7.34542207 190.886486,6.80050946 C190.657623,6.25614175 190.347023,5.77661865 189.954686,5.36194015 C189.497504,4.86062054 188.941148,4.47918171 188.287798,4.21762365 C187.633903,3.9560656 186.968564,3.82528657 186.293418,3.82528657 C185.617181,3.82528657 184.952933,3.9560656 184.299037,4.21762365 C183.644597,4.47918171 183.089331,4.86062054 182.631605,5.36194015 C182.238723,5.77661865 181.928668,6.25614175 181.699804,6.80050946 C181.470396,7.34542207 181.302018,7.91812524 181.192491,8.5169842 C181.083508,9.11693299 181.018119,9.721786 180.996867,10.3315432 C180.974526,10.9418453 180.963627,11.5085545 180.963627,12.0316706 C180.963627,12.5547867 180.974526,13.1220407 180.996867,13.7317979 C181.018119,14.342645 181.083508,14.941504 181.192491,15.5300096 C181.302018,16.1185152 181.470396,16.6857692 181.699804,17.2301369 C181.928668,17.7755945 182.238723,18.2551176 182.631605,18.6687063 C183.089331,19.1705708 183.644597,19.5514647 184.299037,19.8130227 C184.952933,20.0745808 185.617181,20.2053598 186.293418,20.2053598 C186.968564,20.2053598 187.633903,20.0745808 188.287798,19.8130227 C188.941148,19.5514647 189.497504,19.1705708 189.954686,18.6687063 C190.347023,18.2551176 190.657623,17.7755945 190.886486,17.2301369 C191.115349,16.6857692 191.284272,16.1185152 191.393255,15.5300096 C191.502237,14.941504 191.567627,14.342645 191.589423,13.7317979 C191.61122,13.1220407 191.622663,12.5547867 191.622663,12.0316706 M195.905131,12.0316706 C195.905131,12.9912617 195.872981,13.8952717 195.807592,14.7453354 C195.742202,15.5953991 195.59998,16.412768 195.382015,17.1974422 C195.16405,17.9821164 194.864348,18.7237424 194.483454,19.4206857 C194.101471,20.1187187 193.594702,20.7835121 192.963148,21.4150658 C192.068946,22.3092674 191.044511,22.9680668 189.889296,23.3930986 C188.734081,23.8181305 187.535818,24.0306464 186.293418,24.0306464 C185.050472,24.0306464 183.851664,23.8181305 182.696449,23.3930986 C181.541235,22.9680668 180.516799,22.3092674 179.623142,21.4150658 C178.991044,20.7835121 178.484275,20.1187187 178.102836,19.4206857 C177.721397,18.7237424 177.42115,17.9821164 177.204275,17.1974422 C176.98631,16.412768 176.844633,15.5953991 176.779243,14.7453354 C176.713854,13.8952717 176.680614,12.9912617 176.680614,12.0316706 C176.680614,11.0949658 176.713854,10.1904108 176.779243,9.31800575 C176.844633,8.44669047 176.98631,7.61787838 177.204275,6.83320421 C177.42115,6.04853005 177.721397,5.3079938 178.102836,4.60996074 C178.484275,3.9130175 178.991044,3.24822411 179.623142,2.61558056 C180.516799,1.72246878 181.541235,1.0625796 182.696449,0.637547762 C183.851664,0.212515921 185.050472,1.18420547e-13 186.293418,1.18420547e-13 C187.535818,1.18420547e-13 188.734081,0.212515921 189.889296,0.637547762 C191.044511,1.0625796 192.068946,1.72246878 192.963148,2.61558056 C193.594702,3.24822411 194.101471,3.9130175 194.483454,4.60996074 C194.864348,5.3079938 195.16405,6.04853005 195.382015,6.83320421 C195.59998,7.61787838 195.742202,8.44669047 195.807592,9.31800575 C195.872981,10.1904108 195.905131,11.0949658 195.905131,12.0316706"/>
      <polygon points="214.181 23.606 204.144 7.683 204.144 23.606 199.992 23.606 199.992 .425 204.471 .425 214.377 16.119 214.377 .425 218.53 .425 218.53 23.606"/>
      <path d="M231.607207,5.59091243 L228.305036,15.3666448 L234.909922,15.3666448 L231.607207,5.59091243 Z M237.721671,23.6057235 L236.217712,19.1592366 L226.997246,19.1592366 L225.493287,23.6057235 L221.242969,23.6057235 L229.384508,0.425140824 L233.994469,0.425140824 L242.134918,23.6057235 L237.721671,23.6057235 Z"/>
      <polygon points="244.849 23.606 244.849 .425 249.066 .425 249.066 19.617 259.823 19.617 259.823 23.606"/>
      <path d="M15.3663178,51.2329022 C15.3663178,50.7097861 15.3548747,50.1539752 15.3336231,49.5654696 C15.3118266,48.976964 15.2464371,48.3939075 15.1374545,47.8163001 C15.028472,47.2386927 14.8649982,46.688331 14.6475781,46.1652149 C14.4290681,45.6420987 14.1130188,45.1734739 13.6988852,44.7593403 C13.3070931,44.3670032 12.8330191,44.0509539 12.2766633,43.8111924 C11.7213973,43.5714308 11.1051012,43.45155 10.4294095,43.45155 L5.62328024,43.45155 L5.62328024,59.0469491 L10.4294095,59.0469491 C11.1051012,59.0469491 11.7213973,58.9276133 12.2766633,58.6873068 C12.8330191,58.4475452 13.3070931,58.1314959 13.6988852,57.7391588 C14.1130188,57.3255702 14.4290681,56.8564004 14.6475781,56.3332843 C14.8649982,55.8101682 15.028472,55.2598064 15.1374545,54.6821991 C15.2464371,54.1051366 15.3118266,53.5160861 15.3336231,52.9166822 C15.3548747,52.3172783 15.3663178,51.7560183 15.3663178,51.2329022 M19.649331,51.2329022 C19.649331,52.0393729 19.6220854,52.8512927 19.5675941,53.6686616 C19.5131028,54.4860305 19.3883179,55.2870521 19.1921493,56.0717262 C18.9954359,56.8564004 18.7175304,57.6138289 18.3578881,58.3440118 C17.9982458,59.0747397 17.5241718,59.7449822 16.9362111,60.3547394 C16.1722436,61.1612101 15.2300897,61.7769613 14.1075697,62.2019932 C12.9850497,62.627025 11.7589963,62.8395409 10.4294095,62.8395409 L1.4062015,62.8395409 L1.4062015,39.6589582 L10.4294095,39.6589582 C11.7589963,39.6589582 12.9850497,39.8714741 14.1075697,40.296506 C15.2300897,40.7215378 16.1722436,41.3372891 16.9362111,42.1437597 C17.5241718,42.7540619 17.9982458,43.4188553 18.3578881,44.1381399 C18.7175304,44.8574246 18.9954359,45.609404 19.1921493,46.3940782 C19.3883179,47.1787523 19.5131028,47.9797739 19.5675941,48.7971428 C19.6220854,49.6145117 19.649331,50.4269764 19.649331,51.2329022"/>
      <polygon points="23.769 62.839 23.769 39.659 40.28 39.659 40.28 43.484 27.986 43.484 27.986 48.879 38.808 48.879 38.808 52.671 27.986 52.671 27.986 59.014 40.28 59.014 40.28 62.839"/>
      <path d="M61.0085801,55.9407837 C61.0085801,57.0311539 60.8287589,57.9678587 60.4691166,58.7525328 C60.1094742,59.537207 59.6457536,60.2128986 59.0795894,60.7796078 C58.1853878,61.6738094 57.1010117,62.3113571 55.8259162,62.6922511 C54.5508206,63.073145 53.1939882,63.2644093 51.7559638,63.2644093 C50.5130181,63.2644093 49.2869648,63.0845881 48.0778037,62.7249458 C46.8680976,62.3653035 45.7837215,61.7500971 44.8246753,60.877692 C44.1266423,60.2455934 43.5495798,59.4669133 43.0913083,58.5400169 C42.6335817,57.6136655 42.4047184,56.5946789 42.4047184,55.4830571 L46.7204263,55.4830571 C46.7204263,56.0503112 46.834858,56.5783315 47.0637213,57.0687529 C47.2925846,57.5591742 47.5813883,57.9793018 47.9306772,58.327501 C48.4314519,58.8293655 49.0363049,59.1612173 49.7446914,59.3246911 C50.4530778,59.4881649 51.1451168,59.5699018 51.8213533,59.5699018 C52.6272791,59.5699018 53.3907017,59.4772666 54.1099863,59.2919963 C54.8287261,59.107271 55.4063334,58.7852276 55.8428084,58.327501 C56.1043665,58.0446913 56.3217866,57.7449894 56.4967036,57.4283952 C56.6705307,57.1128908 56.7577167,56.6715116 56.7577167,56.1042575 C56.7577167,55.2541938 56.4798113,54.6166461 55.9245453,54.1916142 C55.3681896,53.7665824 54.7306418,53.488677 54.0113571,53.3578979 C53.2272279,53.2058673 52.365721,53.0963399 51.4290162,53.0309504 C50.4912216,52.9655608 49.6417029,52.8674766 48.8782803,52.7366975 C48.0718096,52.6059185 47.3143811,52.3770552 46.6059947,52.0501076 C45.8981532,51.7231601 45.2764079,51.293224 44.7423935,50.7586647 C44.2083792,50.2246504 43.7833473,49.5816535 43.4678429,48.8296741 C43.1512487,48.0776947 42.993224,47.2227268 42.993224,46.2631357 C42.993224,45.3476825 43.1784943,44.5090619 43.5495798,43.7456394 C43.9201204,42.9833066 44.4099968,42.2961718 45.020299,41.6858697 C45.7837215,40.922992 46.7640193,40.324133 47.963372,39.887658 C49.1616349,39.4517279 50.4476286,39.2337629 51.8213533,39.2337629 C53.0637541,39.2337629 54.2565678,39.4250272 55.4014292,39.8059211 C56.5457457,40.18736 57.5096961,40.7491649 58.2949152,41.4897011 C58.9918585,42.1435963 59.5531185,42.8852223 59.9781503,43.7129446 C60.403727,44.5417567 60.6265963,45.4457667 60.6489377,46.4266094 L56.3332298,46.4266094 C56.3108884,46.0130208 56.2068101,45.6043363 56.0226296,45.2005561 C55.8368144,44.7973207 55.602502,44.4436724 55.3196923,44.1379765 C54.9486068,43.7456394 54.4254907,43.4410332 53.750344,43.2225233 C53.0741074,43.0051031 52.4202123,42.8955757 51.7881137,42.8955757 C51.1347634,42.8955757 50.463976,42.9833066 49.777931,43.1571337 C49.0913411,43.3320507 48.5077397,43.6693516 48.0287615,44.1706712 C47.7884551,44.4322293 47.5982806,44.7155838 47.4566033,45.0207349 C47.3143811,45.3264309 47.2435424,45.6969715 47.2435424,46.1323566 C47.2435424,46.8957792 47.4615075,47.4788357 47.8974376,47.8815261 C48.3333677,48.2853064 48.9000768,48.5408704 49.5981099,48.6498529 C50.3386461,48.7593804 51.1723624,48.8574646 52.0987139,48.9441057 C53.0256102,49.0312918 53.8696799,49.129376 54.6331024,49.2383585 C55.5044177,49.3691376 56.3272358,49.6039949 57.1010117,49.9412958 C57.8747876,50.2796866 58.5504792,50.72597 59.1286315,51.2817809 C59.705694,51.8375917 60.1634206,52.5078342 60.5012664,53.2925084 C60.8391122,54.0771826 61.0085801,54.959941 61.0085801,55.9407837"/>
      <polygon points="64.8 62.839 69.083 62.839 69.083 39.659 64.8 39.659"/>
      <path d="M89.3865938,62.839432 L88.8961724,60.2892409 C88.7212555,60.6161885 88.4596974,60.9594834 88.1114983,61.3191258 C87.7627542,61.6787681 87.3317283,62.0002665 86.8200554,62.2836211 C86.3078375,62.5669756 85.7356793,62.801833 85.1035806,62.9865584 C84.4709371,63.1712837 83.7952454,63.2644638 83.0765057,63.2644638 C81.7245775,63.2644638 80.4658294,63.0786486 79.2997164,62.7086529 C78.1341483,62.3381123 77.0928203,61.6624207 76.177912,60.681578 C75.5676098,60.0494794 75.0711944,59.3852309 74.6897556,58.6871978 C74.3083168,57.9897097 74.0037106,57.2486285 73.7748473,56.4639543 C73.545984,55.6792802 73.3874145,54.857007 73.3002284,53.9955002 C73.2130424,53.1345382 73.1694494,52.2250791 73.1694494,51.265488 C73.1694494,50.3287832 73.2081382,49.4296774 73.284426,48.5681705 C73.3607137,47.7072086 73.5072952,46.8958337 73.7258052,46.1324111 C73.9432253,45.3695335 74.2489213,44.6398955 74.6407135,43.9418624 C75.0335955,43.2449192 75.5452684,42.5801258 76.177912,41.9474822 C77.0710238,41.0543704 78.1341483,40.3781339 79.3651059,39.9204073 C80.5966084,39.4626807 81.8341049,39.2338174 83.0765057,39.2338174 C84.515075,39.2338174 85.8228653,39.4741239 86.9998765,39.953102 C88.1763429,40.4326252 89.1577305,41.076167 89.9424047,41.8820927 C90.5091138,42.4705983 90.988092,43.1408409 91.380974,43.8928203 C91.7733111,44.6447997 92.0021744,45.5330072 92.0675639,46.557443 L87.751856,46.557443 C87.707718,46.0997164 87.5883822,45.7073793 87.3922136,45.3804317 C87.1955002,45.0534841 86.9775351,44.7379797 86.7383185,44.4322838 C85.9313029,43.4950341 84.6998004,43.0264092 83.043266,43.0264092 C82.3675744,43.0264092 81.6809845,43.1626374 80.9840413,43.4350937 C80.2860082,43.7080949 79.7084008,44.0944379 79.2506742,44.5957575 C78.858882,45.0098911 78.5428327,45.4899591 78.3030712,46.0343269 C78.0627647,46.5792395 77.8780393,47.1513977 77.7472603,47.7508016 C77.6159364,48.3507504 77.5347444,48.9556034 77.5015047,49.5653606 C77.4693549,50.1756627 77.4530075,50.7423719 77.4530075,51.265488 C77.4530075,51.7886041 77.4742591,52.3607623 77.518397,52.9819627 C77.56199,53.6031631 77.649176,54.2194593 77.7799551,54.8292165 C77.9101892,55.4395186 78.0954595,56.0225751 78.3357659,56.578386 C78.5749826,57.1341969 78.8910319,57.6191691 79.2839139,58.0333027 C79.7416405,58.5351672 80.3137987,58.9051629 80.9998437,59.1449244 C81.6869785,59.3852309 82.3675744,59.5045667 83.043266,59.5045667 C83.8066886,59.5045667 84.4763862,59.3852309 85.0545385,59.1449244 C85.631601,58.9051629 86.1171181,58.5782153 86.5094552,58.1640817 C87.1415538,57.5101866 87.5502383,56.8186925 87.7355086,56.0879646 C87.9207789,55.3583266 88.0128691,54.5464068 88.0128691,53.6522052 L82.4880001,53.6522052 L82.4880001,50.1538662 L92.0997137,50.1538662 L92.0997137,62.839432 L89.3865938,62.839432 Z"/>
      <polygon points="111.063 62.839 101.026 46.917 101.026 62.839 96.874 62.839 96.874 39.659 101.353 39.659 111.259 55.352 111.259 39.659 115.411 39.659 115.411 62.839"/>
      <polygon points="127.671 62.839 127.671 39.659 131.889 39.659 131.889 58.851 142.645 58.851 142.645 62.839"/>
      <path d="M153.303699 44.8246208L150.001529 54.6003532 156.606415 54.6003532 153.303699 44.8246208zM159.418164 62.839432L157.914205 58.392945 148.693739 58.392945 147.18978 62.839432 142.939461 62.839432 151.081001 39.6588492 155.690962 39.6588492 163.831411 62.839432 159.418164 62.839432zM180.015043 56.0062277C180.015043 54.763827 179.633605 53.8925117 178.870182 53.3906472 178.107304 52.8893276 177.1706 52.6386678 176.058978 52.6386678L170.729732 52.6386678 170.729732 59.0795349 175.928199 59.0795349C176.407177 59.0795349 176.892694 59.0304928 177.383116 58.9324085 177.872992 58.8343242 178.314916 58.6659462 178.707253 58.4256398 179.099045 58.1858782 179.415095 57.8698289 179.655401 57.4774918 179.894618 57.0851547 180.015043 56.5947334 180.015043 56.0062277M179.524622 46.2304954C179.524622 45.6861277 179.426538 45.2224071 179.230369 44.8409682 179.034201 44.4600743 178.772643 44.1543783 178.445695 43.925515 178.118748 43.6966517 177.736764 43.5331779 177.301379 43.4350937 176.864904 43.3370094 176.407177 43.2879673 175.928199 43.2879673L170.729732 43.2879673 170.729732 49.107634 176.026283 49.107634C176.505806 49.107634 176.958084 49.0585919 177.383116 48.9605076 177.808147 48.8624233 178.178688 48.7049436 178.494737 48.4864336 178.810242 48.2690135 179.060901 47.9747607 179.246717 47.6036752 179.431442 47.2331346 179.524622 46.7759529 179.524622 46.2304954M184.297512 56.104312C184.297512 57.1505442 184.112786 58.1204887 183.742246 59.0141454 183.37116 59.908347 182.772301 60.6712247 181.944034 61.3027784 181.028036 62.0002665 180.047738 62.4361966 179.001506 62.6105687 177.955274 62.7849407 176.876347 62.8721267 175.764725 62.8721267L166.544804 62.8721267 166.544804 39.6588492 175.764725 39.6588492C176.70143 39.6588492 177.63323 39.7460353 178.560127 39.9204073 179.485933 40.0953242 180.341991 40.4326252 181.126665 40.9339448 181.976729 41.5011988 182.636073 42.2308368 183.104698 43.1244935 183.572778 44.0181502 183.807635 44.966843 183.807635 45.9689373 183.807635 46.4484604 183.752599 46.9285285 183.644161 47.4075066 183.534634 47.8875747 183.360807 48.3507504 183.121045 48.7970338 182.880739 49.2438622 182.581582 49.6470975 182.22194 50.0067398 181.862297 50.3663822 181.44217 50.6557308 180.963191 50.8731509 182.074813 51.3744705 182.908529 52.0992043 183.46434 53.0473522 184.020151 53.9955002 184.297512 55.0144868 184.297512 56.104312"/>
    </g>
    <g fill="#FFF" transform="translate(643.465 324.572)">
      <path d="M11.791909 10.8111208C11.7624837 11.5380342 11.6142675 12.1990132 11.3456256 12.7946027 11.0764388 13.3907371 10.7162515 13.9209371 10.2661537 14.3857476 9.80134324 14.851103 9.20520884 15.24344 8.47884032 15.5627588 7.7524718 15.8820776 6.96725272 16.0422819 6.12536273 16.0422819 5.34014364 16.0422819 4.58434985 15.9038741 3.85798133 15.6281483 3.1310679 15.3524226 2.49243031 14.938289 1.93988892 14.3857476 1.51812655 13.9792428 1.18028073 13.5324144.926896361 13.0452625.672422169 12.5586556.475708714 12.0464377.337845822 11.508609.19998293 10.9713251.109527436 10.4078855.065389514 9.81937985.0217965047 9.23087422-2.84209313e-13 8.63147034-2.84209313e-13 8.02116821-2.84209313e-13 7.41086608.0217965047 6.8114622.065389514 6.22295658.109527436 5.63445095.19998293 5.07155622.337845822 4.53372746.475708714 3.99644362.672422169 3.48422576.926896361 2.99707388 1.18028073 2.51046692 1.51812655 2.06363857 1.93988892 1.65658885 2.49243031 1.10459237 3.1310679.690458777 3.85798133.41418808 4.58434985.138462296 5.34014364.0000544912619 6.12536273.0000544912619 6.96725272.0000544912619 7.74865741.149360548 8.46794207.446882837 9.18777163.744950038 9.77954673 1.12638887 10.2443572 1.59119933 10.694455 2.05655471 11.0540973 2.57967082 11.3238291 3.16054767 11.592471 3.74196943 11.7406872 4.39586457 11.7701125 5.12223309L9.76483409 5.12223309C9.75012145 4.70101564 9.66729474 4.30867855 9.51417429 3.94522184 9.36159876 3.58231003 9.16216074 3.25536246 8.91531532 2.96437913 8.60961935 2.63034769 8.21728226 2.35789138 7.73830407 2.1470102 7.25878097 1.93667393 6.7204073 1.83096088 6.12536273 1.83096088 5.60224661 1.83096088 5.09656771 1.93285954 4.60996074 2.13611195 4.12335377 2.33990927 3.69123807 2.63034769 3.31306871 3.00797214 2.99374992 3.34254848 2.74635959 3.71308906 2.57198755 4.11959387 2.39761551 4.5266436 2.2673814 4.95167544 2.17965047 5.3946894 2.09246445 5.83824827 2.04124266 6.28507661 2.02707493 6.73517444 2.01290721 7.18581717 2.00527843 7.6146634 2.00527843 8.02116821 2.00527843 8.42821794 2.01290721 8.85706417 2.02707493 9.30716199 2.04124266 9.75780472 2.09246445 10.2046331 2.17965047 10.647647 2.2673814 11.0912059 2.39761551 11.5195072 2.57198755 11.9336408 2.74635959 12.3477744 2.99374992 12.7150455 3.31306871 13.0343643 3.69123807 13.4125336 4.12335377 13.7029721 4.60996074 13.9062245 5.09656771 14.1100218 5.60224661 14.2113755 6.12536273 14.2113755 6.7204073 14.2113755 7.26205044 14.0991235 7.74865741 13.8735297 8.23580929 13.6484808 8.63141585 13.3689406 8.93656692 13.0343643 9.18341233 12.7439259 9.38339526 12.40608 9.53597079 12.0208268 9.68909124 11.6361185 9.77191796 11.2328832 9.7866306 10.8111208L11.791909 10.8111208zM25.4147244 8.02111372C25.4147244 7.61460891 25.4038262 7.18576268 25.3820297 6.73511994 25.3602332 6.28502212 25.3057419 5.83819378 25.2185559 5.39463491 25.1313699 4.95162095 25.0005909 4.52658911 24.8262188 4.11953938 24.6518468 3.71303457 24.4044565 3.34249399 24.0851377 3.00791764 23.7069683 2.6302932 23.2748526 2.34312425 22.7882456 2.14695571 22.3010938 1.95078717 21.7965047 1.8527029 21.2733886 1.8527029 20.7502724 1.8527029 20.2451385 1.95078717 19.7585315 2.14695571 19.2719245 2.34312425 18.8398088 2.6302932 18.4616395 3.00791764 18.1417758 3.34249399 17.8949303 3.71303457 17.7205583 4.11953938 17.5461863 4.52658911 17.4154072 4.95162095 17.3282212 5.39463491 17.2410352 5.83819378 17.1865439 6.28502212 17.1647474 6.73511994 17.1429509 7.18576268 17.1320527 7.61460891 17.1320527 8.02111372 17.1320527 8.42816344 17.1429509 8.85700967 17.1647474 9.3071075 17.1865439 9.75775023 17.2410352 10.2045786 17.3282212 10.6475925 17.4154072 11.0911514 17.5461863 11.5194527 17.7205583 11.9335863 17.8949303 12.3477199 18.1417758 12.714991 18.4616395 13.0343098 18.8398088 13.4124792 19.2719245 13.6991032 19.7585315 13.8952717 20.2451385 14.0914403 20.7502724 14.1895245 21.2733886 14.1895245 21.7965047 14.1895245 22.3010938 14.0914403 22.7882456 13.8952717 23.2748526 13.6991032 23.7069683 13.4124792 24.0851377 13.0343098 24.4044565 12.714991 24.6518468 12.3477199 24.8262188 11.9335863 25.0005909 11.5194527 25.1313699 11.0911514 25.2185559 10.6475925 25.3057419 10.2045786 25.3602332 9.75775023 25.3820297 9.3071075 25.4038262 8.85700967 25.4147244 8.42816344 25.4147244 8.02111372M27.4200029 8.02111372C27.4200029 8.63141585 27.394392 9.23081973 27.3437151 9.81932536 27.2924933 10.407831 27.1982234 10.9712706 27.0603606 11.5085545 26.9224977 12.0463832 26.7225147 12.5586011 26.4609567 13.045208 26.1993986 13.5323599 25.8577384 13.9791883 25.436521 14.3856931 24.8839796 14.9382345 24.2486114 15.3523681 23.5293268 15.6280939 22.8100421 15.9038196 22.0580627 16.0422274 21.2733886 16.0422274 20.4887144 16.0422274 19.736735 15.9038196 19.0174503 15.6280939 18.2981657 15.3523681 17.6622526 14.9382345 17.1102562 14.3856931 16.6884938 13.9791883 16.3473785 13.5323599 16.0858204 13.045208 15.8242624 12.5586011 15.6242795 12.0463832 15.4864166 11.5085545 15.3480088 10.9712706 15.2542838 10.407831 15.203062 9.81932536 15.1518402 9.23081973 15.1267742 8.63141585 15.1267742 8.02111372 15.1267742 7.41081159 15.1518402 6.81140771 15.203062 6.22290208 15.2542838 5.63439646 15.3480088 5.07150172 15.4864166 4.53367297 15.6242795 3.99638913 15.8242624 3.48417127 16.0858204 2.99701939 16.3473785 2.51041243 16.6884938 2.06358408 17.1102562 1.65653436 17.6622526 1.10453787 18.2981657.690404286 19.0174503.414133589 19.736735.138407805 20.4887144 1.04210081e-13 21.2733886 1.04210081e-13 22.0580627 1.04210081e-13 22.8100421.138407805 23.5293268.414133589 24.2486114.690404286 24.8839796 1.10453787 25.436521 1.65653436 25.8577384 2.06358408 26.1993986 2.51041243 26.4609567 2.99701939 26.7225147 3.48417127 26.9224977 3.99638913 27.0603606 4.53367297 27.1982234 5.07150172 27.2924933 5.63439646 27.3437151 6.22290208 27.394392 6.81140771 27.4200029 7.41081159 27.4200029 8.02111372"/>
      <polygon points="32.062 15.737 32.062 .283 34.002 .283 34.002 13.928 41.435 13.928 41.435 15.737"/>
      <path d="M55.428021,10.0700941 C55.428021,11.0291403 55.2972419,11.879204 55.0356839,12.6202852 C54.7741258,13.3613663 54.3959565,13.9825667 53.9022656,14.4838863 C53.4080299,14.9852059 52.8157099,15.3666448 52.1258505,15.6282028 C51.4354462,15.8897609 50.6545864,16.0205399 49.7827263,16.0205399 C48.9108661,16.0205399 48.1294614,15.8897609 47.439602,15.6282028 C46.7491977,15.3666448 46.1568777,14.9852059 45.6631869,14.4838863 C45.1689511,13.9825667 44.7913267,13.3613663 44.5297686,12.6202852 C44.2687555,11.879204 44.1374315,11.0291403 44.1374315,10.0700941 L44.1374315,0.283463543 L46.0773205,0.283463543 L46.0773205,10.1136872 C46.0773205,10.7239893 46.1465244,11.2836145 46.2843873,11.792018 C46.4227951,12.3009664 46.6364008,12.7330821 46.9273841,13.08891 C47.2183675,13.4452829 47.5992614,13.7210087 48.0717006,13.9171772 C48.543595,14.1133458 49.1141185,14.21143 49.7827263,14.21143 C50.4507891,14.21143 51.0213126,14.1133458 51.4937519,13.9171772 C51.9656462,13.7210087 52.3476299,13.4452829 52.6380684,13.08891 C52.9285068,12.7330821 53.1432024,12.3009664 53.2816102,11.792018 C53.4189281,11.2836145 53.488132,10.7239893 53.488132,10.1136872 L53.488132,0.283463543 L55.428021,0.283463543 L55.428021,10.0700941 Z"/>
      <polygon points="73.628 15.737 73.628 2.703 68.833 15.519 67.307 15.519 62.512 2.594 62.512 15.737 60.659 15.737 60.659 .283 63.449 .283 68.113 12.86 72.756 .283 75.48 .283 75.48 15.737"/>
      <path d="M90.4546225,11.2905894 C90.4546225,10.8546593 90.3750653,10.469951 90.214861,10.1353747 C90.0552016,9.80134324 89.8366916,9.51798868 89.5609658,9.28531099 C89.2852401,9.05317822 88.961562,8.87499179 88.5910214,8.75129663 C88.2204808,8.62814637 87.8319581,8.56602634 87.4243635,8.56602634 L83.0438109,8.56602634 L83.0438109,13.949763 L87.3813154,13.949763 C87.8025328,13.949763 88.2019538,13.8990861 88.5801231,13.7971875 C88.9577476,13.6958337 89.2852401,13.5356294 89.5609658,13.3176644 C89.8366916,13.0996993 90.0552016,12.8239735 90.214861,12.4893972 C90.3750653,12.1553657 90.4546225,11.7559448 90.4546225,11.2905894 M90.1058785,4.42469045 C90.1058785,4.01818564 90.0295907,3.66562717 89.8764702,3.36755997 C89.7244396,3.07003768 89.5206423,2.81937788 89.266713,2.61558056 C89.0127837,2.41232815 88.7147165,2.25975262 88.3730563,2.15785396 C88.0313961,2.05650022 87.6788377,2.00527843 87.3159259,2.00527843 L83.0438109,2.00527843 L83.0438109,6.86589897 L87.3813154,6.86589897 C88.1954148,6.86589897 88.8525794,6.67735921 89.3533541,6.29918985 C89.8552187,5.92156541 90.1058785,5.29655064 90.1058785,4.42469045 M92.4381045,11.4213684 C92.4381045,12.0463832 92.3253075,12.5951102 92.1002586,13.0670046 C91.8746648,13.5394438 91.5951246,13.9573918 91.2605483,14.3203036 C90.8251631,14.7856589 90.2617235,15.1376725 89.5718641,15.377434 C88.8814598,15.6171956 88.1512769,15.7370764 87.3813154,15.7370764 L81.147515,15.7370764 L81.147515,0.283354561 L87.3159259,0.283354561 C88.0422944,0.283354561 88.7468664,0.403235336 89.4301868,0.642996888 C90.1129623,0.882758439 90.6649588,1.2353169 91.0867212,1.70012736 C91.3918722,2.03470371 91.6349033,2.40851377 91.8169041,2.82264736 C91.99836,3.23678094 92.0893604,3.72011844 92.0893604,4.27211492 C92.0893604,5.01319607 91.9002757,5.70360036 91.5226513,6.34278286 C91.1450268,6.98251027 90.5924854,7.43260809 89.8661169,7.69416615 C90.258454,7.82494518 90.6142819,8.01784424 90.9341456,8.27177352 C91.2534644,8.52624772 91.5259207,8.81668614 91.7515146,9.14363371 C91.9765635,9.47058128 92.1471211,9.83022361 92.2637324,10.2225607 C92.3797988,10.6148978 92.4381045,11.0148636 92.4381045,11.4213684"/>
      <polygon points="97.015 15.737 98.999 15.737 98.999 .283 97.015 .283"/>
      <path d="M109.199835 2.22340695L106.475271 10.2445207 111.946194 10.2445207 109.199835 2.22340695zM113.84249 15.7372398L112.577748 12.0754271 105.864969 12.0754271 104.622569 15.7372398 102.660883 15.7372398 108.110009.283518035 110.376846.283518035 115.847224 15.7372398 113.84249 15.7372398zM136.68441 10.0700941C136.68441 11.0291403 136.553631 11.879204 136.292072 12.6202852 136.030514 13.3613663 135.652345 13.9825667 135.158654 14.4838863 134.664418 14.9852059 134.072098 15.3666448 133.382239 15.6282028 132.691835 15.8897609 131.910975 16.0205399 131.039115 16.0205399 130.167255 16.0205399 129.38585 15.8897609 128.695991 15.6282028 128.005586 15.3666448 127.413266 14.9852059 126.919575 14.4838863 126.42534 13.9825667 126.047715 13.3613663 125.786157 12.6202852 125.525144 11.879204 125.39382 11.0291403 125.39382 10.0700941L125.39382.283463543 127.333709.283463543 127.333709 10.1136872C127.333709 10.7239893 127.402913 11.2836145 127.540776 11.792018 127.679184 12.3009664 127.892789 12.7330821 128.183773 13.08891 128.474756 13.4452829 128.85565 13.7210087 129.328089 13.9171772 129.799984 14.1133458 130.370507 14.21143 131.039115 14.21143 131.707178 14.21143 132.277701 14.1133458 132.75014 13.9171772 133.222035 13.7210087 133.604019 13.4452829 133.894457 13.08891 134.184895 12.7330821 134.399591 12.3009664 134.537999 11.792018 134.675317 11.2836145 134.744521 10.7239893 134.744521 10.1136872L134.744521.283463543 136.68441.283463543 136.68441 10.0700941z"/>
      <polygon points="151.375 15.737 143.79 3.313 143.79 15.737 141.916 15.737 141.916 .283 144.095 .283 151.68 12.751 151.68 .283 153.555 .283 153.555 15.737"/>
      <polygon points="159.221 15.737 161.205 15.737 161.205 .283 159.221 .283"/>
      <polygon points="172.016 15.737 169.989 15.737 164.78 .283 166.785 .283 171.057 13.34 175.242 .283 177.226 .283"/>
      <polygon points="180.8 15.737 180.8 .283 191.132 .283 191.132 2.071 182.74 2.071 182.74 6.779 190.107 6.779 190.107 8.61 182.74 8.61 182.74 13.95 191.132 13.95 191.132 15.737"/>
      <path d="M204.928339 4.79528552C204.928339 3.82207159 204.634087 3.12458344 204.045581 2.70282107 203.457075 2.28160362 202.705096 2.07072244 201.789643 2.07072244L197.670103 2.07072244 197.670103 7.4980521 201.789643 7.4980521C202.23974 7.4980521 202.657688 7.45118961 203.042942 7.35637482 203.42765 7.26210494 203.762226 7.10571501 204.045581 6.88774997 204.328935 6.66978492 204.5469 6.39024475 204.699476 6.04858454 204.852052 5.70746924 204.928339 5.28952126 204.928339 4.79528552L204.928339 4.79528552zM204.86295 15.7371309L201.942763 9.30716199 197.670103 9.30716199 197.670103 15.7371309 195.730214 15.7371309 195.730214.283409052 201.789643.283409052C202.705096.283409052 203.482686.403289828 204.122414.643051379 204.761051.882812931 205.291251 1.22065875 205.713013 1.65658885 206.090638 2.04892593 206.388705 2.49956866 206.60667 3.00797214 206.824635 3.51692052 206.933618 4.11251001 206.933618 4.79528552 206.933618 5.47860594 206.831719 6.05948279 206.628467 6.53900589 206.424669 7.018529 206.134231 7.45445909 205.757151 7.84679617 205.523929 8.0941865 205.251473 8.30833716 204.939782 8.48979306 204.626458 8.67179388 204.281528 8.82055502 203.903904 8.93662141L206.999007 15.7371309 204.86295 15.7371309zM222.038813 11.4869214C222.038813 12.1408166 221.914573 12.7075257 221.667728 13.1870488 221.420883 13.6665719 221.108648 14.0954181 220.731023 14.4730426 220.19265 14.9961587 219.535485 15.3846814 218.757895 15.6391556 217.980849 15.8930849 217.178193 16.0205944 216.349926 16.0205944 214.474881 16.0205944 213.000348 15.5269036 211.92469 14.5384321 211.431 14.0736216 211.031579 13.5248946 210.725883 12.892796 210.421276 12.2606974 210.268156 11.5741075 210.268156 10.8330263L212.295231 10.8330263C212.295231 11.2978368 212.39713 11.74521 212.600927 12.1735113 212.804179 12.6023576 213.065737 12.9690838 213.385056 13.2742348 213.734345 13.6088112 214.176814 13.8518422 214.715188 14.0044177 215.252472 14.1569933 215.797384 14.233281 216.349926 14.233281 216.94497 14.233281 217.486613 14.1678915 217.973765 14.0371125 218.460372 13.9063335 218.877775 13.6742007 219.227064 13.3396243 219.47391 13.1216593 219.666264 12.8709995 219.804127 12.5876449 219.94199 12.3042904 220.011194 11.9522768 220.011194 11.5305144 220.011194 10.9202123 219.807941 10.3900123 219.400891 9.9393696 218.994387 9.48872687 218.332863 9.19120458 217.417954 9.04571291 216.996192 8.97323953 216.589687 8.9111195 216.196805 8.86044262 215.805013 8.80976575 215.397418 8.74819062 214.976746 8.67517233 214.395324 8.58798631 213.853681 8.44303956 213.352906 8.23924224 212.851587 8.03598983 212.415657 7.76353353 212.044571 7.42187331 211.674031 7.08075802 211.383592 6.67370829 211.173256 6.20126905 210.962375 5.72937473 210.856662 5.18773159 210.856662 4.57742946 210.856662 3.99600769 210.976542 3.44019682 211.216849 2.90999685 211.45661 2.37979687 211.786827 1.91825588 212.20859 1.5259188 213.298415.509111858 214.649253.000163473785 216.262195.000163473785 217.017989.000163473785 217.748172.123313725 218.453288.370704053 219.15786.618094381 219.764348.988090048 220.273297 1.48232579 221.21763 2.38306635 221.711321 3.48760422 221.754914 4.7953945L219.728384 4.7953945C219.698959 4.41777006 219.619401 4.06194212 219.488077 3.72736577 219.357843 3.39278943 219.183471 3.10289591 218.964961 2.85550559 218.674523 2.52147415 218.300713 2.2599161 217.842986 2.07083142 217.38526 1.88229165 216.8507 1.78747686 216.240398 1.78747686 215.688402 1.78747686 215.176184 1.8713934 214.70429 2.03813666 214.23185 2.20542483 213.828615 2.47788114 213.494039 2.85550559 213.290786 3.08818327 213.134396 3.33884308 213.025959 3.607485 212.916976 3.87667183 212.86194 4.18509237 212.86194 4.53383645 212.86194 4.88258052 212.92733 5.18446211 213.058654 5.43839139 213.189433 5.69286558 213.363805 5.90701624 213.581225 6.08138828 213.799735 6.25576031 214.04658 6.39362321 214.322851 6.49552187 214.598577 6.59742053 214.881931 6.6698939 215.17237 6.71348691 215.6083 6.77179256 216.04096 6.83336769 216.469262 6.8987572 216.897563 6.96414672 217.32314 7.03335062 217.744357 7.105824 219.03798 7.29490868 220.076583 7.76353353 220.861802 8.51169855 221.645931 9.26040848 222.038813 10.2516045 222.038813 11.4869214"/>
      <polygon points="226.616 15.737 228.599 15.737 228.599 .283 226.616 .283"/>
      <polygon points="238.93 2.093 238.93 15.737 236.968 15.737 236.968 2.093 232.369 2.093 232.369 .283 243.529 .283 243.529 2.093"/>
      <polygon points="252.27 9.46 252.27 15.737 250.308 15.737 250.308 9.46 245.12 .283 247.3 .283 251.354 7.629 255.387 .283 257.457 .283"/>
    </g>
  </g>
</svg>
