<svg xmlns="http://www.w3.org/2000/svg" xmlns:xlink="http://www.w3.org/1999/xlink" width="600" height="442" viewBox="0 0 600 442">
  <defs>
    <polygon id="cdl-1-a" points="0 0 231.427 0 231.427 109.928 0 109.928"/>
  </defs>
  <g fill="none" fill-rule="evenodd">
    <rect width="600" height="442" fill="#1D1D2A"/>
    <g transform="translate(184.168 166)">
      <mask id="cdl-1-b" fill="#fff">
        <use xlink:href="#cdl-1-a"/>
      </mask>
      <path fill="#23D5CC" d="M127.284729,104.142108 L173.569972,104.142108 L173.569972,5.78581197 L127.284729,5.78581197 L127.284729,104.142108 Z M175.820114,109.92792 L121.498917,109.92792 L121.498917,0 L175.820114,0 C177.769715,0 179.355783,1.58638177 179.355783,3.53598291 L179.355783,106.392251 C179.355783,108.341852 177.769715,109.92792 175.820114,109.92792 L175.820114,109.92792 Z" mask="url(#cdl-1-b)"/>
      <path fill="#23D5CC" d="M176.462909,5.78593732 C149.345872,5.78593732 127.284761,27.8470484 127.284761,54.9640855 C127.284761,82.0811225 149.345872,104.142234 176.462909,104.142234 C203.579946,104.142234 225.641057,82.0811225 225.641057,54.9640855 C225.641057,27.8470484 203.579946,5.78593732 176.462909,5.78593732 M176.462909,109.928046 C146.155558,109.928046 121.498949,85.2711225 121.498949,54.9640855 C121.498949,24.656735 146.155558,0.000125356125 176.462909,0.000125356125 C206.770259,0.000125356125 231.426869,24.656735 231.426869,54.9640855 C231.426869,85.2711225 206.770259,109.928046 176.462909,109.928046" mask="url(#cdl-1-b)"/>
      <polygon fill="#23D5CC" points="109.928 109.928 54.964 109.928 54.964 104.142 104.142 104.142 104.142 5.786 54.964 5.786 54.964 0 109.928 0" mask="url(#cdl-1-b)"/>
      <path fill="#23D5CC" d="M54.9638974,5.78593732 C27.8468604,5.78593732 5.78574929,27.8470484 5.78574929,54.9640855 C5.78574929,82.0811225 27.8468604,104.142234 54.9638974,104.142234 C82.0809345,104.142234 104.142046,82.0811225 104.142046,54.9640855 C104.142046,27.8470484 82.0809345,5.78593732 54.9638974,5.78593732 M54.9638974,109.928046 C24.656547,109.928046 -6.26780627e-05,85.2711225 -6.26780627e-05,54.9640855 C-6.26780627e-05,24.656735 24.656547,0.000125356125 54.9638974,0.000125356125 C85.2712479,0.000125356125 109.927858,24.656735 109.927858,54.9640855 C109.927858,85.2711225 85.2712479,109.928046 54.9638974,109.928046" mask="url(#cdl-1-b)"/>
      <polygon fill="#23D5CC" points="2.893 57.857 107.035 57.857 107.035 52.071 2.893 52.071" mask="url(#cdl-1-b)"/>
    </g>
  </g>
</svg>
