<svg xmlns="http://www.w3.org/2000/svg" xmlns:xlink="http://www.w3.org/1999/xlink" width="600" height="442" viewBox="0 0 600 442">
  <defs>
    <polygon id="cdl-3-a" points="0 0 185.141 0 185.141 87.942 0 87.942"/>
  </defs>
  <g fill="none" fill-rule="evenodd">
    <rect width="600" height="442" fill="#2F3644"/>
    <g transform="translate(107.5 177)">
      <g fill="#B9C0CB" transform="translate(199.237 4.638)">
        <path d="M13.128795,11.5322345 C13.051294,12.1832434 12.8881542,12.8226271 12.6405384,13.4503856 C12.392535,14.0781442 12.0278925,14.6404144 11.5477735,15.1360336 C10.9273775,15.7719298 10.2070052,16.2559238 9.38549405,16.5891784 C8.56398286,16.9224329 7.71147125,17.0890602 6.82795922,17.0890602 C5.94444719,17.0890602 5.10356074,16.9414207 4.30529987,16.6473042 C3.5066515,16.3531877 2.78976674,15.8881813 2.15464559,15.2522852 C1.70513947,14.8027791 1.34475956,14.3304101 1.07350587,13.8340159 C0.801864669,13.3380091 0.596874377,12.8110019 0.457372478,12.2529943 C0.317870578,11.6949867 0.224869312,11.1102413 0.178368679,10.4975954 C0.131868046,9.8853371 0.108617729,9.2385908 0.108617729,8.55619401 C0.108617729,7.89007244 0.131868046,7.24642617 0.178368679,6.62641773 C0.224869312,6.00679679 0.317870578,5.41740127 0.457372478,4.85939367 C0.596874377,4.30138607 0.801864669,3.77437889 1.07350587,3.27837214 C1.34475956,2.78236539 1.70513947,2.30999645 2.15464559,1.86010283 C2.78976674,1.22459417 3.5066515,0.75571279 4.30529987,0.453458675 C5.10356074,0.151204559 5.94444719,7.75010555e-05 6.82795922,7.75010555e-05 C7.71147125,7.75010555e-05 8.56398286,0.15934217 9.38549405,0.476708991 C10.2070052,0.794850823 10.9273775,1.27148231 11.5477735,1.90660346 C12.0278925,2.40299772 12.392535,2.96100532 12.6405384,3.58062626 C12.8881542,4.2010222 13.051294,4.83614335 13.128795,5.48715222 L10.0597532,5.48715222 C10.0283653,5.13064736 9.95125175,4.81676809 9.82725006,4.54551439 C9.70286087,4.27464821 9.53274605,4.00726957 9.3157431,3.74337847 C9.05185201,3.40276133 8.69960971,3.14700785 8.25785369,2.97611802 C7.81609768,2.8056157 7.33946619,2.72036454 6.82795922,2.72036454 C6.34745268,2.72036454 5.8863214,2.81336581 5.44456539,2.99936834 C5.00280937,3.18537087 4.61917915,3.45662457 4.29367472,3.81312942 C4.01467092,4.10763343 3.79728046,4.44902558 3.64266585,4.83614335 C3.48766374,5.22364863 3.37528721,5.63091667 3.30553626,6.05678497 C3.23578531,6.48342828 3.19277222,6.91355914 3.17765952,7.34717754 C3.1617718,7.78118345 3.1544092,8.18418894 3.1544092,8.55619401 C3.1544092,8.92819907 3.1617718,9.33159206 3.17765952,9.76521047 C3.19277222,10.1996039 3.23578531,10.6293472 3.30553626,11.055603 C3.37528721,11.4822463 3.48766374,11.8891269 3.64266585,12.2762447 C3.79728046,12.6637499 4.01467092,13.0051421 4.29367472,13.2992586 C4.61917915,13.6557634 5.00280937,13.9270171 5.44456539,14.1130197 C5.8863214,14.2990222 6.34745268,14.3920235 6.82795922,14.3920235 C7.33946619,14.3920235 7.81609768,14.3028973 8.25785369,14.1246448 C8.69960971,13.9463924 9.05185201,13.6871514 9.3157431,13.3457592 C9.7493615,12.8191396 9.99775238,12.2146313 10.0597532,11.5322345 L13.128795,11.5322345 Z"/>
        <polygon points="44.981 16.787 44.981 5.022 40.703 16.554 38.495 16.554 34.24 4.883 34.24 16.787 31.333 16.787 31.333 .302 35.379 .302 39.704 12.044 44.051 .302 47.888 .302 47.888 16.787"/>
        <path d="M61.0008094 5.6034813C61.0008094 4.81297054 60.7679187 4.16971178 60.3029124 3.67370502 59.8382935 3.17769827 59.1020335 2.92969489 58.0945198 2.92969489L54.7232239 2.92969489 54.7232239 8.25401739 58.0945198 8.25401739C59.1020335 8.25401739 59.8382935 8.00988907 60.3029124 7.52163242 60.7679187 7.03337577 61.0008094 6.39399206 61.0008094 5.6034813M64.0233505 5.58023098C64.0233505 6.37074175 63.8989613 7.09150156 63.6513455 7.74251043 63.4029546 8.39351929 63.0352121 8.95152689 62.5465679 9.41653322 62.0583113 9.88153955 61.449928 10.2419195 60.7214181 10.4976729 59.9929081 10.7534264 59.1558967 10.8813032 58.2107714 10.8813032L54.7232239 10.8813032 54.7232239 16.7868836 51.7471834 16.7868836 51.7471834.302409118 58.2107714.302409118C59.1558967.302409118 59.9929081.430285859 60.7214181.686039341 61.449928.941792824 62.0583113 1.29868518 62.5465679 1.7555539 63.0352121 2.21281013 63.4029546 2.76694268 63.6513455 3.41795154 63.8989613 4.06896041 64.0233505 4.78972022 64.0233505 5.58023098M78.7170856 10.4627975C78.7170856 11.4393108 78.5810713 12.334448 78.3102051 13.148209 78.0389514 13.9619701 77.6320708 14.6594796 77.0899509 15.2407375 76.5466686 15.8219954 75.8727969 16.2753766 75.0667859 16.600881 74.2607749 16.9263855 73.3230122 17.0891377 72.2534976 17.0891377 71.1843705 17.0891377 70.2462203 16.9263855 69.4405968 16.600881 68.6341983 16.2753766 67.9599391 15.8219954 67.4178192 15.2407375 66.8745369 14.6594796 66.4680438 13.9619701 66.1967901 13.148209 65.9255364 12.334448 65.7902971 11.4393108 65.7902971 10.4627975L65.7902971.302409118 68.7892004.302409118 68.7892004 10.4162968C68.7892004 11.5943129 69.0685917 12.5475759 69.6262118 13.2760858 70.1842194 14.0049832 71.0595938 14.3688507 72.2534976 14.3688507 73.4470138 14.3688507 74.3227758 14.0049832 74.8811709 13.2760858 75.438791 12.5475759 75.7181823 11.5943129 75.7181823 10.4162968L75.7181823.302409118 78.7170856.302409118 78.7170856 10.4627975z"/>
        <polygon points="88.203 3.092 88.203 16.787 85.204 16.787 85.204 3.092 80.322 3.092 80.322 .302 93.086 .302 93.086 3.092"/>
        <path d="M98.9679951,3.97588164 L96.6197131,10.9277263 L101.316665,10.9277263 L98.9679951,3.97588164 Z M103.316192,16.7868061 L102.246677,13.624763 L95.6897005,13.624763 L94.6201859,16.7868061 L91.5976447,16.7868061 L97.3873611,0.302331617 L100.665656,0.302331617 L106.454597,16.7868061 L103.316192,16.7868061 Z"/>
        <polygon points="112.849 3.092 112.849 16.787 109.849 16.787 109.849 3.092 104.967 3.092 104.967 .302 117.731 .302 117.731 3.092"/>
        <polygon points="119.8 16.787 122.845 16.787 122.845 .302 119.8 .302"/>
        <path d="M136.377793,8.5561165 C136.377793,8.18411144 136.369656,7.78110595 136.354155,7.34710004 C136.338655,6.91348164 136.292155,6.48335078 136.214654,6.05670747 C136.137152,5.63083917 136.017026,5.22357113 135.854274,4.83606585 C135.691521,4.44894808 135.470643,4.10794344 135.19164,3.81305192 C134.866523,3.45654707 134.47088,3.18529337 134.006261,2.99929084 C133.541255,2.81328831 133.068111,2.72028704 132.587992,2.72028704 C132.107098,2.72028704 131.634729,2.81328831 131.169722,2.99929084 C130.704328,3.18529337 130.309461,3.45654707 129.983956,3.81305192 C129.704565,4.10794344 129.484074,4.44894808 129.321322,4.83606585 C129.158182,5.22357113 129.038443,5.63083917 128.960555,6.05670747 C128.883054,6.48335078 128.836553,6.91348164 128.82144,7.34710004 C128.805553,7.78110595 128.797803,8.18411144 128.797803,8.5561165 C128.797803,8.92812157 128.805553,9.33151456 128.82144,9.76513297 C128.836553,10.1995264 128.883054,10.6253947 128.960555,11.0439004 C129.038443,11.4624061 129.158182,11.8657991 129.321322,12.2529168 C129.484074,12.6408096 129.704565,12.9818143 129.983956,13.2759308 C130.309461,13.6328231 130.704328,13.9036893 131.169722,14.0896919 C131.634729,14.2756944 132.107098,14.3686957 132.587992,14.3686957 C133.068111,14.3686957 133.541255,14.2756944 134.006261,14.0896919 C134.47088,13.9036893 134.866523,13.6328231 135.19164,13.2759308 C135.470643,12.9818143 135.691521,12.6408096 135.854274,12.2529168 C136.017026,11.8657991 136.137152,11.4624061 136.214654,11.0439004 C136.292155,10.6253947 136.338655,10.1995264 136.354155,9.76513297 C136.369656,9.33151456 136.377793,8.92812157 136.377793,8.5561165 M139.423197,8.5561165 C139.423197,9.2385133 139.400334,9.88138455 139.353834,10.4858928 C139.307333,11.090401 139.206194,11.6716589 139.051192,12.2296665 C138.89619,12.7876741 138.683062,13.3150688 138.412196,13.8106881 C138.140555,14.3070823 137.780175,14.7798388 137.331056,15.2289574 C136.69516,15.8648535 135.96665,16.3333474 135.145139,16.6356015 C134.323628,16.9378556 133.471504,17.0889827 132.587992,17.0889827 C131.704092,17.0889827 130.85158,16.9378556 130.030069,16.6356015 C129.208558,16.3333474 128.480048,15.8648535 127.84454,15.2289574 C127.395033,14.7798388 127.034654,14.3070823 126.7634,13.8106881 C126.492146,13.3150688 126.278631,12.7876741 126.124404,12.2296665 C125.969402,11.6716589 125.86865,11.090401 125.82215,10.4858928 C125.775649,9.88138455 125.752011,9.2385133 125.752011,8.5561165 C125.752011,7.88999493 125.775649,7.24673618 125.82215,6.62634023 C125.86865,6.00671929 125.969402,5.41732377 126.124404,4.85931617 C126.278631,4.30130857 126.492146,3.7746889 126.7634,3.27829464 C127.034654,2.78267539 127.395033,2.30991895 127.84454,1.86002533 C128.480048,1.22490418 129.208558,0.755635289 130.030069,0.453381173 C130.85158,0.151127058 131.704092,1.47437618e-13 132.587992,1.47437618e-13 C133.471504,1.47437618e-13 134.323628,0.151127058 135.145139,0.453381173 C135.96665,0.755635289 136.69516,1.22490418 137.331056,1.86002533 C137.780175,2.30991895 138.140555,2.78267539 138.412196,3.27829464 C138.683062,3.7746889 138.89619,4.30130857 139.051192,4.85931617 C139.206194,5.41732377 139.307333,6.00671929 139.353834,6.62634023 C139.400334,7.24673618 139.423197,7.88999493 139.423197,8.5561165"/>
        <polygon points="152.42 16.787 145.282 5.464 145.282 16.787 142.33 16.787 142.33 .302 145.515 .302 152.559 11.462 152.559 .302 155.512 .302 155.512 16.787"/>
        <path d="M164.812117,3.97588164 L162.463835,10.9277263 L167.160786,10.9277263 L164.812117,3.97588164 Z M169.160313,16.7868061 L168.090799,13.624763 L161.533822,13.624763 L160.464307,16.7868061 L157.441766,16.7868061 L163.231483,0.302331617 L166.509777,0.302331617 L172.298719,16.7868061 L169.160313,16.7868061 Z"/>
        <polygon points="174.229 16.787 174.229 .302 177.228 .302 177.228 13.95 184.877 13.95 184.877 16.787"/>
        <path d="M11.0361115,36.4334011 C11.0361115,36.061396 11.0279739,35.6661407 11.0128612,35.247635 C10.997361,34.8291293 10.9508604,34.4144986 10.8733593,34.003743 C10.7958583,33.5929874 10.6796067,33.2016071 10.5249921,32.829602 C10.3696024,32.457597 10.1448494,32.1243424 9.85034538,31.8298384 C9.57172908,31.5508346 9.23459949,31.3260816 8.83895661,31.1555792 C8.44408873,30.9850769 8.00582026,30.8998257 7.52531372,30.8998257 L4.10751718,30.8998257 L4.10751718,41.9902268 L7.52531372,41.9902268 C8.00582026,41.9902268 8.44408873,41.9053631 8.83895661,41.7344733 C9.23459949,41.563971 9.57172908,41.3392179 9.85034538,41.0602141 C10.1448494,40.7660976 10.3696024,40.4324556 10.5249921,40.0604505 C10.6796067,39.6884454 10.7958583,39.2970651 10.8733593,38.8863095 C10.9508604,38.4759414 10.997361,38.0570482 11.0128612,37.6307924 C11.0279739,37.2045366 11.0361115,36.8054062 11.0361115,36.4334011 M14.081903,36.4334011 C14.081903,37.0069089 14.0625277,37.5842918 14.0237772,38.1655497 C13.9850267,38.7468076 13.896288,39.3164404 13.7567861,39.874448 C13.6168967,40.4324556 13.419269,40.9710879 13.1635155,41.490345 C12.907762,42.0099895 12.5706324,42.486621 12.1525142,42.9202394 C11.6092318,43.4937472 10.9392352,43.9316282 10.1409743,44.2338823 C9.34271347,44.5361364 8.47082659,44.6872635 7.52531372,44.6872635 L1.10861385,44.6872635 L1.10861385,28.202789 L7.52531372,28.202789 C8.47082659,28.202789 9.34271347,28.3539161 10.1409743,28.6561702 C10.9392352,28.9584243 11.6092318,29.3963053 12.1525142,29.9698131 C12.5706324,30.403819 12.907762,30.8765754 13.1635155,31.3880824 C13.419269,31.8995894 13.6168967,32.4343466 13.7567861,32.9923542 C13.896288,33.5503618 13.9850267,34.1199946 14.0237772,34.7012525 C14.0625277,35.2825104 14.081903,35.8602808 14.081903,36.4334011"/>
        <polygon points="17.011 44.687 17.011 28.203 28.753 28.203 28.753 30.923 20.01 30.923 20.01 34.759 27.707 34.759 27.707 37.456 20.01 37.456 20.01 41.967 28.753 41.967 28.753 44.687"/>
        <path d="M43.4938247,39.7813304 C43.4938247,40.5567285 43.365948,41.2228501 43.1101945,41.7808577 C42.854441,42.3388653 42.524674,42.8193718 42.1220561,43.2223773 C41.4861599,43.8582734 40.7150244,44.3116546 39.8082621,44.5825208 C38.9014997,44.853387 37.9366116,44.9894014 36.9139851,44.9894014 C36.0300856,44.9894014 35.1581987,44.8615246 34.2983245,44.6057711 C33.4380628,44.3500176 32.6669273,43.9125242 31.984918,43.2921282 C31.4885238,42.8426221 31.0781557,42.2888771 30.7522637,41.6297306 C30.4267593,40.9709716 30.2640071,40.2463368 30.2640071,39.455826 L33.3330489,39.455826 C33.3330489,39.859219 33.414425,40.2347116 33.5771772,40.5834664 C33.7399294,40.9322211 33.9453072,41.2309877 34.1936981,41.4786035 C34.5498154,41.8354959 34.9799463,42.0714866 35.4837032,42.1877382 C35.98746,42.3039898 36.4795917,42.3621156 36.9604858,42.3621156 C37.5336061,42.3621156 38.076501,42.2962397 38.5880079,42.1644879 C39.0991274,42.0331236 39.509883,41.804108 39.8202747,41.4786035 C40.0062772,41.2774883 40.1608919,41.0643604 40.285281,40.8392198 C40.4088952,40.6148543 40.4708961,40.300975 40.4708961,39.897582 C40.4708961,39.2930738 40.2732684,38.8396926 39.8784005,38.5374385 C39.4827576,38.2351844 39.0293764,38.0375567 38.5178695,37.9445554 C37.9602494,37.8364415 37.3476035,37.7585529 36.681482,37.7120523 C36.0145854,37.6655516 35.4104647,37.5958007 34.8675698,37.5027994 C34.294062,37.4097981 33.7554296,37.2470459 33.2516728,37.0145428 C32.7483034,36.7820396 32.3061599,36.4762979 31.9264047,36.0961553 C31.5466496,35.7164001 31.2443954,35.2591439 31.0200299,34.7243866 C30.7948893,34.1896293 30.6825128,33.5816335 30.6825128,32.8992367 C30.6825128,32.2482279 30.8142646,31.6518572 31.0781557,31.1089623 C31.3416593,30.5668425 31.6900265,30.0781983 32.1240324,29.6441924 C32.6669273,29.101685 33.3640493,28.6758167 34.2169484,28.365425 C35.0690725,28.0554208 35.983585,27.9004187 36.9604858,27.9004187 C37.8439978,27.9004187 38.6922469,28.036433 39.5063954,28.3072992 C40.3201565,28.5785529 41.0056534,28.9780708 41.5640485,29.5046905 C42.0596677,29.9696968 42.4587981,30.4970915 42.7610523,31.085712 C43.0636939,31.6751076 43.2221835,32.3179788 43.2380713,33.0154883 L40.1690295,33.0154883 C40.1531417,32.7213718 40.0791282,32.4307428 39.9481515,32.1436014 C39.8160122,31.8568475 39.6493849,31.6053566 39.4482696,31.3879661 C39.1843786,31.1089623 38.8123735,30.8923469 38.3322545,30.7369573 C37.8513604,30.5823427 37.3863541,30.5044541 36.936848,30.5044541 C36.4722291,30.5044541 35.9952101,30.5668425 35.507341,30.6904566 C35.0190843,30.8148458 34.6040662,31.0547116 34.2634491,31.4112165 C34.0925592,31.597219 33.9573199,31.7987217 33.8565685,32.0157247 C33.7554296,32.2331152 33.7050539,32.4966187 33.7050539,32.8062355 C33.7050539,33.3491304 33.8600561,33.763761 34.1700603,34.0501274 C34.4800645,34.3372688 34.88307,34.5190088 35.3794642,34.5965098 C35.9060839,34.6743984 36.498967,34.7441493 37.157726,34.8057627 C37.8168724,34.8677635 38.4171181,34.9375145 38.960013,35.0150155 C39.5796339,35.1080168 40.1647669,35.2750316 40.7150244,35.5148973 C41.2652819,35.7555381 41.7457884,36.0729049 42.1569315,36.4681603 C42.5672996,36.8634157 42.8928041,37.3400472 43.1330573,37.8980548 C43.3733106,38.4560624 43.4938247,39.0838209 43.4938247,39.7813304"/>
        <polygon points="46.19 44.687 49.236 44.687 49.236 28.203 46.19 28.203"/>
        <path d="M63.6743633,44.687186 L63.3256085,42.8736613 C63.2012193,43.1061645 63.0152168,43.3502928 62.7676009,43.6060463 C62.5195976,43.8617997 62.2130809,44.0904279 61.8492134,44.2919306 C61.4849585,44.4934333 61.0780779,44.6604481 60.6285718,44.7918124 C60.1786782,44.9231767 59.6981716,44.9894401 59.1870522,44.9894401 C58.2256516,44.9894401 57.3305144,44.8573008 56.5012531,44.5941847 C55.6723793,44.3306811 54.9318567,43.8501746 54.2812354,43.1526651 C53.8472295,42.703159 53.4942122,42.23079 53.2229585,41.7343958 C52.9517048,41.238389 52.7350893,40.7113818 52.5723371,40.1533743 C52.4095849,39.5953667 52.2968209,39.0106212 52.23482,38.3979753 C52.1728192,37.785717 52.1418187,37.1389707 52.1418187,36.4565739 C52.1418187,35.7904523 52.1693316,35.1510686 52.2235824,34.5384228 C52.2778331,33.9261645 52.382072,33.3491691 52.5374616,32.8062742 C52.6920762,32.2637668 52.9094667,31.7448973 53.188083,31.248503 C53.4674743,30.7528837 53.8313417,30.2801273 54.2812354,29.8302337 C54.9163565,29.1951125 55.6723793,28.7142185 56.5477537,28.3887141 C57.4235157,28.0632096 58.3035401,27.9004574 59.1870522,27.9004574 C60.2100661,27.9004574 61.1400788,28.0713472 61.9770902,28.4119644 C62.8137141,28.752969 63.5116111,29.2106127 64.0696187,29.7837331 C64.4726241,30.2022388 64.8132413,30.6788702 65.0926326,31.2136275 C65.3716364,31.7483848 65.5343886,32.3800184 65.5808892,33.1085283 L62.5118474,33.1085283 C62.4804595,32.7830239 62.3955959,32.5040201 62.256094,32.2715169 C62.1162046,32.0390138 61.9612024,31.8146482 61.7910876,31.5972577 C61.2171923,30.9307487 60.3414304,30.5974941 59.1634144,30.5974941 C58.6829078,30.5974941 58.1946512,30.6943705 57.6990319,30.8881231 C57.2026377,31.0822632 56.7918821,31.3570045 56.4663776,31.7135093 C56.1877613,32.0080133 55.9630083,32.3494055 55.792506,32.7365233 C55.6216161,33.1240285 55.4902518,33.5309091 55.3972506,33.9571649 C55.3038618,34.3838082 55.2461235,34.813939 55.2224857,35.2475575 C55.1996229,35.6815634 55.1879977,36.0845688 55.1879977,36.4565739 C55.1879977,36.828579 55.2031104,37.2354595 55.2344984,37.6772155 C55.2654988,38.1189715 55.3274996,38.55724 55.4205009,38.9908584 C55.5131146,39.4248643 55.6448664,39.839495 55.8157563,40.2347504 C55.9858711,40.6300057 56.2106241,40.9748854 56.4900154,41.2693894 C56.8155199,41.6262818 57.2224004,41.8893979 57.7102696,42.0599002 C58.1989137,42.23079 58.6829078,42.3156537 59.1634144,42.3156537 C59.7063092,42.3156537 60.1825532,42.23079 60.5936963,42.0599002 C61.0040644,41.8893979 61.3493316,41.6568947 61.6283354,41.3623907 C62.0778415,40.8973844 62.3684705,40.4056402 62.5002223,39.8859956 C62.6319741,39.367126 62.6974625,38.7897432 62.6974625,38.153847 L58.7685465,38.153847 L58.7685465,35.6660631 L65.603752,35.6660631 L65.603752,44.687186 L63.6743633,44.687186 Z"/>
        <polygon points="79.089 44.687 71.951 33.364 71.951 44.687 68.999 44.687 68.999 28.203 72.184 28.203 79.229 39.363 79.229 28.203 82.181 28.203 82.181 44.687"/>
        <polygon points="90.9 44.687 90.9 28.203 93.899 28.203 93.899 41.851 101.548 41.851 101.548 44.687"/>
        <path d="M109.127918 31.8762615L106.779636 38.8281062 111.476588 38.8281062 109.127918 31.8762615zM113.476115 44.687186L112.406601 41.5251429 105.849624 41.5251429 104.780109 44.687186 101.757568 44.687186 107.547284 28.2027115 110.825579 28.2027115 116.61452 44.687186 113.476115 44.687186zM128.123233 39.8278698C128.123233 38.9443578 127.85198 38.3247369 127.309085 37.9678445 126.766577 37.6113396 126.100456 37.4330872 125.309945 37.4330872L121.520143 37.4330872 121.520143 42.0133996 125.216944 42.0133996C125.557561 42.0133996 125.902828 41.9785241 126.251583 41.9087732 126.59995 41.8390222 126.914217 41.7192831 127.193221 41.5483932 127.471837 41.3778909 127.69659 41.1531379 127.86748 40.8741341 128.037595 40.5951303 128.123233 40.2463755 128.123233 39.8278698M127.774479 32.8760252C127.774479 32.4889074 127.704728 32.1591404 127.565226 31.8878867 127.425724 31.6170205 127.239721 31.3996301 127.007218 31.2368778 126.774715 31.0741256 126.503074 30.957874 126.193457 30.8881231 125.883065 30.8183721 125.557561 30.7834967 125.216944 30.7834967L121.520143 30.7834967 121.520143 34.922053 125.286695 34.922053C125.627699 34.922053 125.949329 34.8871775 126.251583 34.8174266 126.553837 34.7476756 126.817341 34.6356866 127.042094 34.480297 127.266459 34.3256824 127.444712 34.1164295 127.576851 33.8525385 127.708215 33.5890349 127.774479 33.2639179 127.774479 32.8760252M131.168637 39.8976208C131.168637 40.6416309 131.037273 41.3313903 130.773769 41.9668989 130.509878 42.6027951 130.08401 43.1453025 129.495002 43.5944211 128.843606 44.0904279 128.146484 44.4004321 127.402474 44.5244338 126.658463 44.6484355 125.891203 44.7104363 125.100692 44.7104363L118.544103 44.7104363 118.544103 28.2027115 125.100692 28.2027115C125.766814 28.2027115 126.429448 28.2647124 127.088594 28.3887141 127.746966 28.5131033 128.355737 28.752969 128.913744 29.1094739 129.518252 29.5128669 129.987134 30.0317364 130.320388 30.6672451 130.653255 31.3027537 130.82027 31.9774004 130.82027 32.6900226 130.82027 33.0310273 130.781132 33.3724194 130.704018 33.7130366 130.62613 34.0544287 130.502516 34.3838082 130.332013 34.701175 130.161124 35.0189293 129.948383 35.3056832 129.69263 35.5614367 129.436876 35.8171902 129.13811 36.0229555 128.797493 36.1775701 129.588003 36.534075 130.180886 37.049457 130.576142 37.7237162 130.971397 38.3979753 131.168637 39.1226102 131.168637 39.8976208M8.38561418 75.0681422C8.3646889 75.5850742 8.25928746 76.0551181 8.06824736 76.4786614 7.87681976 76.9025921 7.62067877 77.2796348 7.30059941 77.6101768 6.97005741 77.9411063 6.54612664 78.2201101 6.0295821 78.4471882 5.51303757 78.6742663 4.95464247 78.7881928 4.35594681 78.7881928 3.79755171 78.7881928 3.26008189 78.6897665 2.74353736 78.4936888 2.22660532 78.2976111 1.77244913 78.0031071 1.37951878 77.6101768 1.0795897 77.3210978.839336429 77.0033435.659146475 76.6569138.478181511 76.3108716.338292106 75.9466166.240253271 75.5641489.142214436 75.1820687.0778885606 74.7813883.0465006332 74.3628826.0155002111 73.9443769 2.84217094e-13 73.5181211 2.84217094e-13 73.0841152 2.84217094e-13 72.6501092.0155002111 72.2238534.0465006332 71.8053477.0778885606 71.386842.142214436 70.9865491.240253271 70.6040814.338292106 70.2220012.478181511 69.8577462.659146475 69.5113165.839336429 69.1652743 1.0795897 68.84752 1.37951878 68.5580535 1.77244913 68.1655107 2.22660532 67.8710067 2.74353736 67.6745415 3.26008189 67.4784638 3.79755171 67.3800375 4.35594681 67.3800375 4.95464247 67.3800375 5.51032503 67.4862139 6.021832 67.6977918 6.53372647 67.9097572 6.9545572 68.1810109 7.2850992 68.5115529 7.60517856 68.8424824 7.86093204 69.2144875 8.05274715 69.6275681 8.24378725 70.0410362 8.34918869 70.5060425 8.37011397 71.0225871L6.94409455 71.0225871C6.93363191 70.7230455 6.87473111 70.4440417 6.76584213 70.1855757 6.65734065 69.9274972 6.51551372 69.694994 6.33997383 69.4880662 6.12258337 69.2505255 5.84357957 69.0567728 5.50296243 68.9068083 5.16195779 68.7572312 4.77910257 68.6820552 4.35594681 68.6820552 3.98394175 68.6820552 3.62433685 68.7545187 3.27829464 68.8990582 2.93225243 69.0439851 2.62496074 69.2505255 2.35603208 69.5190666 2.12895399 69.7569949 1.95302659 70.0204984 1.82902491 70.3095774 1.70502322 70.5990438 1.61240946 70.9012979 1.55002111 71.2163397 1.48802026 71.531769 1.45159477 71.8495233 1.44151963 72.1696027 1.43144449 72.4900696 1.42601942 72.7950362 1.42601942 73.0841152 1.42601942 73.3735816 1.43144449 73.6785482 1.44151963 73.9986276 1.45159477 74.3190945 1.48802026 74.6368488 1.55002111 74.9518906 1.61240946 75.2673199 1.70502322 75.571899 1.82902491 75.866403 1.95302659 76.160907 2.12895399 76.4220856 2.35603208 76.6491637 2.62496074 76.9180924 2.93225243 77.1246327 3.27829464 77.2691721 3.62433685 77.4140991 3.98394175 77.4861751 4.35594681 77.4861751 4.77910257 77.4861751 5.16428282 77.406349 5.51032503 77.2459218 5.85675475 77.0858821 6.13808358 76.8870919 6.35508653 76.6491637 6.53062642 76.4426234 6.67284086 76.2023701 6.78134234 75.9284039 6.89023132 75.6548252 6.94913212 75.3680713 6.95959477 75.0681422L8.38561418 75.0681422zM18.0732461 73.0840764C18.0732461 72.7949975 18.065496 72.4900308 18.0499958 72.169564 18.0344956 71.8494846 17.995745 71.5317303 17.9337442 71.216301 17.8717434 70.9012592 17.7787421 70.5990051 17.6547404 70.3095386 17.5307387 70.0204597 17.3548113 69.7569561 17.1277332 69.5190279 16.8588046 69.2504867 16.5515129 69.0462714 16.2054707 68.9067695 15.8590409 68.7672676 15.5002111 68.6975167 15.128206 68.6975167 14.7562009 68.6975167 14.3969835 68.7672676 14.0509413 68.9067695 13.7048991 69.0462714 13.3976074 69.2504867 13.1286788 69.5190279 12.9012132 69.7569561 12.7256733 70.0204597 12.6016716 70.3095386 12.4776699 70.5990051 12.3846686 70.9012592 12.3226678 71.216301 12.2606669 71.5317303 12.2219164 71.8494846 12.2064162 72.169564 12.190916 72.4900308 12.1831659 72.7949975 12.1831659 73.0840764 12.1831659 73.3735428 12.190916 73.6785095 12.2064162 73.9985889 12.2219164 74.3190557 12.2606669 74.63681 12.3226678 74.9518518 12.3846686 75.2672811 12.4776699 75.5718603 12.6016716 75.8663643 12.7256733 76.1608683 12.9012132 76.4220469 13.1286788 76.6491249 13.3976074 76.9180536 13.7048991 77.1218814 14.0509413 77.2613833 14.3969835 77.4008852 14.7562009 77.4706361 15.128206 77.4706361 15.5002111 77.4706361 15.8590409 77.4008852 16.2054707 77.2613833 16.5515129 77.1218814 16.8588046 76.9180536 17.1277332 76.6491249 17.3548113 76.4220469 17.5307387 76.1608683 17.6547404 75.8663643 17.7787421 75.5718603 17.8717434 75.2672811 17.9337442 74.9518518 17.995745 74.63681 18.0344956 74.3190557 18.0499958 73.9985889 18.065496 73.6785095 18.0732461 73.3735428 18.0732461 73.0840764M19.4992655 73.0840764C19.4992655 73.5180823 19.4810528 73.9443381 19.4450148 74.3628438 19.4085893 74.7813495 19.3415509 75.18203 19.243512 75.5641102 19.1454732 75.9465779 19.0032588 76.3108328 18.8172562 76.6568751 18.6312537 77.0033048 18.3882879 77.3210591 18.0887463 77.610138 17.695816 78.0030684 17.2439848 78.2975724 16.7324778 78.4936501 16.2209709 78.6897277 15.6862136 78.7881541 15.128206 78.7881541 14.5701984 78.7881541 14.0354411 78.6897277 13.5239341 78.4936501 13.0124272 78.2975724 12.5602085 78.0030684 12.1676657 77.610138 11.8677366 77.3210591 11.6251583 77.0033048 11.4391558 76.6568751 11.2531532 76.3108328 11.1109388 75.9465779 11.0129 75.5641102 10.9144736 75.18203 10.8478227 74.7813495 10.8113972 74.3628438 10.7749717 73.9443381 10.7571465 73.5180823 10.7571465 73.0840764 10.7571465 72.6500705 10.7749717 72.2238147 10.8113972 71.805309 10.8478227 71.3868033 10.9144736 70.9865103 11.0129 70.6040426 11.1109388 70.2219624 11.2531532 69.8577075 11.4391558 69.5112778 11.6251583 69.1652355 11.8677366 68.8474812 12.1676657 68.5580148 12.5602085 68.1654719 13.0124272 67.8709679 13.5239341 67.6745027 14.0354411 67.4784251 14.5701984 67.3799987 15.128206 67.3799987 15.6862136 67.3799987 16.2209709 67.4784251 16.7324778 67.6745027 17.2439848 67.8709679 17.695816 68.1654719 18.0887463 68.5580148 18.3882879 68.8474812 18.6312537 69.1652355 18.8172562 69.5112778 19.0032588 69.8577075 19.1454732 70.2219624 19.243512 70.6040426 19.3415509 70.9865103 19.4085893 71.3868033 19.4450148 71.805309 19.4810528 72.2238147 19.4992655 72.6500705 19.4992655 73.0840764"/>
        <polygon points="22.801 78.571 22.801 67.582 24.18 67.582 24.18 77.285 29.466 77.285 29.466 78.571"/>
        <path d="M39.416688,74.5411737 C39.416688,75.223183 39.3236867,75.8276913 39.1376842,76.3546984 C38.9516816,76.8817056 38.682753,77.3234616 38.3316732,77.6799665 C37.9802059,78.0364713 37.5589877,78.307725 37.068406,78.4937276 C36.5774368,78.6797301 36.0221417,78.7727314 35.4021333,78.7727314 C34.7821249,78.7727314 34.2264423,78.6797301 33.7358606,78.4937276 C33.2448914,78.307725 32.8236732,78.0364713 32.4725934,77.6799665 C32.1211261,77.3234616 31.852585,76.8817056 31.6665824,76.3546984 C31.4809674,75.8276913 31.3875786,75.223183 31.3875786,74.5411737 L31.3875786,67.581579 L32.7670974,67.581579 L32.7670974,74.5721742 C32.7670974,75.0061801 32.8163106,75.404148 32.9143494,75.7656904 C33.0127758,76.1276203 33.1646778,76.434912 33.3716057,76.687953 C33.5785335,76.9413814 33.8493997,77.1374591 34.1853667,77.276961 C34.5209463,77.4164629 34.9266643,77.4862138 35.4021333,77.4862138 C35.8772148,77.4862138 36.2829328,77.4164629 36.6188999,77.276961 C36.9544794,77.1374591 37.2261206,76.9413814 37.432661,76.687953 C37.6392013,76.434912 37.7918783,76.1276203 37.8903047,75.7656904 C37.987956,75.404148 38.0371692,75.0061801 38.0371692,74.5721742 L38.0371692,67.581579 L39.416688,67.581579 L39.416688,74.5411737 Z"/>
        <polygon points="52.359 78.571 52.359 69.302 48.949 78.416 47.864 78.416 44.454 69.225 44.454 78.571 43.137 78.571 43.137 67.582 45.121 67.582 48.438 76.525 51.739 67.582 53.677 67.582 53.677 78.571"/>
        <path d="M64.3252559,75.4091081 C64.3252559,75.0991038 64.2686801,74.8255251 64.1547536,74.5875969 C64.0412145,74.3500561 63.8858249,74.1485534 63.6897472,73.9830886 C63.4936696,73.8180114 63.2634914,73.6912972 62.9999878,73.6033335 C62.7364843,73.5157573 62.460193,73.4715817 62.170339,73.4715817 L59.0551841,73.4715817 L59.0551841,77.3001338 L62.1397261,77.3001338 C62.4392677,77.3001338 62.7233091,77.2640958 62.9922377,77.1916323 C63.2607789,77.1195564 63.4936696,77.0056298 63.6897472,76.8506277 C63.8858249,76.6956256 64.0412145,76.4995479 64.1547536,76.2616197 C64.2686801,76.0240789 64.3252559,75.7400376 64.3252559,75.4091081 M64.0772525,70.5265416 C64.0772525,70.2374626 64.0230018,69.9867467 63.9141128,69.7747813 C63.8059988,69.5632035 63.6610718,69.384951 63.4804944,69.2400241 C63.2999169,69.0954846 63.0879515,68.9869831 62.8449857,68.9145196 C62.6020199,68.8424436 62.351304,68.8060182 62.0932255,68.8060182 L59.0551841,68.8060182 L59.0551841,72.2625652 L62.1397261,72.2625652 C62.718659,72.2625652 63.1859904,72.1284884 63.5421077,71.8595597 C63.8990001,71.5910186 64.0772525,71.14655 64.0772525,70.5265416 M65.7357751,75.5021093 C65.7357751,75.9465779 65.6555615,76.3367957 65.4955218,76.6723753 C65.3350946,77.0083423 65.1363044,77.3055589 64.8983762,77.5636374 C64.5887595,77.8945669 64.188079,78.1448953 63.6974973,78.3153976 C63.2065282,78.4859 62.6872711,78.5711511 62.1397261,78.5711511 L57.7066658,78.5711511 L57.7066658,67.5815015 L62.0932255,67.5815015 C62.60977,67.5815015 63.1108144,67.6667526 63.596746,67.837255 C64.0822901,68.0077573 64.4748329,68.2584732 64.774762,68.5890152 C64.991765,68.8269434 65.1645923,69.0927721 65.2940191,69.3872761 C65.4230583,69.6817801 65.4877717,70.0254973 65.4877717,70.4180401 C65.4877717,70.9450473 65.3533074,71.4360165 65.0847662,71.8905602 C64.8162251,72.3454913 64.4232947,72.6655707 63.9067502,72.8515732 C64.185754,72.9445745 64.4387949,73.0817514 64.6662605,73.2623288 C64.8933386,73.4432938 65.0870913,73.6498341 65.2475184,73.8823373 C65.4075581,74.1148404 65.5288473,74.3705939 65.6117734,74.6495977 C65.694312,74.9286015 65.7357751,75.2130304 65.7357751,75.5021093"/>
        <polygon points="68.991 78.571 70.401 78.571 70.401 67.582 68.991 67.582"/>
        <path d="M77.6555924 68.9611365L75.718066 74.6652142 79.608619 74.6652142 77.6555924 68.9611365zM80.9571374 78.5712674L80.0577376 75.9672319 75.2840601 75.9672319 74.4005481 78.5712674 73.0055291 78.5712674 76.8805818 67.5816177 78.4926038 67.5816177 82.3827693 78.5712674 80.9571374 78.5712674zM97.2007773 74.5411737C97.2007773 75.223183 97.107776 75.8276913 96.9217735 76.3546984 96.735771 76.8817056 96.4668423 77.3234616 96.1157625 77.6799665 95.7642952 78.0364713 95.343077 78.307725 94.8524953 78.4937276 94.3615261 78.6797301 93.8062311 78.7727314 93.1862226 78.7727314 92.5662142 78.7727314 92.0105316 78.6797301 91.5199499 78.4937276 91.0289808 78.307725 90.6077625 78.0364713 90.2566827 77.6799665 89.9052154 77.3234616 89.6366743 76.8817056 89.4506718 76.3546984 89.2650567 75.8276913 89.171668 75.223183 89.171668 74.5411737L89.171668 67.581579 90.5511867 67.581579 90.5511867 74.5721742C90.5511867 75.0061801 90.6003999 75.404148 90.6984388 75.7656904 90.7968651 76.1276203 90.9487672 76.434912 91.155695 76.687953 91.3626228 76.9413814 91.633489 77.1374591 91.9694561 77.276961 92.3050356 77.4164629 92.7107537 77.4862138 93.1862226 77.4862138 93.6613041 77.4862138 94.0670221 77.4164629 94.4029892 77.276961 94.7385688 77.1374591 95.01021 76.9413814 95.2167503 76.687953 95.4232906 76.434912 95.5759677 76.1276203 95.674394 75.7656904 95.7720453 75.404148 95.8212585 75.0061801 95.8212585 74.5721742L95.8212585 67.581579 97.2007773 67.581579 97.2007773 74.5411737z"/>
        <polygon points="107.648 78.571 102.254 69.736 102.254 78.571 100.921 78.571 100.921 67.582 102.471 67.582 107.865 76.448 107.865 67.582 109.198 67.582 109.198 78.571"/>
        <polygon points="113.228 78.571 114.638 78.571 114.638 67.582 113.228 67.582"/>
        <polygon points="122.327 78.571 120.885 78.571 117.18 67.582 118.606 67.582 121.644 76.866 124.621 67.582 126.031 67.582"/>
        <polygon points="128.573 78.571 128.573 67.582 135.92 67.582 135.92 68.853 129.952 68.853 129.952 72.201 135.191 72.201 135.191 73.503 129.952 73.503 129.952 77.3 135.92 77.3 135.92 78.571"/>
        <path d="M145.731279 70.7900839C145.731279 70.0979995 145.522027 69.6019927 145.103521 69.3020637 144.685015 69.0025221 144.150258 68.8525575 143.499249 68.8525575L140.569709 68.8525575 140.569709 72.7121101 143.499249 72.7121101C143.819328 72.7121101 144.116545 72.6787846 144.390511 72.6113587 144.66409 72.5443203 144.902018 72.4331063 145.103521 72.2781042 145.305024 72.1231021 145.460026 71.9243119 145.568527 71.6813461 145.677029 71.4387678 145.731279 71.1415512 145.731279 70.7900839L145.731279 70.7900839zM145.684779 78.5711899L143.608138 73.9986276 140.569709 73.9986276 140.569709 78.5711899 139.19019 78.5711899 139.19019 67.5815402 143.499249 67.5815402C144.150258 67.5815402 144.703228 67.6667914 145.158159 67.8372937 145.612315 68.007796 145.989358 68.2480493 146.289287 68.5580535 146.557828 68.8370573 146.769793 69.1575242 146.924796 69.5190666 147.079798 69.8809965 147.157299 70.3045398 147.157299 70.7900839 147.157299 71.2760155 147.084835 71.6890962 146.940296 72.0301008 146.795369 72.3711054 146.588829 72.6811097 146.320675 72.9601135 146.154823 73.1360409 145.96107 73.2883304 145.739417 73.4173697 145.516601 73.5467965 145.271311 73.6525854 145.002769 73.735124L147.203799 78.5711899 145.684779 78.5711899zM157.8991 75.5487262C157.8991 76.0137325 157.810749 76.416738 157.635209 76.7577427 157.459669 77.0987473 157.237629 77.403714 156.969087 77.6722551 156.586232 78.0442602 156.118901 78.3205515 155.565931 78.5015164 155.013348 78.6820939 154.442553 78.7727701 153.853545 78.7727701 152.520139 78.7727701 151.47155 78.4216903 150.706615 77.7187558 150.355535 77.3882138 150.071493 76.9979959 149.854103 76.5484898 149.637488 76.0989837 149.528599 75.6107271 149.528599 75.0837199L150.970118 75.0837199C150.970118 75.4142619 151.042582 75.7324037 151.187509 76.0369829 151.332048 76.3419495 151.518051 76.6027406 151.745129 76.8197435 151.99352 77.0576718 152.308174 77.2304991 152.691029 77.3390006 153.073109 77.4475021 153.460615 77.5017528 153.853545 77.5017528 154.276701 77.5017528 154.661881 77.4552522 155.008311 77.3622509 155.354353 77.2692496 155.651182 77.1041724 155.899573 76.8662442 156.075113 76.711242 156.211902 76.5329896 156.309941 76.3314869 156.40798 76.1299841 156.457193 75.8796557 156.457193 75.5797266 156.457193 75.1457207 156.312653 74.7686781 156.023187 74.4482112 155.734108 74.1277444 155.263677 73.9161665 154.613055 73.8127026 154.313126 73.7611644 154.024047 73.7169888 153.744656 73.6809508 153.46604 73.6449128 153.176186 73.6011247 152.877032 73.549199 152.463564 73.4871981 152.078383 73.3841217 151.722266 73.2391948 151.365761 73.0946553 151.055757 72.9009027 150.791866 72.6579369 150.528362 72.4153585 150.321822 72.1258921 150.172245 71.789925 150.02228 71.4543455 149.947104 71.0691652 149.947104 70.6351593 149.947104 70.2216912 150.032355 69.8264358 150.203245 69.4493932 150.373748 69.0723505 150.608576 68.7441336 150.908505 68.4651298 151.683515 67.7420449 152.644141 67.380115 153.791157 67.380115 154.328626 67.380115 154.847883 67.4676912 155.349315 67.6436186 155.85036 67.819546 156.281653 68.0826621 156.643583 68.4341293 157.31513 69.0746756 157.666209 69.8601488 157.69721 70.7901614L156.256078 70.7901614C156.235152 70.5216203 156.178577 70.2685793 156.085188 70.0306511 155.992574 69.7927228 155.868572 69.58657 155.713183 69.4106426 155.506642 69.1731019 155.240814 68.9870994 154.915309 68.852635 154.589805 68.7185582 154.209662 68.6511323 153.775656 68.6511323 153.383114 68.6511323 153.018859 68.7108081 152.683279 68.8293847 152.347312 68.9483488 152.060558 69.1421015 151.82263 69.4106426 151.67809 69.5761074 151.566876 69.7543598 151.489763 69.9453999 151.412262 70.1368275 151.373124 70.3561555 151.373124 70.6041589 151.373124 70.8521623 151.419624 71.0668402 151.513013 71.2474176 151.606014 71.4283826 151.730016 71.5806722 151.884631 71.7046739 152.04002 71.8286756 152.21556 71.9267144 152.412025 71.9991779 152.608103 72.0716414 152.809606 72.1231796 153.016146 72.15418 153.32615 72.1956431 153.633829 72.2394312 153.938409 72.2859318 154.242988 72.3324324 154.545629 72.3816456 154.845171 72.4331838 155.765108 72.5676481 156.503694 72.9009027 157.062089 73.4329474 157.619709 73.9653797 157.8991 74.6702518 157.8991 75.5487262"/>
        <polygon points="161.154 78.571 162.564 78.571 162.564 67.582 161.154 67.582"/>
        <polygon points="169.911 68.868 169.911 78.571 168.516 78.571 168.516 68.868 165.245 68.868 165.245 67.582 173.182 67.582 173.182 68.868"/>
        <polygon points="179.397 74.107 179.397 78.571 178.002 78.571 178.002 74.107 174.313 67.582 175.863 67.582 178.746 72.805 181.614 67.582 183.086 67.582"/>
        <path d="M25.3817506,8.5561165 C25.3817506,8.18411144 25.373613,7.78110595 25.3581128,7.34710004 C25.3426126,6.91348164 25.2961119,6.48335078 25.2186109,6.05670747 C25.1411098,5.63083917 25.0209832,5.22357113 24.858231,4.83606585 C24.6954788,4.44894808 24.4746008,4.10794344 24.195597,3.81305192 C23.87048,3.45654707 23.4748371,3.18529337 23.0102183,2.99929084 C22.545212,2.81328831 22.072068,2.72028704 21.591949,2.72028704 C21.111055,2.72028704 20.638686,2.81328831 20.1736797,2.99929084 C19.7082859,3.18529337 19.313418,3.45654707 18.9879136,3.81305192 C18.7085222,4.10794344 18.4880317,4.44894808 18.3252795,4.83606585 C18.1621398,5.22357113 18.0424007,5.63083917 17.9645121,6.05670747 C17.8870111,6.48335078 17.8405104,6.91348164 17.8253977,7.34710004 C17.80951,7.78110595 17.8017599,8.18411144 17.8017599,8.5561165 C17.8017599,8.92812157 17.80951,9.33151456 17.8253977,9.76513297 C17.8405104,10.1995264 17.8870111,10.6253947 17.9645121,11.0439004 C18.0424007,11.4624061 18.1621398,11.8657991 18.3252795,12.2529168 C18.4880317,12.6408096 18.7085222,12.9818143 18.9879136,13.2759308 C19.313418,13.6328231 19.7082859,13.9036893 20.1736797,14.0896919 C20.638686,14.2756944 21.111055,14.3686957 21.591949,14.3686957 C22.072068,14.3686957 22.545212,14.2756944 23.0102183,14.0896919 C23.4748371,13.9036893 23.87048,13.6328231 24.195597,13.2759308 C24.4746008,12.9818143 24.6954788,12.6408096 24.858231,12.2529168 C25.0209832,11.8657991 25.1411098,11.4624061 25.2186109,11.0439004 C25.2961119,10.6253947 25.3426126,10.1995264 25.3581128,9.76513297 C25.373613,9.33151456 25.3817506,8.92812157 25.3817506,8.5561165 M28.4271546,8.5561165 C28.4271546,9.2385133 28.4042918,9.88138455 28.3577911,10.4858928 C28.3112905,11.090401 28.2101516,11.6716589 28.0551495,12.2296665 C27.9001474,12.7876741 27.6870195,13.3150688 27.4161533,13.8106881 C27.1445121,14.3070823 26.7841322,14.7798388 26.3350136,15.2289574 C25.6991174,15.8648535 24.9706075,16.3333474 24.1490963,16.6356015 C23.3275851,16.9378556 22.475461,17.0889827 21.591949,17.0889827 C20.7080495,17.0889827 19.8555379,16.9378556 19.0340267,16.6356015 C18.2125155,16.3333474 17.4840056,15.8648535 16.8484969,15.2289574 C16.3989908,14.7798388 16.0386109,14.3070823 15.7673572,13.8106881 C15.4961035,13.3150688 15.2825881,12.7876741 15.128361,12.2296665 C14.9733589,11.6716589 14.8726075,11.090401 14.8261069,10.4858928 C14.7796062,9.88138455 14.7559684,9.2385133 14.7559684,8.5561165 C14.7559684,7.88999493 14.7796062,7.24673618 14.8261069,6.62634023 C14.8726075,6.00671929 14.9733589,5.41732377 15.128361,4.85931617 C15.2825881,4.30130857 15.4961035,3.7746889 15.7673572,3.27829464 C16.0386109,2.78267539 16.3989908,2.30991895 16.8484969,1.86002533 C17.4840056,1.22490418 18.2125155,0.755635289 19.0340267,0.453381173 C19.8555379,0.151127058 20.7080495,0 21.591949,0 C22.475461,0 23.3275851,0.151127058 24.1490963,0.453381173 C24.9706075,0.755635289 25.6991174,1.22490418 26.3350136,1.86002533 C26.7841322,2.30991895 27.1445121,2.78267539 27.4161533,3.27829464 C27.6870195,3.7746889 27.9001474,4.30130857 28.0551495,4.85931617 C28.2101516,5.41732377 28.3112905,6.00671929 28.3577911,6.62634023 C28.4042918,7.24673618 28.4271546,7.88999493 28.4271546,8.5561165"/>
      </g>
      <mask id="cdl-3-b" fill="#fff">
        <use xlink:href="#cdl-3-a"/>
      </mask>
      <path fill="#B9C0CB" d="M101.827783,83.3136866 L138.855977,83.3136866 L138.855977,4.62864957 L101.827783,4.62864957 L101.827783,83.3136866 Z M140.656091,87.9423362 L97.1991339,87.9423362 L97.1991339,0 L140.656091,0 C142.215772,0 143.484627,1.26910541 143.484627,2.82878632 L143.484627,85.1138006 C143.484627,86.6734815 142.215772,87.9423362 140.656091,87.9423362 L140.656091,87.9423362 Z" mask="url(#cdl-3-b)"/>
      <path fill="#B9C0CB" d="M141.170327,4.62874986 C119.476697,4.62874986 101.827809,22.2776387 101.827809,43.9712684 C101.827809,65.664898 119.476697,83.3137869 141.170327,83.3137869 C162.863957,83.3137869 180.512846,65.664898 180.512846,43.9712684 C180.512846,22.2776387 162.863957,4.62874986 141.170327,4.62874986 M141.170327,87.9424365 C116.924447,87.9424365 97.199159,68.216898 97.199159,43.9712684 C97.199159,19.725388 116.924447,0.0001002849 141.170327,0.0001002849 C165.416207,0.0001002849 185.141495,19.725388 185.141495,43.9712684 C185.141495,68.216898 165.416207,87.9424365 141.170327,87.9424365" mask="url(#cdl-3-b)"/>
      <polygon fill="#B9C0CB" points="87.942 87.942 43.971 87.942 43.971 83.314 83.314 83.314 83.314 4.629 43.971 4.629 43.971 0 87.942 0" mask="url(#cdl-3-b)"/>
      <path fill="#B9C0CB" d="M43.9711179,4.62874986 C22.2774883,4.62874986 4.62859943,22.2776387 4.62859943,43.9712684 C4.62859943,65.664898 22.2774883,83.3137869 43.9711179,83.3137869 C65.6647476,83.3137869 83.3136365,65.664898 83.3136365,43.9712684 C83.3136365,22.2776387 65.6647476,4.62874986 43.9711179,4.62874986 M43.9711179,87.9424365 C19.7252376,87.9424365 -5.01424501e-05,68.216898 -5.01424501e-05,43.9712684 C-5.01424501e-05,19.725388 19.7252376,0.0001002849 43.9711179,0.0001002849 C68.2169983,0.0001002849 87.942286,19.725388 87.942286,43.9712684 C87.942286,68.216898 68.2169983,87.9424365 43.9711179,87.9424365" mask="url(#cdl-3-b)"/>
      <polygon fill="#B9C0CB" points="2.314 46.285 85.628 46.285 85.628 41.657 2.314 41.657" mask="url(#cdl-3-b)"/>
    </g>
  </g>
</svg>
