<svg xmlns="http://www.w3.org/2000/svg" xmlns:xlink="http://www.w3.org/1999/xlink" width="600" height="442" viewBox="0 0 600 442">
  <defs>
    <polygon id="cdl-2-a" points="0 -.002 88.259 -.002 88.259 46.476 0 46.476"/>
    <polygon id="cdl-2-c" points="0 .019 88.259 .019 88.259 46.497 0 46.497"/>
    <polygon id="cdl-2-e" points=".271 .043 46.749 .043 46.749 88.351 .271 88.351"/>
    <polygon id="cdl-2-g" points=".34 .043 46.769 .043 46.769 88.351 .34 88.351"/>
    <polygon id="cdl-2-i" points="0 88.72 383.261 88.72 383.261 .388 0 .388"/>
  </defs>
  <g fill="none" fill-rule="evenodd">
    <rect width="600" height="442" fill="#B9C0CB"/>
    <g transform="translate(108 176)">
      <path fill="#000" d="M63.8148339,5.03543732 C72.3918757,9.33209582 79.3847959,16.3401287 83.6601417,24.9295707 L83.6601417,5.03543732 L63.8148339,5.03543732 Z M63.8148339,84.0477632 L83.6601417,84.0477632 L83.6601417,64.1540173 C79.3847959,72.7430718 72.3918757,79.7511047 63.8148339,84.0477632 L63.8148339,84.0477632 Z M88.3082675,88.695889 L44.1055406,88.695889 L44.1055406,84.0477632 C65.8891497,84.0477632 83.6117035,66.3255969 83.6117035,44.5416003 C83.6117035,22.7579911 65.8891497,5.03543732 44.1055406,5.03543732 L44.1055406,0.387699029 L88.3082675,0.387699029 L88.3082675,88.695889 Z"/>
      <g transform="translate(0 42.22)">
        <mask id="cdl-2-b" fill="#fff">
          <use xlink:href="#cdl-2-a"/>
        </mask>
        <path fill="#000" d="M4.66784981,4.64607201 C5.87647877,25.5310564 23.1165885,41.8283658 44.1054243,41.8283658 C65.1089853,41.8283658 82.3366949,25.352029 83.5441613,4.64607201 L4.66784981,4.64607201 Z M44.1054243,46.4761041 C20.4858152,46.4761041 1.11365141,28.0091526 0.00267378641,4.43371912 L-3.87505276e-05,4.32444263 L-3.87505276e-05,-0.00166627269 L88.2593255,-0.00166627269 L88.2593255,2.32220287 C88.2593255,26.6687719 68.4519933,46.4761041 44.1054243,46.4761041 L44.1054243,46.4761041 Z" mask="url(#cdl-2-b)"/>
      </g>
      <g transform="translate(0 .369)">
        <mask id="cdl-2-d" fill="#fff">
          <use xlink:href="#cdl-2-c"/>
        </mask>
        <path fill="#000" d="M4.66784981,41.8488648 L83.5441613,41.8488648 C82.3366949,21.1429079 65.1089853,4.66657104 44.1054243,4.66657104 C23.1165885,4.66657104 5.87647877,20.9638805 4.66784981,41.8488648 L4.66784981,41.8488648 Z M88.2593255,46.4966031 L-3.87505276e-05,46.4966031 L0.00267378641,42.0612177 C1.11365141,18.4857842 20.4858152,0.0188327564 44.1054243,0.0188327564 C68.4519933,0.0188327564 88.2593255,19.826165 88.2593255,44.172734 L88.2593255,46.4966031 Z" mask="url(#cdl-2-d)"/>
      </g>
      <path fill="#000" d="M102.275856 84.0479182L121.956474 84.0479182C113.477859 79.8078355 106.549265 72.9152791 102.275856 64.4234885L102.275856 84.0479182zM141.733581 88.6956565L97.6281181 88.6956565 97.6281181 46.543995 102.273144 46.4347185C103.267482 67.5262432 120.600593 84.0479182 141.733581 84.0479182L141.733581 88.6956565zM102.251444 5.0596564L102.251444 24.6844736C106.524852 16.192683 113.453446 9.29973913 121.932062 5.0596564L102.251444 5.0596564zM102.248731 42.6732436L97.6037053 42.5639671 97.6037053.411918109 141.709168.411918109 141.709168 5.0596564C120.576181 5.0596564 103.24307 21.5817189 102.248731 42.6732436L102.248731 42.6732436z"/>
      <path fill="#000" d="M97.6307144,46.6530778 C97.5966139,45.9311554 97.5795637,45.2208583 97.5795637,44.5415615 C97.5795637,43.8626523 97.5966139,43.1523551 97.6307144,42.4304328 L102.27574,42.5393217 L102.27574,46.5438013 L97.6307144,46.6530778 Z"/>
      <g transform="translate(139.114 .369)">
        <mask id="cdl-2-f" fill="#fff">
          <use xlink:href="#cdl-2-e"/>
        </mask>
        <path fill="#000" d="M4.91856572,4.75829354 L4.91856572,83.6357676 C25.6245227,82.4283011 42.101247,65.2005916 42.101247,44.1970306 C42.101247,23.1938571 25.6245227,5.96575998 4.91856572,4.75829354 M2.59469658,88.3513193 L0.270827438,88.3513193 L0.270827438,0.0431293373 L2.59469658,0.0431293373 C26.9416531,0.0431293373 46.7489853,19.8504615 46.7489853,44.1970306 C46.7489853,68.5435996 26.9416531,88.3513193 2.59469658,88.3513193" mask="url(#cdl-2-f)"/>
      </g>
      <g transform="translate(97.264 .369)">
        <mask id="cdl-2-h" fill="#fff">
          <use xlink:href="#cdl-2-g"/>
        </mask>
        <path fill="#000" d="M4.98761916,46.1437796 C5.97110756,66.4312308 22.0731143,82.4782118 42.1214748,83.6364651 L42.1214748,4.75782854 C22.0731143,5.91608181 5.97110756,21.9630628 4.98761916,42.2505141 L4.98761916,46.1437796 Z M46.7692131,88.3512418 L44.4453439,88.3512418 C20.8261223,88.3512418 1.45357104,69.8839028 0.342593415,46.3084693 L0.339880878,46.1991928 L0.342593415,42.0854368 C1.45357104,18.5100033 20.8261223,0.0430518362 44.4453439,0.0430518362 L46.7692131,0.0430518362 L46.7692131,88.3512418 Z" mask="url(#cdl-2-h)"/>
      </g>
      <path fill="#000" d="M211.512431 18.1703162C211.43493 18.821325 211.271791 19.4607087 211.024175 20.0884673 210.776171 20.7162258 210.411529 21.278496 209.93141 21.7741152 209.311014 22.4100114 208.590642 22.8940055 207.76913 23.22726 206.947619 23.5605146 206.095108 23.7271418 205.211596 23.7271418 204.328083 23.7271418 203.487197 23.5795023 202.688936 23.2853858 201.890288 22.9912693 201.173403 22.526263 200.538282 21.8903668 200.088776 21.4408607 199.728396 20.9684918 199.457142 20.4720975 199.185501 19.9760908 198.980511 19.4490836 198.841009 18.891076 198.701507 18.3330684 198.608506 17.7483229 198.562005 17.1356771 198.515504 16.5234187 198.492254 15.8766724 198.492254 15.1942756 198.492254 14.5281541 198.515504 13.8845078 198.562005 13.2644994 198.608506 12.6448784 198.701507 12.0554829 198.841009 11.4974753 198.980511 10.9394677 199.185501 10.4124605 199.457142 9.91645378 199.728396 9.42044702 200.088776 8.94807809 200.538282 8.49818447 201.173403 7.86267581 201.890288 7.39379443 202.688936 7.09154031 203.487197 6.7892862 204.328083 6.63815914 205.211596 6.63815914 206.095108 6.63815914 206.947619 6.79742381 207.76913 7.11479063 208.590642 7.43293246 209.311014 7.90956395 209.93141 8.5446851 210.411529 9.04107936 210.776171 9.59908696 211.024175 10.2187079 211.271791 10.8391038 211.43493 11.474225 211.512431 12.1252339L208.44339 12.1252339C208.412002 11.768729 208.334888 11.4548497 208.210886 11.183596 208.086497 10.9127298 207.916382 10.6453512 207.699379 10.3814601 207.435488 10.040843 207.083246 9.78508949 206.64149 9.61419966 206.199734 9.44369734 205.723102 9.35844618 205.211596 9.35844618 204.731089 9.35844618 204.269958 9.45144745 203.828202 9.63744998 203.386446 9.82345251 203.002815 10.0947062 202.677311 10.4512111 202.398307 10.7457151 202.180917 11.0871072 202.026302 11.474225 201.8713 11.8617303 201.758924 12.2689983 201.689173 12.6948666 201.619422 13.1215099 201.576409 13.5516408 201.561296 13.9852592 201.545408 14.4192651 201.538046 14.8222706 201.538046 15.1942756 201.538046 15.5662807 201.545408 15.9696737 201.561296 16.4032921 201.576409 16.8376855 201.619422 17.2674289 201.689173 17.6936847 201.758924 18.120328 201.8713 18.5272085 202.026302 18.9143263 202.180917 19.3018316 202.398307 19.6432237 202.677311 19.9373402 203.002815 20.2938451 203.386446 20.5650988 203.828202 20.7511013 204.269958 20.9371038 204.731089 21.0301051 205.211596 21.0301051 205.723102 21.0301051 206.199734 20.9409789 206.64149 20.7627265 207.083246 20.584474 207.435488 20.325233 207.699379 19.9838409 208.132998 19.4572212 208.381389 18.852713 208.44339 18.1703162L211.512431 18.1703162zM223.765387 15.1941981C223.765387 14.8221931 223.757249 14.4191876 223.741749 13.9851817 223.726249 13.5515633 223.679748 13.1214324 223.602247 12.6947891 223.524746 12.2689208 223.40462 11.8616528 223.241867 11.4741475 223.079115 11.0870297 222.858237 10.7460251 222.579233 10.4511336 222.254116 10.0946287 221.858473 9.82337501 221.393855 9.63737248 220.928848 9.45136995 220.455704 9.35836868 219.975585 9.35836868 219.494691 9.35836868 219.022322 9.45136995 218.557316 9.63737248 218.091922 9.82337501 217.697054 10.0946287 217.37155 10.4511336 217.092159 10.7460251 216.871668 11.0870297 216.708916 11.4741475 216.545776 11.8616528 216.426037 12.2689208 216.348148 12.6947891 216.270647 13.1214324 216.224147 13.5515633 216.209034 13.9851817 216.193146 14.4191876 216.185396 14.8221931 216.185396 15.1941981 216.185396 15.5662032 216.193146 15.9695962 216.209034 16.4032146 216.224147 16.837608 216.270647 17.2634763 216.348148 17.681982 216.426037 18.1004877 216.545776 18.5038807 216.708916 18.8909985 216.871668 19.2788913 217.092159 19.6198959 217.37155 19.9140124 217.697054 20.2709048 218.091922 20.541771 218.557316 20.7277735 219.022322 20.913776 219.494691 21.0067773 219.975585 21.0067773 220.455704 21.0067773 220.928848 20.913776 221.393855 20.7277735 221.858473 20.541771 222.254116 20.2709048 222.579233 19.9140124 222.858237 19.6198959 223.079115 19.2788913 223.241867 18.8909985 223.40462 18.5038807 223.524746 18.1004877 223.602247 17.681982 223.679748 17.2634763 223.726249 16.837608 223.741749 16.4032146 223.757249 15.9695962 223.765387 15.5662032 223.765387 15.1941981M226.810791 15.1941981C226.810791 15.8765949 226.787928 16.5194662 226.741427 17.1239744 226.694927 17.7284827 226.593788 18.3097406 226.438786 18.8677482 226.283784 19.4257558 226.070656 19.9531504 225.79979 20.4487697 225.528148 20.945164 225.167769 21.4179204 224.71865 21.867039 224.082754 22.5029352 223.354244 22.971429 222.532733 23.2736832 221.711221 23.5759373 220.859097 23.7270643 219.975585 23.7270643 219.091686 23.7270643 218.239174 23.5759373 217.417663 23.2736832 216.596152 22.971429 215.867642 22.5029352 215.232133 21.867039 214.782627 21.4179204 214.422247 20.945164 214.150993 20.4487697 213.87974 19.9531504 213.666224 19.4257558 213.511997 18.8677482 213.356995 18.3097406 213.256244 17.7284827 213.209743 17.1239744 213.163243 16.5194662 213.139605 15.8765949 213.139605 15.1941981 213.139605 14.5280766 213.163243 13.8848178 213.209743 13.2644219 213.256244 12.6448009 213.356995 12.0554054 213.511997 11.4973978 213.666224 10.9393902 213.87974 10.4127705 214.150993 9.91637628 214.422247 9.42075703 214.782627 8.94800059 215.232133 8.49810696 215.867642 7.86298582 216.596152 7.39371693 217.417663 7.09146281 218.239174 6.7892087 219.091686 6.63808164 219.975585 6.63808164 220.859097 6.63808164 221.711221 6.7892087 222.532733 7.09146281 223.354244 7.39371693 224.082754 7.86298582 224.71865 8.49810696 225.167769 8.94800059 225.528148 9.42075703 225.79979 9.91637628 226.070656 10.4127705 226.283784 10.9393902 226.438786 11.4973978 226.593788 12.0554054 226.694927 12.6448009 226.741427 13.2644219 226.787928 13.8848178 226.810791 14.5280766 226.810791 15.1941981"/>
      <polygon fill="#000" points="243.365 23.425 243.365 11.66 239.087 23.192 236.878 23.192 232.623 11.521 232.623 23.425 229.717 23.425 229.717 6.94 233.763 6.94 238.087 18.682 242.435 6.94 246.271 6.94 246.271 23.425"/>
      <path fill="#000" d="M259.384446 12.2415629C259.384446 11.4510522 259.151555 10.8077934 258.686549 10.3117867 258.22193 9.81577991 257.48567 9.56777653 256.478156 9.56777653L253.10686 9.56777653 253.10686 14.892099 256.478156 14.892099C257.48567 14.892099 258.22193 14.6479707 258.686549 14.1597141 259.151555 13.6714574 259.384446 13.0320737 259.384446 12.2415629M262.406987 12.2183126C262.406987 13.0088234 262.282598 13.7295832 262.034982 14.3805921 261.786591 15.0316009 261.418848 15.5896085 260.930204 16.0546149 260.441948 16.5196212 259.833564 16.8800011 259.105054 17.1357546 258.376544 17.3915081 257.539533 17.5193848 256.594408 17.5193848L253.10686 17.5193848 253.10686 23.4249652 250.13082 23.4249652 250.13082 6.94049076 256.594408 6.94049076C257.539533 6.94049076 258.376544 7.0683675 259.105054 7.32412098 259.833564 7.57987446 260.441948 7.93676682 260.930204 8.39363554 261.418848 8.85089177 261.786591 9.40502431 262.034982 10.0560332 262.282598 10.707042 262.406987 11.4278019 262.406987 12.2183126M277.100722 17.1008791C277.100722 18.0773924 276.964708 18.9725296 276.693841 19.7862907 276.422588 20.6000518 276.015707 21.2975612 275.473587 21.8788192 274.930305 22.4600771 274.256433 22.9134583 273.450422 23.2389627 272.644411 23.5644671 271.706648 23.7272193 270.637134 23.7272193 269.568007 23.7272193 268.629857 23.5644671 267.824233 23.2389627 267.017835 22.9134583 266.343575 22.4600771 265.801456 21.8788192 265.258173 21.2975612 264.85168 20.6000518 264.580426 19.7862907 264.309173 18.9725296 264.173933 18.0773924 264.173933 17.1008791L264.173933 6.94049076 267.172837 6.94049076 267.172837 17.0543785C267.172837 18.2323945 267.452228 19.1856575 268.009848 19.9141674 268.567856 20.6430648 269.44323 21.0069323 270.637134 21.0069323 271.83065 21.0069323 272.706412 20.6430648 273.264807 19.9141674 273.822427 19.1856575 274.101819 18.2323945 274.101819 17.0543785L274.101819 6.94049076 277.100722 6.94049076 277.100722 17.1008791z"/>
      <polygon fill="#000" points="286.587 9.731 286.587 23.425 283.588 23.425 283.588 9.731 278.705 9.731 278.705 6.94 291.47 6.94 291.47 9.731"/>
      <path fill="#000" d="M297.351631,10.6139633 L295.003349,17.5658079 L299.700301,17.5658079 L297.351631,10.6139633 Z M301.699828,23.4248877 L300.630314,20.2628447 L294.073337,20.2628447 L293.003822,23.4248877 L289.981281,23.4248877 L295.770997,6.94041325 L299.049292,6.94041325 L304.838233,23.4248877 L301.699828,23.4248877 Z"/>
      <polygon fill="#000" points="311.232 9.731 311.232 23.425 308.233 23.425 308.233 9.731 303.35 9.731 303.35 6.94 316.115 6.94 316.115 9.731"/>
      <mask id="cdl-2-j" fill="#fff">
        <use xlink:href="#cdl-2-i"/>
      </mask>
      <polygon fill="#000" points="318.184 23.425 321.229 23.425 321.229 6.94 318.184 6.94" mask="url(#cdl-2-j)"/>
      <path fill="#000" d="M334.76143,15.1941981 C334.76143,14.8221931 334.753292,14.4191876 334.737792,13.9851817 C334.722292,13.5515633 334.675791,13.1214324 334.59829,12.6947891 C334.520789,12.2689208 334.400662,11.8616528 334.23791,11.4741475 C334.075158,11.0870297 333.85428,10.7460251 333.575276,10.4511336 C333.250159,10.0946287 332.854516,9.82337501 332.389897,9.63737248 C331.924891,9.45136995 331.451747,9.35836868 330.971628,9.35836868 C330.490734,9.35836868 330.018365,9.45136995 329.553359,9.63737248 C329.087965,9.82337501 328.693097,10.0946287 328.367592,10.4511336 C328.088201,10.7460251 327.867711,11.0870297 327.704958,11.4741475 C327.541819,11.8616528 327.42208,12.2689208 327.344191,12.6947891 C327.26669,13.1214324 327.220189,13.5515633 327.205077,13.9851817 C327.189189,14.4191876 327.181439,14.8221931 327.181439,15.1941981 C327.181439,15.5662032 327.189189,15.9695962 327.205077,16.4032146 C327.220189,16.837608 327.26669,17.2634763 327.344191,17.681982 C327.42208,18.1004877 327.541819,18.5038807 327.704958,18.8909985 C327.867711,19.2788913 328.088201,19.6198959 328.367592,19.9140124 C328.693097,20.2709048 329.087965,20.541771 329.553359,20.7277735 C330.018365,20.913776 330.490734,21.0067773 330.971628,21.0067773 C331.451747,21.0067773 331.924891,20.913776 332.389897,20.7277735 C332.854516,20.541771 333.250159,20.2709048 333.575276,19.9140124 C333.85428,19.6198959 334.075158,19.2788913 334.23791,18.8909985 C334.400662,18.5038807 334.520789,18.1004877 334.59829,17.681982 C334.675791,17.2634763 334.722292,16.837608 334.737792,16.4032146 C334.753292,15.9695962 334.76143,15.5662032 334.76143,15.1941981 M337.806834,15.1941981 C337.806834,15.8765949 337.783971,16.5194662 337.73747,17.1239744 C337.690969,17.7284827 337.589831,18.3097406 337.434828,18.8677482 C337.279826,19.4257558 337.066698,19.9531504 336.795832,20.4487697 C336.524191,20.945164 336.163811,21.4179204 335.714693,21.867039 C335.078796,22.5029352 334.350286,22.971429 333.528775,23.2736832 C332.707264,23.5759373 331.85514,23.7270643 330.971628,23.7270643 C330.087728,23.7270643 329.235217,23.5759373 328.413706,23.2736832 C327.592194,22.971429 326.863685,22.5029352 326.228176,21.867039 C325.77867,21.4179204 325.41829,20.945164 325.147036,20.4487697 C324.875782,19.9531504 324.662267,19.4257558 324.50804,18.8677482 C324.353038,18.3097406 324.252286,17.7284827 324.205786,17.1239744 C324.159285,16.5194662 324.135647,15.8765949 324.135647,15.1941981 C324.135647,14.5280766 324.159285,13.8848178 324.205786,13.2644219 C324.252286,12.6448009 324.353038,12.0554054 324.50804,11.4973978 C324.662267,10.9393902 324.875782,10.4127705 325.147036,9.91637628 C325.41829,9.42075703 325.77867,8.94800059 326.228176,8.49810696 C326.863685,7.86298582 327.592194,7.39371693 328.413706,7.09146281 C329.235217,6.7892087 330.087728,6.63808164 330.971628,6.63808164 C331.85514,6.63808164 332.707264,6.7892087 333.528775,7.09146281 C334.350286,7.39371693 335.078796,7.86298582 335.714693,8.49810696 C336.163811,8.94800059 336.524191,9.42075703 336.795832,9.91637628 C337.066698,10.4127705 337.279826,10.9393902 337.434828,11.4973978 C337.589831,12.0554054 337.690969,12.6448009 337.73747,13.2644219 C337.783971,13.8848178 337.806834,14.5280766 337.806834,15.1941981" mask="url(#cdl-2-j)"/>
      <polygon fill="#000" points="350.804 23.425 343.666 12.102 343.666 23.425 340.713 23.425 340.713 6.94 343.899 6.94 350.943 18.101 350.943 6.94 353.896 6.94 353.896 23.425" mask="url(#cdl-2-j)"/>
      <path fill="#000" d="M363.195753,10.6139633 L360.847471,17.5658079 L365.544422,17.5658079 L363.195753,10.6139633 Z M367.54395,23.4248877 L366.474435,20.2628447 L359.917458,20.2628447 L358.847944,23.4248877 L355.825403,23.4248877 L361.615119,6.94041325 L364.893414,6.94041325 L370.682355,23.4248877 L367.54395,23.4248877 Z" mask="url(#cdl-2-j)"/>
      <polygon fill="#000" points="372.612 23.425 372.612 6.94 375.611 6.94 375.611 20.588 383.261 20.588 383.261 23.425" mask="url(#cdl-2-j)"/>
      <path fill="#000" d="M209.419748,43.0714827 C209.419748,42.6994777 209.41161,42.3042223 209.396498,41.8857166 C209.380997,41.4672109 209.334497,41.0525802 209.256996,40.6418247 C209.179495,40.2310691 209.063243,39.8396887 208.908628,39.4676837 C208.753239,39.0956786 208.528486,38.7624241 208.233982,38.4679201 C207.955365,38.1889163 207.618236,37.9641632 207.222593,37.7936609 C206.827725,37.6231585 206.389457,37.5379074 205.90895,37.5379074 L202.491153,37.5379074 L202.491153,48.6283084 L205.90895,48.6283084 C206.389457,48.6283084 206.827725,48.5434447 207.222593,48.3725549 C207.618236,48.2020526 207.955365,47.9772995 208.233982,47.6982957 C208.528486,47.4041792 208.753239,47.0705372 208.908628,46.6985321 C209.063243,46.3265271 209.179495,45.9351467 209.256996,45.5243911 C209.334497,45.114023 209.380997,44.6951298 209.396498,44.268874 C209.41161,43.8426182 209.419748,43.4434878 209.419748,43.0714827 M212.465539,43.0714827 C212.465539,43.6449905 212.446164,44.2223734 212.407414,44.8036313 C212.368663,45.3848892 212.279924,45.954522 212.140422,46.5125296 C212.000533,47.0705372 211.802905,47.6091695 211.547152,48.1284266 C211.291398,48.6480712 210.954269,49.1247027 210.536151,49.5583211 C209.992868,50.1318289 209.322872,50.5697098 208.524611,50.871964 C207.72635,51.1742181 206.854463,51.3253451 205.90895,51.3253451 L199.49225,51.3253451 L199.49225,34.8408707 L205.90895,34.8408707 C206.854463,34.8408707 207.72635,34.9919977 208.524611,35.2942518 C209.322872,35.596506 209.992868,36.0343869 210.536151,36.6078947 C210.954269,37.0419006 211.291398,37.5146571 211.547152,38.026164 C211.802905,38.537671 212.000533,39.0724283 212.140422,39.6304359 C212.279924,40.1884435 212.368663,40.7580762 212.407414,41.3393341 C212.446164,41.9205921 212.465539,42.4983624 212.465539,43.0714827" mask="url(#cdl-2-j)"/>
      <polygon fill="#000" points="215.395 51.325 215.395 34.841 227.136 34.841 227.136 37.561 218.394 37.561 218.394 41.397 226.09 41.397 226.09 44.094 218.394 44.094 218.394 48.605 227.136 48.605 227.136 51.325" mask="url(#cdl-2-j)"/>
      <path fill="#000" d="M241.877461,46.4194121 C241.877461,47.1948101 241.749584,47.8609317 241.493831,48.4189393 C241.238077,48.9769469 240.90831,49.4574534 240.505692,49.8604589 C239.869796,50.4963551 239.098661,50.9497363 238.191898,51.2206024 C237.285136,51.4914686 236.320248,51.627483 235.297621,51.627483 C234.413722,51.627483 233.541835,51.4996062 232.681961,51.2438528 C231.821699,50.9880993 231.050564,50.5506058 230.368554,49.9302099 C229.87216,49.4807038 229.461792,48.9269587 229.1359,48.2678122 C228.810396,47.6090533 228.647643,46.8844184 228.647643,46.0939076 L231.716685,46.0939076 C231.716685,46.4973006 231.798061,46.8727932 231.960814,47.221548 C232.123566,47.5703027 232.328944,47.8690693 232.577334,48.1166852 C232.933452,48.4735775 233.363583,48.7095683 233.867339,48.8258198 C234.371096,48.9420714 234.863228,49.0001972 235.344122,49.0001972 C235.917242,49.0001972 236.460137,48.9343213 236.971644,48.8025695 C237.482764,48.6712052 237.893519,48.4421896 238.203911,48.1166852 C238.389914,47.9155699 238.544528,47.702442 238.668917,47.4773015 C238.792532,47.2529359 238.854532,46.9390566 238.854532,46.5356637 C238.854532,45.9311554 238.656905,45.4777743 238.262037,45.1755201 C237.866394,44.873266 237.413013,44.6756383 236.901506,44.5826371 C236.343886,44.4745231 235.73124,44.3966345 235.065118,44.3501339 C234.398222,44.3036333 233.794101,44.2338823 233.251206,44.140881 C232.677698,44.0478798 232.139066,43.8851276 231.635309,43.6526244 C231.13194,43.4201212 230.689796,43.1143796 230.310041,42.7342369 C229.930286,42.3544817 229.628032,41.8972255 229.403666,41.3624682 C229.178526,40.8277109 229.066149,40.2197152 229.066149,39.5373184 C229.066149,38.8863095 229.197901,38.2899389 229.461792,37.747044 C229.725296,37.2049241 230.073663,36.7162799 230.507669,36.282274 C231.050564,35.7397667 231.747686,35.3138984 232.600585,35.0035066 C233.452709,34.6935024 234.367221,34.5385003 235.344122,34.5385003 C236.227634,34.5385003 237.075883,34.6745146 237.890032,34.9453808 C238.703793,35.2166345 239.38929,35.6161525 239.947685,36.1427721 C240.443304,36.6077785 240.842434,37.1351732 241.144689,37.7237937 C241.44733,38.3131892 241.60582,38.9560604 241.621708,39.6535699 L238.552666,39.6535699 C238.536778,39.3594534 238.462765,39.0688245 238.331788,38.7816831 C238.199648,38.4949292 238.033021,38.2434382 237.831906,38.0260478 C237.568015,37.747044 237.19601,37.5304285 236.715891,37.3750389 C236.234997,37.2204243 235.76999,37.1425358 235.320484,37.1425358 C234.855865,37.1425358 234.378846,37.2049241 233.890977,37.3285383 C233.402721,37.4529275 232.987702,37.6927932 232.647085,38.0492981 C232.476196,38.2353006 232.340956,38.4368034 232.240205,38.6538063 C232.139066,38.8711968 232.08869,39.1347004 232.08869,39.4443171 C232.08869,39.987212 232.243692,40.4018426 232.553697,40.688209 C232.863701,40.9753504 233.266706,41.1570904 233.763101,41.2345915 C234.28972,41.31248 234.882603,41.382231 235.541362,41.4438443 C236.200509,41.5058452 236.800754,41.5755961 237.343649,41.6530972 C237.96327,41.7460984 238.548403,41.9131132 239.098661,42.152979 C239.648918,42.3936198 240.129425,42.7109866 240.540568,43.106242 C240.950936,43.5014973 241.27644,43.9781288 241.516694,44.5361364 C241.756947,45.094144 241.877461,45.7219026 241.877461,46.4194121" mask="url(#cdl-2-j)"/>
      <polygon fill="#000" points="244.574 51.325 247.619 51.325 247.619 34.841 244.574 34.841" mask="url(#cdl-2-j)"/>
      <path fill="#000" d="M262.058,51.3252676 L261.709245,49.5117429 C261.584856,49.7442461 261.398853,49.9883744 261.151237,50.2441279 C260.903234,50.4998814 260.596717,50.7285095 260.23285,50.9300122 C259.868595,51.131515 259.461714,51.2985298 259.012208,51.429894 C258.562314,51.5612583 258.081808,51.6275217 257.570688,51.6275217 C256.609288,51.6275217 255.714151,51.4953824 254.884889,51.2322664 C254.056016,50.9687628 253.315493,50.4882562 252.664872,49.7907467 C252.230866,49.3412406 251.877848,48.8688717 251.606595,48.3724774 C251.335341,47.8764707 251.118726,47.3494635 250.955973,46.7914559 C250.793221,46.2334483 250.680457,45.6487028 250.618456,45.036057 C250.556455,44.4237986 250.525455,43.7770523 250.525455,43.0946556 C250.525455,42.428534 250.552968,41.7891503 250.607219,41.1765044 C250.661469,40.5642461 250.765708,39.9872507 250.921098,39.4443558 C251.075713,38.9018485 251.293103,38.3829789 251.571719,37.8865846 C251.851111,37.3909654 252.214978,36.9182089 252.664872,36.4683153 C253.299993,35.8331942 254.056016,35.3523001 254.93139,35.0267957 C255.807152,34.7012913 256.687176,34.538539 257.570688,34.538539 C258.593702,34.538539 259.523715,34.7094289 260.360726,35.050046 C261.19735,35.3910507 261.895247,35.8486944 262.453255,36.4218147 C262.85626,36.8403204 263.196878,37.3169519 263.476269,37.8517092 C263.755273,38.3864664 263.918025,39.0181 263.964526,39.74661 L260.895484,39.74661 C260.864096,39.4211055 260.779232,39.1421017 260.63973,38.9095986 C260.499841,38.6770954 260.344839,38.4527298 260.174724,38.2353394 C259.600829,37.5688303 258.725067,37.2355758 257.547051,37.2355758 C257.066544,37.2355758 256.578287,37.3324521 256.082668,37.5262047 C255.586274,37.7203449 255.175518,37.9950861 254.850014,38.351591 C254.571398,38.646095 254.346645,38.9874871 254.176142,39.3746049 C254.005252,39.7621102 253.873888,40.1689907 253.780887,40.5952465 C253.687498,41.0218898 253.62976,41.4520207 253.606122,41.8856391 C253.583259,42.319645 253.571634,42.7226505 253.571634,43.0946556 C253.571634,43.4666606 253.586747,43.8735412 253.618135,44.3152972 C253.649135,44.7570532 253.711136,45.1953217 253.804137,45.6289401 C253.896751,46.062946 254.028503,46.4775766 254.199393,46.872832 C254.369507,47.2680874 254.59426,47.6129671 254.873652,47.9074711 C255.199156,48.2643634 255.606037,48.5274795 256.093906,48.6979818 C256.58255,48.8688717 257.066544,48.9537353 257.547051,48.9537353 C258.089946,48.9537353 258.56619,48.8688717 258.977333,48.6979818 C259.387701,48.5274795 259.732968,48.2949764 260.011972,48.0004724 C260.461478,47.535466 260.752107,47.0437218 260.883859,46.5240772 C261.01561,46.0052077 261.081099,45.4278248 261.081099,44.7919287 L257.152183,44.7919287 L257.152183,42.3041448 L263.987388,42.3041448 L263.987388,51.3252676 L262.058,51.3252676 Z" mask="url(#cdl-2-j)"/>
      <polygon fill="#000" points="277.473 51.325 270.335 40.002 270.335 51.325 267.382 51.325 267.382 34.841 270.568 34.841 277.612 46.001 277.612 34.841 280.565 34.841 280.565 51.325" mask="url(#cdl-2-j)"/>
      <polygon fill="#000" points="289.284 51.325 289.284 34.841 292.283 34.841 292.283 48.489 299.932 48.489 299.932 51.325" mask="url(#cdl-2-j)"/>
      <path fill="#000" d="M307.511555 38.5143432L305.163273 45.4661878 309.860224 45.4661878 307.511555 38.5143432zM311.859751 51.3252676L310.790237 48.1632246 304.23326 48.1632246 303.163746 51.3252676 300.141204 51.3252676 305.930921 34.8407932 309.209215 34.8407932 314.998157 51.3252676 311.859751 51.3252676zM326.50687 46.4659515C326.50687 45.5824394 326.235616 44.9628185 325.692721 44.6059261 325.150214 44.2494213 324.484092 44.0711688 323.693581 44.0711688L319.90378 44.0711688 319.90378 48.6514812 323.60058 48.6514812C323.941197 48.6514812 324.286464 48.6166057 324.635219 48.5468548 324.983586 48.4771038 325.297853 48.3573647 325.576857 48.1864749 325.855473 48.0159726 326.080226 47.7912195 326.251116 47.5122157 326.421231 47.2332119 326.50687 46.8844572 326.50687 46.4659515M326.158115 39.5141068C326.158115 39.126989 326.088364 38.797222 325.948862 38.5259683 325.80936 38.2551022 325.623358 38.0377117 325.390854 37.8749595 325.158351 37.7122073 324.88671 37.5959557 324.577093 37.5262047 324.266702 37.4564538 323.941197 37.4215783 323.60058 37.4215783L319.90378 37.4215783 319.90378 41.5601347 323.670331 41.5601347C324.011336 41.5601347 324.332965 41.5252592 324.635219 41.4555082 324.937473 41.3857573 325.200977 41.2737683 325.42573 41.1183786 325.650095 40.963764 325.828348 40.7545112 325.960487 40.4906201 326.091851 40.2271165 326.158115 39.9019996 326.158115 39.5141068M329.552274 46.5357024C329.552274 47.2797125 329.420909 47.9694719 329.157406 48.6049806 328.893515 49.2408767 328.467646 49.7833841 327.878638 50.2325027 327.227242 50.7285095 326.53012 51.0385137 325.78611 51.1625154 325.0421 51.2865171 324.274839 51.3485179 323.484328 51.3485179L316.927739 51.3485179 316.927739 34.8407932 323.484328 34.8407932C324.15045 34.8407932 324.813084 34.902794 325.472231 35.0267957 326.130602 35.1511849 326.739373 35.3910507 327.29738 35.7475555 327.901889 36.1509485 328.37077 36.6698181 328.704025 37.3053267 329.036892 37.9408354 329.203906 38.6154821 329.203906 39.3281043 329.203906 39.6691089 329.164768 40.0105011 329.087655 40.3511182 329.009766 40.6925103 328.886152 41.0218898 328.71565 41.3392566 328.54476 41.657011 328.33202 41.9437649 328.076266 42.1995184 327.820513 42.4552718 327.521746 42.6610371 327.181129 42.8156518 327.97164 43.1721566 328.564523 43.6875386 328.959778 44.3617978 329.355033 45.036057 329.552274 45.7606919 329.552274 46.5357024M206.76925 81.7062238C206.748325 82.2231558 206.642924 82.6931997 206.451884 83.116743 206.260456 83.5406738 206.004315 83.9177164 205.684236 84.2482584 205.353694 84.5791879 204.929763 84.8581917 204.413218 85.0852698 203.896674 85.3123479 203.338279 85.4262745 202.739583 85.4262745 202.181188 85.4262745 201.643718 85.3278481 201.127174 85.1317705 200.610242 84.9356928 200.156085 84.6411888 199.763155 84.2482584 199.463226 83.9591795 199.222973 83.6414252 199.042783 83.2949954 198.861818 82.9489532 198.721928 82.5846983 198.62389 82.2022306 198.525851 81.8201504 198.461525 81.4194699 198.430137 81.0009642 198.399137 80.5824585 198.383636 80.1562027 198.383636 79.7221968 198.383636 79.2881909 198.399137 78.8619351 198.430137 78.4434294 198.461525 78.0249237 198.525851 77.6246307 198.62389 77.242163 198.721928 76.8600828 198.861818 76.4958279 199.042783 76.1493981 199.222973 75.8033559 199.463226 75.4856016 199.763155 75.1961352 200.156085 74.8035923 200.610242 74.5090883 201.127174 74.3126231 201.643718 74.1165455 202.181188 74.0181191 202.739583 74.0181191 203.338279 74.0181191 203.893961 74.1242956 204.405468 74.3358734 204.917363 74.5478388 205.338193 74.8190925 205.668736 75.1496345 205.988815 75.480564 206.244568 75.8525691 206.436383 76.2656497 206.627424 76.6791179 206.732825 77.1441242 206.75375 77.6606687L205.327731 77.6606687C205.317268 77.3611271 205.258367 77.0821233 205.149478 76.8236573 205.040977 76.5655788 204.89915 76.3330756 204.72361 76.1261478 204.50622 75.8886071 204.227216 75.6948545 203.886599 75.5448899 203.545594 75.3953129 203.162739 75.3201369 202.739583 75.3201369 202.367578 75.3201369 202.007973 75.3926003 201.661931 75.5371398 201.315889 75.6820668 201.008597 75.8886071 200.739668 76.1571482 200.51259 76.3950765 200.336663 76.6585801 200.212661 76.947659 200.08866 77.2371255 199.996046 77.5393796 199.933657 77.8544214 199.871657 78.1698507 199.835231 78.487605 199.825156 78.8076843 199.815081 79.1281512 199.809656 79.4331179 199.809656 79.7221968 199.809656 80.0116632 199.815081 80.3166299 199.825156 80.6367092 199.835231 80.9571761 199.871657 81.2749304 199.933657 81.5899722 199.996046 81.9054015 200.08866 82.2099807 200.212661 82.5044847 200.336663 82.7989887 200.51259 83.0601672 200.739668 83.2872453 201.008597 83.556174 201.315889 83.7627143 201.661931 83.9072538 202.007973 84.0521808 202.367578 84.1242567 202.739583 84.1242567 203.162739 84.1242567 203.547919 84.0444306 203.893961 83.8840035 204.240391 83.7239638 204.52172 83.5251736 204.738723 83.2872453 204.914263 83.080705 205.056477 82.8404518 205.164979 82.5664855 205.273868 82.2929068 205.332768 82.0061529 205.343231 81.7062238L206.76925 81.7062238zM216.456882 79.722158C216.456882 79.4330791 216.449132 79.1281125 216.433632 78.8076456 216.418132 78.4875662 216.379381 78.1698119 216.31738 77.8543826 216.25538 77.5393408 216.162378 77.2370867 216.038377 76.9476203 215.914375 76.6585413 215.738448 76.3950377 215.51137 76.1571095 215.242441 75.8885683 214.935149 75.6843531 214.589107 75.5448512 214.242677 75.4053493 213.883847 75.3355983 213.511842 75.3355983 213.139837 75.3355983 212.78062 75.4053493 212.434578 75.5448512 212.088535 75.6843531 211.781244 75.8885683 211.512315 76.1571095 211.284849 76.3950377 211.10931 76.6585413 210.985308 76.9476203 210.861306 77.2370867 210.768305 77.5393408 210.706304 77.8543826 210.644303 78.1698119 210.605553 78.4875662 210.590053 78.8076456 210.574552 79.1281125 210.566802 79.4330791 210.566802 79.722158 210.566802 80.0116245 210.574552 80.3165911 210.590053 80.6366705 210.605553 80.9571374 210.644303 81.2748917 210.706304 81.5899335 210.768305 81.9053628 210.861306 82.2099419 210.985308 82.5044459 211.10931 82.7989499 211.284849 83.0601285 211.512315 83.2872066 211.781244 83.5561352 212.088535 83.759963 212.434578 83.8994649 212.78062 84.0389668 213.139837 84.1087178 213.511842 84.1087178 213.883847 84.1087178 214.242677 84.0389668 214.589107 83.8994649 214.935149 83.759963 215.242441 83.5561352 215.51137 83.2872066 215.738448 83.0601285 215.914375 82.7989499 216.038377 82.5044459 216.162378 82.2099419 216.25538 81.9053628 216.31738 81.5899335 216.379381 81.2748917 216.418132 80.9571374 216.433632 80.6366705 216.449132 80.3165911 216.456882 80.0116245 216.456882 79.722158M217.882902 79.722158C217.882902 80.156164 217.864689 80.5824198 217.828651 81.0009255 217.792226 81.4194312 217.725187 81.8201116 217.627148 82.2021918 217.529109 82.5846595 217.386895 82.9489145 217.200893 83.2949567 217.01489 83.6413864 216.771924 83.9591407 216.472383 84.2482197 216.079452 84.64115 215.627621 84.935654 215.116114 85.1317317 214.604607 85.3278094 214.06985 85.4262357 213.511842 85.4262357 212.953835 85.4262357 212.419077 85.3278094 211.90757 85.1317317 211.396063 84.935654 210.943845 84.64115 210.551302 84.2482197 210.251373 83.9591407 210.008795 83.6413864 209.822792 83.2949567 209.63679 82.9489145 209.494575 82.5846595 209.396536 82.2021918 209.29811 81.8201116 209.231459 81.4194312 209.195034 81.0009255 209.158608 80.5824198 209.140783 80.156164 209.140783 79.722158 209.140783 79.2881521 209.158608 78.8618963 209.195034 78.4433906 209.231459 78.0248849 209.29811 77.624592 209.396536 77.2421243 209.494575 76.8600441 209.63679 76.4957891 209.822792 76.1493594 210.008795 75.8033172 210.251373 75.4855629 210.551302 75.1960964 210.943845 74.8035536 211.396063 74.5090496 211.90757 74.3125844 212.419077 74.1165067 212.953835 74.0180804 213.511842 74.0180804 214.06985 74.0180804 214.604607 74.1165067 215.116114 74.3125844 215.627621 74.5090496 216.079452 74.8035536 216.472383 75.1960964 216.771924 75.4855629 217.01489 75.8033172 217.200893 76.1493594 217.386895 76.4957891 217.529109 76.8600441 217.627148 77.2421243 217.725187 77.624592 217.792226 78.0248849 217.828651 78.4433906 217.864689 78.8618963 217.882902 79.2881521 217.882902 79.722158" mask="url(#cdl-2-j)"/>
      <polygon fill="#000" points="221.184 85.209 221.184 74.22 222.564 74.22 222.564 83.923 227.849 83.923 227.849 85.209" mask="url(#cdl-2-j)"/>
      <path fill="#000" d="M237.800324,81.1792554 C237.800324,81.8612647 237.707323,82.4657729 237.52132,82.9927801 C237.335318,83.5197873 237.066389,83.9615433 236.715309,84.3180481 C236.363842,84.674553 235.942624,84.9458067 235.452042,85.1318092 C234.961073,85.3178117 234.405778,85.410813 233.78577,85.410813 C233.165761,85.410813 232.610079,85.3178117 232.119497,85.1318092 C231.628528,84.9458067 231.207309,84.674553 230.85623,84.3180481 C230.504762,83.9615433 230.236221,83.5197873 230.050219,82.9927801 C229.864604,82.4657729 229.771215,81.8612647 229.771215,81.1792554 L229.771215,74.2196606 L231.150734,74.2196606 L231.150734,81.2102558 C231.150734,81.6442617 231.199947,82.0422296 231.297986,82.4037721 C231.396412,82.765702 231.548314,83.0729937 231.755242,83.3260346 C231.96217,83.5794631 232.233036,83.7755407 232.569003,83.9150426 C232.904583,84.0545445 233.310301,84.1242955 233.78577,84.1242955 C234.260851,84.1242955 234.666569,84.0545445 235.002536,83.9150426 C235.338116,83.7755407 235.609757,83.5794631 235.816297,83.3260346 C236.022838,83.0729937 236.175515,82.765702 236.273941,82.4037721 C236.371592,82.0422296 236.420805,81.6442617 236.420805,81.2102558 L236.420805,74.2196606 L237.800324,74.2196606 L237.800324,81.1792554 Z" mask="url(#cdl-2-j)"/>
      <polygon fill="#000" points="250.743 85.209 250.743 75.94 247.333 85.054 246.248 85.054 242.838 75.863 242.838 85.209 241.52 85.209 241.52 74.22 243.504 74.22 246.821 83.163 250.123 74.22 252.06 74.22 252.06 85.209" mask="url(#cdl-2-j)"/>
      <path fill="#000" d="M262.708892,82.0471897 C262.708892,81.7371855 262.652316,81.4636068 262.53839,81.2256785 C262.424851,80.9881378 262.269461,80.786635 262.073384,80.6211703 C261.877306,80.456093 261.647128,80.3293788 261.383624,80.2414151 C261.120121,80.1538389 260.843829,80.1096633 260.553975,80.1096633 L257.43882,80.1096633 L257.43882,83.9382154 L260.523362,83.9382154 C260.822904,83.9382154 261.106945,83.9021775 261.375874,83.829714 C261.644415,83.757638 261.877306,83.6437114 262.073384,83.4887093 C262.269461,83.3337072 262.424851,83.1376295 262.53839,82.8997013 C262.652316,82.6621606 262.708892,82.3781192 262.708892,82.0471897 M262.460889,77.1646232 C262.460889,76.8755443 262.406638,76.6248284 262.297749,76.412863 C262.189635,76.2012851 262.044708,76.0230327 261.864131,75.8781057 C261.683553,75.7335662 261.471588,75.6250648 261.228622,75.5526013 C260.985656,75.4805253 260.73494,75.4440998 260.476862,75.4440998 L257.43882,75.4440998 L257.43882,78.9006469 L260.523362,78.9006469 C261.102295,78.9006469 261.569627,78.76657 261.925744,78.4976414 C262.282636,78.2291002 262.460889,77.7846317 262.460889,77.1646232 M264.119411,82.140191 C264.119411,82.5846595 264.039198,82.9748773 263.879158,83.3104569 C263.718731,83.646424 263.519941,83.9436405 263.282012,84.201719 C262.972396,84.5326485 262.571715,84.782977 262.081134,84.9534793 C261.590164,85.1239816 261.070907,85.2092328 260.523362,85.2092328 L256.090302,85.2092328 L256.090302,74.2195831 L260.476862,74.2195831 C260.993406,74.2195831 261.494451,74.3048343 261.980382,74.4753366 C262.465926,74.6458389 262.858469,74.8965548 263.158398,75.2270968 C263.375401,75.4650251 263.548229,75.7308537 263.677655,76.0253577 C263.806695,76.3198617 263.871408,76.6635789 263.871408,77.0561217 C263.871408,77.5831289 263.736944,78.0740981 263.468403,78.5286418 C263.199861,78.983573 262.806931,79.3036523 262.290386,79.4896549 C262.56939,79.5826561 262.822431,79.719833 263.049897,79.9004105 C263.276975,80.0813754 263.470728,80.2879157 263.631155,80.5204189 C263.791194,80.7529221 263.912484,81.0086756 263.99541,81.2876794 C264.077948,81.5666832 264.119411,81.851112 264.119411,82.140191" mask="url(#cdl-2-j)"/>
      <polygon fill="#000" points="267.374 85.209 268.785 85.209 268.785 74.22 267.374 74.22" mask="url(#cdl-2-j)"/>
      <path fill="#000" d="M276.039229 75.5992182L274.101702 81.3032958 277.992255 81.3032958 276.039229 75.5992182zM279.340774 85.209349L278.441374 82.6053136 273.667696 82.6053136 272.784184 85.209349 271.389165 85.209349 275.264218 74.2196994 276.87624 74.2196994 280.766406 85.209349 279.340774 85.209349zM295.584414 81.1792554C295.584414 81.8612647 295.491412 82.4657729 295.30541 82.9927801 295.119407 83.5197873 294.850479 83.9615433 294.499399 84.3180481 294.147932 84.674553 293.726713 84.9458067 293.236132 85.1318092 292.745162 85.3178117 292.189867 85.410813 291.569859 85.410813 290.94985 85.410813 290.394168 85.3178117 289.903586 85.1318092 289.412617 84.9458067 288.991399 84.674553 288.640319 84.3180481 288.288852 83.9615433 288.020311 83.5197873 287.834308 82.9927801 287.648693 82.4657729 287.555304 81.8612647 287.555304 81.1792554L287.555304 74.2196606 288.934823 74.2196606 288.934823 81.2102558C288.934823 81.6442617 288.984036 82.0422296 289.082075 82.4037721 289.180501 82.765702 289.332403 83.0729937 289.539331 83.3260346 289.746259 83.5794631 290.017125 83.7755407 290.353092 83.9150426 290.688672 84.0545445 291.09439 84.1242955 291.569859 84.1242955 292.04494 84.1242955 292.450658 84.0545445 292.786625 83.9150426 293.122205 83.7755407 293.393846 83.5794631 293.600387 83.3260346 293.806927 83.0729937 293.959604 82.765702 294.05803 82.4037721 294.155682 82.0422296 294.204895 81.6442617 294.204895 81.2102558L294.204895 74.2196606 295.584414 74.2196606 295.584414 81.1792554z" mask="url(#cdl-2-j)"/>
      <polygon fill="#000" points="306.032 85.209 300.637 76.374 300.637 85.209 299.304 85.209 299.304 74.22 300.854 74.22 306.249 83.086 306.249 74.22 307.582 74.22 307.582 85.209" mask="url(#cdl-2-j)"/>
      <polygon fill="#000" points="311.611 85.209 313.022 85.209 313.022 74.22 311.611 74.22" mask="url(#cdl-2-j)"/>
      <polygon fill="#000" points="320.71 85.209 319.268 85.209 315.564 74.22 316.99 74.22 320.028 83.504 323.004 74.22 324.415 74.22" mask="url(#cdl-2-j)"/>
      <polygon fill="#000" points="326.956 85.209 326.956 74.22 334.304 74.22 334.304 75.491 328.336 75.491 328.336 78.839 333.575 78.839 333.575 80.141 328.336 80.141 328.336 83.938 334.304 83.938 334.304 85.209" mask="url(#cdl-2-j)"/>
      <path fill="#000" d="M344.114916 77.4281656C344.114916 76.7360811 343.905663 76.2400744 343.487157 75.9401453 343.068651 75.6406037 342.533894 75.4906392 341.882885 75.4906392L338.953345 75.4906392 338.953345 79.3501917 341.882885 79.3501917C342.202965 79.3501917 342.500181 79.3168663 342.774147 79.2494404 343.047726 79.1824019 343.285654 79.0711879 343.487157 78.9161858 343.68866 78.7611837 343.843662 78.5623935 343.952163 78.3194277 344.060665 78.0768494 344.114916 77.7796328 344.114916 77.4281656L344.114916 77.4281656zM344.068415 85.2092715L341.991774 80.6367092 338.953345 80.6367092 338.953345 85.2092715 337.573827 85.2092715 337.573827 74.2196219 341.882885 74.2196219C342.533894 74.2196219 343.086864 74.304873 343.541795 74.4753753 343.995952 74.6458777 344.372994 74.8861309 344.672923 75.1961352 344.941464 75.475139 345.15343 75.7956058 345.308432 76.1571482 345.463434 76.5190782 345.540935 76.9426214 345.540935 77.4281656 345.540935 77.9140972 345.468472 78.3271778 345.323932 78.6681824 345.179005 79.0091871 344.972465 79.3191913 344.704311 79.5981951 344.538459 79.7741225 344.344706 79.9264121 344.123053 80.0554513 343.900238 80.1848781 343.654947 80.290667 343.386406 80.3732057L345.587436 85.2092715 344.068415 85.2092715zM356.282736 82.1868079C356.282736 82.6518142 356.194385 83.0548197 356.018845 83.3958243 355.843305 83.736829 355.621265 84.0417956 355.352724 84.3103368 354.969868 84.6823418 354.502537 84.9586331 353.949567 85.1395981 353.396985 85.3201755 352.826189 85.4108518 352.237181 85.4108518 350.903776 85.4108518 349.855186 85.059772 349.090251 84.3568374 348.739171 84.0262954 348.45513 83.6360776 348.237739 83.1865715 348.021124 82.7370653 347.912235 82.2488087 347.912235 81.7218015L349.353754 81.7218015C349.353754 82.0523435 349.426218 82.3704854 349.571145 82.6750645 349.715684 82.9800312 349.901687 83.2408222 350.128765 83.4578252 350.377156 83.6957534 350.69181 83.8685808 351.074665 83.9770822 351.456746 84.0855837 351.844251 84.1398344 352.237181 84.1398344 352.660337 84.1398344 353.045517 84.0933338 353.391947 84.0003325 353.737989 83.9073313 354.034818 83.742254 354.283209 83.5043258 354.458749 83.3493237 354.595538 83.1710713 354.693577 82.9695685 354.791616 82.7680658 354.840829 82.5177374 354.840829 82.2178083 354.840829 81.7838024 354.69629 81.4067597 354.406823 81.0862929 354.117744 80.765826 353.647313 80.5542481 352.996692 80.4507842 352.696763 80.399246 352.407684 80.3550704 352.128292 80.3190324 351.849676 80.2829944 351.559822 80.2392063 351.260668 80.1872806 350.8472 80.1252798 350.46202 80.0222034 350.105902 79.8772764 349.749397 79.7327369 349.439393 79.5389843 349.175502 79.2960185 348.911998 79.0534402 348.705458 78.7639737 348.555881 78.4280067 348.405917 78.0924271 348.330741 77.7072469 348.330741 77.2732409 348.330741 76.8597728 348.415992 76.4645174 348.586882 76.0874748 348.757384 75.7104322 348.992212 75.3822152 349.292141 75.1032114 350.067152 74.3801266 351.027777 74.0181966 352.174793 74.0181966 352.712263 74.0181966 353.23152 74.1057728 353.732952 74.2817002 354.233996 74.4576276 354.665289 74.7207437 355.027219 75.072211 355.698766 75.7127572 356.049846 76.4982304 356.080846 77.4282431L354.639714 77.4282431C354.618789 77.1597019 354.562213 76.906661 354.468824 76.6687327 354.37621 76.4308045 354.252209 76.2246517 354.096819 76.0487243 353.890279 75.8111835 353.62445 75.625181 353.298946 75.4907167 352.973441 75.3566398 352.593299 75.2892139 352.159293 75.2892139 351.76675 75.2892139 351.402495 75.3488897 351.066915 75.4674664 350.730948 75.5864305 350.444194 75.7801831 350.206266 76.0487243 350.061727 76.214189 349.950513 76.3924415 349.873399 76.5834816 349.795898 76.7749092 349.75676 76.9942371 349.75676 77.2422405 349.75676 77.4902439 349.803261 77.7049218 349.896649 77.8854993 349.989651 78.0664642 350.113652 78.2187538 350.268267 78.3427555 350.423657 78.4667572 350.599196 78.564796 350.795662 78.6372595 350.991739 78.709723 351.193242 78.7612612 351.399782 78.7922616 351.709787 78.8337247 352.017466 78.8775128 352.322045 78.9240134 352.626624 78.9705141 352.929266 79.0197272 353.228807 79.0712654 354.148745 79.2057298 354.88733 79.5389843 355.445725 80.071029 356.003345 80.6034613 356.282736 81.3083334 356.282736 82.1868079" mask="url(#cdl-2-j)"/>
      <polygon fill="#000" points="359.537 85.209 360.948 85.209 360.948 74.22 359.537 74.22" mask="url(#cdl-2-j)"/>
      <polygon fill="#000" points="368.295 75.506 368.295 85.209 366.9 85.209 366.9 75.506 363.629 75.506 363.629 74.22 371.565 74.22 371.565 75.506" mask="url(#cdl-2-j)"/>
      <polygon fill="#000" points="377.781 80.745 377.781 85.209 376.386 85.209 376.386 80.745 372.697 74.22 374.247 74.22 377.13 79.443 379.997 74.22 381.47 74.22" mask="url(#cdl-2-j)"/>
    </g>
  </g>
</svg>
