<svg xmlns="http://www.w3.org/2000/svg" viewBox="0 0 582.21 110.48"><title>Asset 4</title><g id="Layer_2" data-name="Layer 2"><g id="Layer_1-2" data-name="Layer 1"><polygon points="121.01 44.05 121.01 28.06 136.05 28.06 136.05 15.99 121.01 15.99 121.01 0 108.67 0 108.67 15.99 93.63 15.99 93.63 28.06 108.67 28.06 108.67 44.05 121.01 44.05" fill="#fc1a57"/><path d="M45.3,100.35c22.14,0,35.49-12.67,40.22-32.28L82,65.87C75.55,74.15,67.44,77.7,56.79,77.7c-14.87,0-25.35-11.83-25.35-30.42H85V43.05C85,20.91,72.17,5.2,46.82,5.2,21.8,5.2,0,24.12,0,54.72,0,84.29,20.11,100.35,45.3,100.35ZM55.44,39H31.61c.67-15.89,4.56-26.37,13-26.37C52.73,12.63,55.44,22.27,55.44,39Z" fill="#fc1a57"/><path d="M163.1,88.14V15.82h51.51V27.76H176.25V44.59H210V56.42H176.25V76.21h38.36V88.14Z" fill="#fc1a57"/><path d="M255.2,88.14l-.92-6.94a13.76,13.76,0,0,1-6,6.07,19.13,19.13,0,0,1-9.18,2.2,20,20,0,0,1-7.65-1.38,16.54,16.54,0,0,1-5.77-3.88,16.85,16.85,0,0,1-3.67-6,22.36,22.36,0,0,1-1.27-7.76V35.1h12.75V67.64a11.92,11.92,0,0,0,2,7.39q2,2.72,7.14,2.71a8.7,8.7,0,0,0,3.82-.77,9.88,9.88,0,0,0,2.7-1.89,10.21,10.21,0,0,0,3.11-5.4,28.55,28.55,0,0,0,.77-6.53v-28h12.75v53Z" fill="#fc1a57"/><path d="M296.41,88c-1.29.27-2.23.46-2.8.56a18.52,18.52,0,0,1-2.81.15q-6.53,0-10.51-3.36c-2.65-2.25-4-5.88-4-10.92V14.4h12.85V72.33a6.52,6.52,0,0,0,.92,3.72c.61.92,2,1.38,4.18,1.38a11.79,11.79,0,0,0,1.22-.05,8.36,8.36,0,0,1,.92,0Z" fill="#fc1a57"/><path d="M346.69,62a10.85,10.85,0,0,0-.1,1.33V65.6H311.1a17.24,17.24,0,0,0,1,5.81A11.32,11.32,0,0,0,315,76a14.61,14.61,0,0,0,3.32,2.3,9.91,9.91,0,0,0,4.54,1,15.59,15.59,0,0,0,4.54-.56,7.89,7.89,0,0,0,3.21-2,9.93,9.93,0,0,0,2.55-4.49h12.24a14.82,14.82,0,0,1-1.58,5.15A23.22,23.22,0,0,1,340.88,82a19,19,0,0,1-8.06,5.71A27.93,27.93,0,0,1,323,89.47a23.44,23.44,0,0,1-9.54-1.79,24.28,24.28,0,0,1-13.26-14,32.93,32.93,0,0,1-2.09-11.94A36.09,36.09,0,0,1,300,49.84a24.16,24.16,0,0,1,5.76-9.33,22,22,0,0,1,7.19-4.9,24.4,24.4,0,0,1,9.75-1.84,25.53,25.53,0,0,1,11,2.4,20.16,20.16,0,0,1,8.37,7.4,23.43,23.43,0,0,1,3.77,8.92A54.31,54.31,0,0,1,346.69,62Zm-12.75-5.71A13.6,13.6,0,0,0,330.68,47a9.32,9.32,0,0,0-3.31-2.24,12.59,12.59,0,0,0-4.75-.81,11.47,11.47,0,0,0-5.2,1.12,10.44,10.44,0,0,0-3.67,3,11,11,0,0,0-2,3.67,17.53,17.53,0,0,0-.72,4.59Z" fill="#fc1a57"/><path d="M384.43,46.93a20.63,20.63,0,0,0-4.38-.51q-6.74,0-10.2,4.29a16.46,16.46,0,0,0-3.47,10.71V88.14H353.53v-53h10.81l1.12,8a12,12,0,0,1,6.07-6.63,20.31,20.31,0,0,1,8.93-2,27.24,27.24,0,0,1,4,.3Z" fill="#fc1a57"/><path d="M416,28.06V88.14H402.79V28.06H381.37V15.82h56V28.06Z" fill="#fc1a57"/><path d="M454.91,97.22a36,36,0,0,1-2.39,5,18.65,18.65,0,0,1-3.32,4.23,14.54,14.54,0,0,1-4.54,2.91,15.9,15.9,0,0,1-6.07,1.07,31.79,31.79,0,0,1-5.45-.41c-1.53-.27-3-.58-4.34-.92V98.54c.82.14,1.52.28,2.09.41a16.63,16.63,0,0,0,1.64.31q.77.1,1.53.15c.51,0,1.13,0,1.88,0a7.8,7.8,0,0,0,3.42-.81,6,6,0,0,0,2.7-3.17L445.12,88,424.21,35.1h14l13.87,38.35L465.32,35.1h12.95Z" fill="#fc1a57"/><path d="M530.19,61.52a37.47,37.47,0,0,1-2.35,13.82,23.32,23.32,0,0,1-7.14,9.84A18,18,0,0,1,515,88.35a24.47,24.47,0,0,1-15.7-.36,13.48,13.48,0,0,1-5.46-3.72v24.17H481.13V35.1h11l.82,5.81a13.61,13.61,0,0,1,6.43-5.35,22,22,0,0,1,8.46-1.68,19.6,19.6,0,0,1,12.85,4.48,23.54,23.54,0,0,1,7.14,9.75A35.77,35.77,0,0,1,530.19,61.52Zm-13,.2a35.42,35.42,0,0,0-.67-6.88,14.23,14.23,0,0,0-2.7-6.07,13.07,13.07,0,0,0-3.52-3,9.79,9.79,0,0,0-5.05-1.22,10.74,10.74,0,0,0-6.12,1.58,11.08,11.08,0,0,0-3.67,4.08,17.12,17.12,0,0,0-1.78,5.56,39.32,39.32,0,0,0-.46,5.91,38.41,38.41,0,0,0,.46,5.87,17.22,17.22,0,0,0,1.78,5.51,11.24,11.24,0,0,0,3.67,4.08,10.81,10.81,0,0,0,6.12,1.58,9.79,9.79,0,0,0,5.05-1.23,12.89,12.89,0,0,0,3.52-3,14.16,14.16,0,0,0,2.7-6A34.71,34.71,0,0,0,517.24,61.72Z" fill="#fc1a57"/><path d="M582.21,62a9.18,9.18,0,0,0-.1,1.33V65.6h-35.5a17.24,17.24,0,0,0,1,5.81A11.44,11.44,0,0,0,550.49,76a14.54,14.54,0,0,0,3.31,2.3,9.91,9.91,0,0,0,4.54,1,15.55,15.55,0,0,0,4.54-.56,7.89,7.89,0,0,0,3.21-2,9.75,9.75,0,0,0,2.55-4.49h12.24a14.61,14.61,0,0,1-1.58,5.15A22.78,22.78,0,0,1,576.4,82a19.09,19.09,0,0,1-8.06,5.71,27.93,27.93,0,0,1-9.79,1.74A23.37,23.37,0,0,1,549,87.68a24.28,24.28,0,0,1-13.26-14,32.93,32.93,0,0,1-2.09-11.94,36.09,36.09,0,0,1,1.89-11.88,23.93,23.93,0,0,1,5.76-9.33,22,22,0,0,1,7.19-4.9,24.35,24.35,0,0,1,9.74-1.84,25.58,25.58,0,0,1,11,2.4,20.14,20.14,0,0,1,8.36,7.4,23.28,23.28,0,0,1,3.77,8.92A53.36,53.36,0,0,1,582.21,62Zm-12.75-5.71A13.7,13.7,0,0,0,566.2,47a9.36,9.36,0,0,0-3.32-2.24,12.53,12.53,0,0,0-4.74-.81,11.44,11.44,0,0,0-5.2,1.12,10.56,10.56,0,0,0-3.68,3,11,11,0,0,0-2,3.67,18,18,0,0,0-.71,4.59Z" fill="#fc1a57"/></g></g></svg>