<svg xmlns="http://www.w3.org/2000/svg" width="600" height="442" viewBox="0 0 600 442">
  <g fill="none" fill-rule="evenodd">
    <rect width="600" height="442" fill="#1F2229"/>
    <g fill="#FC1A57" fill-rule="nonzero" transform="translate(233.333 161)">
      <g transform="translate(0 59.608)">
        <path d="M21.0555132,7.42717371 C21.2527313,6.11388021 22.1555469,4.71813725 23.4407675,4.71813725 C24.7415579,4.71813725 25.7998361,5.77641544 25.7998361,7.07720588 L30.5179733,7.07720588 C30.5179733,3.17483456 27.3431388,0 23.4407675,0 C19.4741115,0 16.8911673,3.3842019 16.3890395,6.73195619 L14.8719225,16.9852941 L7.63500766,16.9852941 L7.63500766,21.7034314 L14.1738741,21.7034314 L9.5477405,52.9697013 L9.5340579,53.0802237 C9.40867341,54.3328891 8.42612132,55.6740196 7.16319393,55.6740196 C5.86240349,55.6740196 4.80412531,54.6157414 4.80412531,53.314951 L0.0859880515,53.314951 C0.0859880515,57.2173223 3.26082261,60.3921569 7.16319393,60.3921569 C11.1336244,60.3921569 13.8595282,56.9548759 14.2224709,53.6103064 L18.9433211,21.7034314 L26.035743,21.7034314 L26.035743,16.9852941 L19.6413695,16.9852941 L21.0555132,7.42717371 Z"/>
        <polygon points="40.254 29.252 34.588 29.252 31.523 33.863 29.479 29.252 24.318 29.252 28.426 38.52 21.883 48.361 27.549 48.361 30.693 43.633 32.789 48.361 37.949 48.361 33.789 38.975"/>
      </g>
      <g transform="translate(51.765)">
        <path d="M60.3743212 26.2680484C59.6801202 25.5733267 58.4508636 25.5733267 57.7566625 26.2680484L22.5457422 61.5086458C22.1245357 61.9301994 21.9329362 62.5273859 22.0268269 63.1153742 22.1226266 63.7033625 22.4950655 64.2099558 23.0264764 64.4760083L25.9171297 65.9234176 25.9171297 70.7913292 17.0606859 73.3255102 8.12111139 64.3782995 10.6532098 55.5142194 15.5169562 55.5142194 16.9631506 58.4073025C17.2288561 58.939234 17.7351022 59.31202 18.3225699 59.4078198 18.4220142 59.4241335 18.5214585 59.4312491 18.6189937 59.4312491 19.1052816 59.4312491 19.5789003 59.239476 19.9279099 58.8883838L55.1388302 23.6479599C55.4859307 23.3005123 55.6811748 22.8301911 55.6811748 22.3380025 55.6811748 21.8458139 55.4859307 21.3754927 55.1388302 21.0280451L48.3306266 14.2139408C47.9835261 13.8664931 47.5135519 13.6710755 47.0217105 13.6710755L47.0180659 13.6710755C46.5244889 13.672811 46.0526058 13.8701377 45.7074143 14.2193208L7.94218106 52.3569929C7.92395828 52.3755628 7.92482603 52.4038515 7.90729746 52.4227685 7.71725991 52.6280784 7.55863496 52.8651481 7.47567793 53.153068L4.26135336 64.4090179.0709820609 79.0920651C-.113501877 79.7380192.0673375052 80.43465.542865248 80.9105248.895345849 81.2633525 1.36722904 81.4533901 1.85178139 81.4533901 2.02168711 81.4533901 2.19159282 81.4297872 2.35976304 81.3827551L17.030141 77.1887393 28.2765457 73.9716379C28.310388 73.9619191 28.3336437 73.9364072 28.3667918 73.9247793 28.4835912 73.8845156 28.5858123 73.8189136 28.6932399 73.7553942 28.7987584 73.6927426 28.904277 73.637033 28.9934819 73.5565056 29.0174318 73.5353325 29.0488444 73.5275227 29.0719266 73.5047877L67.1771448 35.7074476C67.5259808 35.3619091 67.7231339 34.8896788 67.7248809 34.3957547 67.7266049 33.9035661 67.5313609 33.4313358 67.1825248 33.0821527L60.3743212 26.2680484zM79.2840117 13.2189771L68.1767943 2.10238798C65.3782962-.698539841 60.509864-.7039199 57.7004322 2.10776804L50.9193025 8.95623529C50.2016721 9.68184898 50.2034076 10.848801 50.9246825 11.5707701L69.8236128 30.4856671C70.1851181 30.8475194 70.6589103 31.0285323 71.132529 31.0285323 71.6044122 31.0285323 72.0743863 30.8494285 72.4358915 30.4912207L79.2838381 23.6989837C80.683174 22.2986066 81.4532165 20.4384948 81.4532165 18.4591539 81.4532165 16.4798131 80.6833475 14.6193542 79.2840117 13.2189771z"/>
      </g>
    </g>
  </g>
</svg>
