<svg xmlns="http://www.w3.org/2000/svg" viewBox="0 0 578.43 110.27"><title>Asset 1</title><g id="Layer_2" data-name="Layer 2"><g id="Layer_1-2" data-name="Layer 1"><polygon points="121.01 44.05 121.01 28.06 136.05 28.06 136.05 15.99 121.01 15.99 121.01 0 108.67 0 108.67 15.99 93.63 15.99 93.63 28.06 108.67 28.06 108.67 44.05 121.01 44.05" fill="#76c3fb"/><path d="M45.3,100.35c22.14,0,35.49-12.67,40.22-32.28L82,65.87C75.55,74.15,67.44,77.7,56.79,77.7c-14.87,0-25.35-11.83-25.35-30.42H85V43.05C85,20.91,72.17,5.2,46.82,5.2,21.8,5.2,0,24.12,0,54.72,0,84.29,20.11,100.35,45.3,100.35ZM55.44,39H31.61c.67-15.89,4.56-26.37,13-26.37C52.73,12.63,55.44,22.27,55.44,39Z" fill="#76c3fb"/><path d="M164.83,88.14V15.82h48.35v8.37H173.91v22h34.47v8.57H173.91v25h39.27v8.36Z" fill="#fff"/><path d="M255.61,88.14l-.71-7.85a14.06,14.06,0,0,1-6.38,6.78,18.83,18.83,0,0,1-8.92,2.29q-8.88,0-13.26-5t-4.39-14V36.53h8.67V69.17q0,5.81,2.45,9.08t8.57,3.26a10.33,10.33,0,0,0,4.74-1.07,15,15,0,0,0,3.82-2.81,13.46,13.46,0,0,0,3.37-6.42,34,34,0,0,0,.92-7.86V36.53h8.67V88.14Z" fill="#fff"/><path d="M293.65,88.14a7.19,7.19,0,0,1-1.53.31,25.85,25.85,0,0,1-4.59.3c-3.8,0-6.56-1.08-8.26-3.26s-2.55-5.31-2.55-9.39V14.5h8.67V75.59a6.46,6.46,0,0,0,1,4c.68.89,1.9,1.33,3.67,1.33h2.86a2.17,2.17,0,0,0,.71-.1Z" fill="#fff"/><path d="M342.72,59.58v2.81c0,.91,0,1.85-.11,2.8H306.1a20.07,20.07,0,0,0,1.32,7.09,16.19,16.19,0,0,0,3.68,5.86,12.82,12.82,0,0,0,9.48,3.68q6.33,0,9.59-3.37A11.65,11.65,0,0,0,332,76.1a12.77,12.77,0,0,0,1.22-3.26h8.47A17.55,17.55,0,0,1,339,80.08a18.48,18.48,0,0,1-5.3,5.51,23.22,23.22,0,0,1-6.12,2.86,24.12,24.12,0,0,1-7,1,22.42,22.42,0,0,1-9.84-2.09,21.37,21.37,0,0,1-7.29-5.67A24.45,24.45,0,0,1,298.6,73,34.2,34.2,0,0,1,297,62.54a40.66,40.66,0,0,1,.92-8.82A25.69,25.69,0,0,1,301,46a22.28,22.28,0,0,1,7.75-7.75,22,22,0,0,1,11.73-3.06,20.81,20.81,0,0,1,15.71,6.63,24.59,24.59,0,0,1,4.79,8A27.37,27.37,0,0,1,342.72,59.58Zm-8.88-1.84A20.15,20.15,0,0,0,333,52a15.19,15.19,0,0,0-2.35-4.79,11.8,11.8,0,0,0-4.18-3.42,13.32,13.32,0,0,0-6-1.27,13.47,13.47,0,0,0-6.17,1.32,13.9,13.9,0,0,0-4.39,3.47,14.32,14.32,0,0,0-2.65,4.85,20.46,20.46,0,0,0-1,5.55Z" fill="#fff"/><path d="M380.05,45q-1.12-.2-2.4-.3c-.85-.07-1.65-.1-2.4-.1a13,13,0,0,0-5.56,1.17,14.83,14.83,0,0,0-4.23,2.91,13,13,0,0,0-2.5,3.52,17.55,17.55,0,0,0-1.42,4.23,33,33,0,0,0-.62,4.49c-.1,1.49-.15,2.92-.15,4.28v23H352.2V36.53h7.65l.72,9.08a14,14,0,0,1,6.27-7.09,18.84,18.84,0,0,1,9.13-2.3,26.69,26.69,0,0,1,4.08.31Z" fill="#fff"/><path d="M406.77,24.29V88.14h-9.18V24.29H376.07V15.82h52.22v8.47Z" fill="#fff"/><path d="M446.45,98.75a20.78,20.78,0,0,1-5,8q-3.17,3-9,3a28.23,28.23,0,0,1-5.3-.4,20,20,0,0,1-2.55-.62V101.2c.54.13,1.16.27,1.84.4a12.48,12.48,0,0,0,1.88.31c.72.07,1.52.1,2.4.1a9.17,9.17,0,0,0,4.69-1.12,7.6,7.6,0,0,0,3.06-4.08l3.27-8.67L421.15,36.53h9.79l15.2,40.7,14.49-40.7h9.07Z" fill="#fff"/><path d="M524.88,62.33a38.23,38.23,0,0,1-2,12.5A24.12,24.12,0,0,1,517,84.37,19.91,19.91,0,0,1,511,88.14a21.46,21.46,0,0,1-8.11,1.43,19,19,0,0,1-4.33-.51,23,23,0,0,1-4.24-1.43,16.75,16.75,0,0,1-3.72-2.29,11.67,11.67,0,0,1-2.7-3.12v28.05h-8.67V36.63h7.65l.61,6.73a14.78,14.78,0,0,1,6.63-6,20.15,20.15,0,0,1,8.77-2.1,22.29,22.29,0,0,1,8.42,1.48,18,18,0,0,1,6.17,4.13A24.41,24.41,0,0,1,523,50.3,37.44,37.44,0,0,1,524.88,62.33Zm-8.87.11a38.34,38.34,0,0,0-.66-7.09,20.54,20.54,0,0,0-2.3-6.38,12.66,12.66,0,0,0-4.49-4.59,13.58,13.58,0,0,0-7.14-1.73,10.93,10.93,0,0,0-4.84,1A14.09,14.09,0,0,0,493.06,46a14.66,14.66,0,0,0-4.49,7.2,35.53,35.53,0,0,0,0,18.46,14.59,14.59,0,0,0,4.49,7.19,14.4,14.4,0,0,0,3.52,2.4,11.08,11.08,0,0,0,4.84,1,13.49,13.49,0,0,0,7.14-1.73,12.51,12.51,0,0,0,4.49-4.59,20.48,20.48,0,0,0,2.3-6.37A38.42,38.42,0,0,0,516,62.44Z" fill="#fff"/><path d="M578.43,59.58v2.81c0,.91,0,1.85-.1,2.8H541.82a20.07,20.07,0,0,0,1.32,7.09,16.18,16.18,0,0,0,3.67,5.86,12.84,12.84,0,0,0,9.49,3.68q6.33,0,9.59-3.37a11.24,11.24,0,0,0,1.83-2.35A12.38,12.38,0,0,0,569,72.84h8.46a17.54,17.54,0,0,1-2.65,7.24,18.73,18.73,0,0,1-5.3,5.51,23.22,23.22,0,0,1-6.12,2.86,24.17,24.17,0,0,1-7,1,22.42,22.42,0,0,1-9.84-2.09,21.5,21.5,0,0,1-7.3-5.67A24.58,24.58,0,0,1,534.32,73a33.9,33.9,0,0,1-1.58-10.45,40,40,0,0,1,.92-8.82A25.69,25.69,0,0,1,536.72,46a22.28,22.28,0,0,1,7.75-7.75A22,22,0,0,1,556.2,35.2a20.85,20.85,0,0,1,15.71,6.63,24.76,24.76,0,0,1,4.79,8A27.59,27.59,0,0,1,578.43,59.58Zm-8.87-1.84a19.81,19.81,0,0,0-.82-5.71,15,15,0,0,0-2.34-4.79,11.88,11.88,0,0,0-4.18-3.42,13.32,13.32,0,0,0-6-1.27A13.47,13.47,0,0,0,550,43.87a13.79,13.79,0,0,0-4.39,3.47A14.32,14.32,0,0,0,543,52.19a20.46,20.46,0,0,0-1,5.55Z" fill="#fff"/></g></g></svg>