<svg xmlns="http://www.w3.org/2000/svg" width="600" height="442" viewBox="0 0 600 442">
  <g fill="none" fill-rule="evenodd">
    <rect width="600" height="442" fill="#1F2229"/>
    <g fill="#FC1A57" fill-rule="nonzero" transform="translate(237.778 156)">
      <path d="M111.367505,0 L12.9497099,0 C5.82736944,0 0,6.64772727 0,14.7727273 L0,91.5909091 C0,99.7159091 5.82736944,106.363636 12.9497099,106.363636 L48.6909091,106.363636 L41.4390716,121.136364 C40.5325919,123.056818 40.5325919,125.272727 41.4390716,127.045455 C42.3455513,128.818182 44.0290135,130 45.8419729,130 L78.4752418,130 C80.2882012,130 81.9716634,128.818182 82.8781431,127.045455 C83.7846228,125.272727 83.7846228,123.056818 82.8781431,121.136364 L75.6263056,106.363636 L111.367505,106.363636 C118.489845,106.363636 124.317215,99.7159091 124.317215,91.5909091 L124.317215,14.7727273 C124.317215,6.64772727 118.489845,0 111.367505,0 Z M78.4752418,124.090909 L45.8419729,124.090909 L54.5182785,106.363636 L69.6694391,106.363636 L78.4752418,124.090909 Z M119.137331,91.5909091 C119.137331,96.4659091 115.640909,100.454545 111.367505,100.454545 L71.2234043,100.454545 L53.0938104,100.454545 L12.9497099,100.454545 C8.67630561,100.454545 5.17988395,96.4659091 5.17988395,91.5909091 L5.17988395,82.7272727 L119.137331,82.7272727 L119.137331,91.5909091 Z M119.137331,76.8181818 L5.17988395,76.8181818 L5.17988395,14.7727273 C5.17988395,9.89772727 8.67630561,5.90909091 12.9497099,5.90909091 L111.367505,5.90909091 C115.640909,5.90909091 119.137331,9.89772727 119.137331,14.7727273 L119.137331,76.8181818 Z"/>
      <path d="M79.5306613,59.7446809 L44.9377325,59.7446809 C44.6961767,59.7446809 44.4768529,59.6038784 44.3762573,59.3845546 C44.2755039,59.1652308 44.3120842,58.9071194 44.4702307,58.7235875 L59.5651004,41.2126871 L44.4694423,23.7019445 C44.3119265,23.5185702 44.2748732,23.2603011 44.3756266,23.0409773 C44.4763799,22.8216535 44.6961767,22.6808511 44.9377325,22.6808511 L79.5306613,22.6808511 C79.871709,22.6808511 80.1485837,22.9569373 80.1485837,23.2986157 L80.1485837,32.5646126 C80.1485837,32.906291 79.871709,33.1823772 79.5306613,33.1823772 L75.2064664,33.1823772 C74.8654187,33.1823772 74.5887017,32.906291 74.5887017,32.5646126 L74.5887017,28.2404176 L57.3603523,28.2404176 L67.6542225,40.8218146 C67.8401195,41.0491797 67.8401195,41.3758792 67.6542225,41.603875 L57.3603523,54.1852719 L74.5888594,54.1852719 L74.5888594,49.861077 C74.5888594,49.5193986 74.8655763,49.2433123 75.2066241,49.2433123 L79.530819,49.2433123 C79.8718667,49.2433123 80.1485837,49.5193986 80.1485837,49.861077 L80.1485837,59.1270739 C80.1485837,59.4685946 79.8723397,59.7446809 79.5306613,59.7446809 L79.5306613,59.7446809 Z"/>
    </g>
  </g>
</svg>
