<svg xmlns="http://www.w3.org/2000/svg" width="600" height="442" viewBox="0 0 600 442">
  <g fill="none" fill-rule="evenodd">
    <rect width="600" height="442" fill="#1F2229"/>
    <g fill="#FC1A57" fill-rule="nonzero" transform="translate(234 155)">
      <path d="M123.622552 86.1163448C124.630759 81.7444138 125.172414 77.2882759 125.172414 72.8275862 125.172414 52.1286207 114.632897 33.279931 96.9767586 22.4104138 95.9002759 21.7504138 94.5028966 22.0849655 93.8451724 23.1546207 93.1851724 24.2265517 93.5197241 25.6262069 94.5893793 26.2862069 110.889103 36.3227586 120.62069 53.7194483 120.62069 72.8275862 120.62069 76.7557241 120.165517 80.6815862 119.316621 84.5414483 118.267448 84.3229655 117.181862 84.2068966 116.068966 84.2068966 107.284138 84.2068966 100.137931 91.3553793 100.137931 100.137931 100.137931 108.920483 107.284138 116.068966 116.068966 116.068966 124.853793 116.068966 132 108.920483 132 100.137931 132 94.0864138 128.60669 88.8132414 123.622552 86.1163448zM116.068966 111.517241C109.794414 111.517241 104.689655 106.412483 104.689655 100.137931 104.689655 93.8633793 109.794414 88.7586207 116.068966 88.7586207 122.343517 88.7586207 127.448276 93.8633793 127.448276 100.137931 127.448276 106.412483 122.343517 111.517241 116.068966 111.517241zM86.871931 123.310759C80.2377931 126.055448 73.2167586 127.448276 66 127.448276 51.4686207 127.448276 37.4902759 121.587931 27.2716552 111.307862 30.1073793 108.428897 31.862069 104.487103 31.862069 100.137931 31.862069 91.3553793 24.7158621 84.2068966 15.9310345 84.2068966 7.1462069 84.2068966 0 91.3553793 0 100.137931 0 108.920483 7.1462069 116.068966 15.9310345 116.068966 18.7212414 116.068966 21.3430345 115.342966 23.6257241 114.077586 34.7296552 125.481931 50.0553103 132 66 132 73.8175862 132 81.4257931 130.491103 88.6129655 127.514276 89.7736552 127.034069 90.3266897 125.70269 89.8464828 124.539724 89.3662759 123.38131 88.0326207 122.830552 86.871931 123.310759zM4.55172414 100.137931C4.55172414 93.8633793 9.65648276 88.7586207 15.9310345 88.7586207 22.2055862 88.7586207 27.3103448 93.8633793 27.3103448 100.137931 27.3103448 106.412483 22.2055862 111.517241 15.9310345 111.517241 9.65648276 111.517241 4.55172414 106.412483 4.55172414 100.137931zM9.10344828 71.0364828C9.15806897 71.0410345 9.21268966 71.0433103 9.26503448 71.0433103 10.4507586 71.0433103 11.4475862 70.1284138 11.534069 68.9267586 13.1544828 45.9655862 28.7987586 26.7777931 50.7244138 20.4190345 52.668 27.0235862 58.7741379 31.862069 66 31.862069 74.7848276 31.862069 81.9310345 24.7135862 81.9310345 15.9310345 81.9310345 7.14848276 74.7848276 0 66 0 57.2356552 0 50.1031034 7.11662069 50.0712414 15.8741379 25.9903448 22.5811034 8.76434483 43.5144828 6.99372414 68.6081379 6.90496552 69.8598621 7.84944828 70.95 9.10344828 71.0364828zM66 4.55172414C72.2745517 4.55172414 77.3793103 9.65648276 77.3793103 15.9310345 77.3793103 22.2055862 72.2745517 27.3103448 66 27.3103448 59.7254483 27.3103448 54.6206897 22.2055862 54.6206897 15.9310345 54.6206897 9.65648276 59.7254483 4.55172414 66 4.55172414z"/>
      <g transform="translate(47.014 55.452)">
        <polygon points="36.535 15.941 36.535 10.153 41.98 10.153 41.98 5.788 36.535 5.788 36.535 0 32.072 0 32.072 5.788 26.627 5.788 26.627 10.153 32.072 10.153 32.072 15.941"/>
        <path d="M13.1454177,31.3424658 C19.5709763,31.3424658 23.4459315,27.6637108 24.8193334,21.9739032 L23.789282,21.3362523 C21.9253795,23.7397055 19.5709763,24.7697569 16.4808222,24.7697569 C12.1644164,24.7697569 9.12331226,21.3362523 9.12331226,15.9407451 L24.6721832,15.9407451 L24.6721832,14.7144934 C24.6721832,8.28893477 20.9443782,3.72727864 13.5868683,3.72727864 C6.3274585,3.72727864 1.16653226e-13,9.22088602 1.16653226e-13,18.098948 C1.16653226e-13,26.6827095 5.83695785,31.3424658 13.1454177,31.3424658 Z M16.0884216,13.5372918 L9.17236233,13.5372918 C9.36856259,8.92658562 10.4967141,5.88548154 12.9492174,5.88548154 C15.3036206,5.88548154 16.0884216,8.68133529 16.0884216,13.5372918 Z"/>
      </g>
    </g>
  </g>
</svg>
