<svg xmlns="http://www.w3.org/2000/svg" width="600" height="442" viewBox="0 0 600 442">
  <g fill="none" fill-rule="evenodd">
    <rect width="600" height="442" fill="#1F2229"/>
    <g fill="#FC1A57" fill-rule="nonzero" transform="translate(227.321 167)">
      <polygon points="125.893 54.931 125.893 34.987 144.654 34.987 144.654 19.944 125.893 19.944 125.893 0 110.513 0 110.513 19.944 91.752 19.944 91.752 34.987 110.513 34.987 110.513 54.931"/>
      <path d="M45.2965354,108 C67.4377523,108 80.7900892,95.3237308 85.522563,75.7177677 L81.9732076,73.5205477 C75.5505646,81.8023769 67.4377523,85.3517323 56.7896861,85.3517323 C41.9161969,85.3517323 31.4371477,73.5205477 31.4371477,54.9286862 L85.0155123,54.9286862 L85.0155123,50.7032631 C85.0155123,28.5620462 72.1702261,12.8434724 46.8176877,12.8434724 C21.8031831,12.8434724 4.01964176e-13,31.7733677 4.01964176e-13,62.3654308 C4.01964176e-13,91.9433923 20.1130138,108 45.2965354,108 Z M55.4375507,46.646857 L31.6061646,46.646857 C32.2822323,30.7592662 36.1696215,20.280217 44.6204677,20.280217 C52.73328,20.280217 55.4375507,29.9141816 55.4375507,46.646857 Z"/>
    </g>
  </g>
</svg>
