<svg xmlns="http://www.w3.org/2000/svg" width="600" height="442" viewBox="0 0 600 442">
  <g fill="none" fill-rule="evenodd">
    <rect width="600" height="442" fill="#2F3644"/>
    <g stroke="#07FFDE" stroke-width="10" transform="translate(219.418 131.364)">
      <path fill="#07FFDE" d="M34.9487617,5.87016303 C33.9572172,5.29074904 32.8508301,4.99993591 31.7440561,4.99993591 C30.637282,4.99993591 29.530895,5.29074904 28.5393669,5.87015339 L8.24994887,17.7262647 C6.22971196,18.906796 5,21.0937957 5,23.449579 L5,47.1697276 C5,49.5204907 6.22705379,51.7029535 8.24304475,52.8809513 L28.4964162,64.7160259 C29.5012507,65.3032145 30.6224609,65.597902 31.7440561,65.597902 C32.8656512,65.597902 33.9868615,65.3032145 34.991655,64.7160498 L55.2467529,52.8800878 C57.2616944,51.7026497 58.4881121,49.5213196 58.4881121,47.1717783 L58.4881121,23.449579 C58.4881121,21.0937905 57.2583747,18.9067928 55.2381328,17.7262544 L34.9487617,5.87016303 Z" transform="translate(48.838 70.622)"/>
      <path fill="#FFF" d="M34.9487617,5.87016303 C33.9572172,5.29074904 32.8508301,4.99993591 31.7440561,4.99993591 C30.637282,4.99993591 29.530895,5.29074904 28.5393669,5.87015339 L8.24994887,17.7262647 C6.22971196,18.906796 5,21.0937957 5,23.449579 L5,47.1697276 C5,49.5204907 6.22705379,51.7029535 8.24304475,52.8809513 L28.4964162,64.7160259 C29.5012507,65.3032145 30.6224609,65.597902 31.7440561,65.597902 C32.8656512,65.597902 33.9868615,65.3032145 34.991655,64.7160498 L55.2467529,52.8800878 C57.2616944,51.7026497 58.4881121,49.5213196 58.4881121,47.1717783 L58.4881121,23.449579 C58.4881121,21.0937905 57.2583747,18.9067928 55.2381328,17.7262544 L34.9487617,5.87016303 Z" transform="translate(48.838 41.65)"/>
      <path d="M92.5970545,8.25983299 C88.8793066,6.08734842 84.7303795,5 80.5810654,5 C76.4317513,5 72.2828243,6.08734842 68.5650928,8.25982335 L17.0612126,38.35609 C9.58854915,42.7227625 5,50.7979514 5,59.526017 L5,119.738702 C5,128.454057 9.5818881,136.517808 17.0437984,140.878003 L68.4560845,170.920815 C72.2075313,173.113024 76.3941059,174.210221 80.5810654,174.210221 C84.768025,174.210221 88.9545995,173.113024 92.7060053,170.920839 L144.1227,140.875759 C151.581963,136.516912 156.162131,128.456069 156.162131,119.743908 L156.162131,59.526017 C156.162131,50.7979462 151.573517,42.7227593 144.100868,38.3560797 L92.5970545,8.25983299 Z"/>
    </g>
  </g>
</svg>
