<svg xmlns="http://www.w3.org/2000/svg" width="600" height="442" viewBox="0 0 600 442">
  <g fill="none" fill-rule="evenodd">
    <rect width="600" height="442" fill="#2F3644"/>
    <g transform="translate(219.418 131.364)">
      <path fill="#07FFDE" d="M161.162131,119.743745 C161.162131,130.242068 155.628444,139.943265 146.645312,145.192589 C132.097259,153.69354 109.822932,166.709646 95.228678,175.237634 C86.1648577,180.5342 74.9972731,180.5342 65.9334528,175.237634 C51.3408257,166.710492 29.0692641,153.696143 14.5212436,145.194867 C5.53547661,139.944241 0,130.240116 0,119.738539 L0,59.5258544 C0,49.0115885 5.54208137,39.2960763 14.5385852,34.0389434 C29.1232735,25.5165186 51.4576292,12.4654372 66.0424477,3.94268702 C75.038919,-1.31444591 86.1232119,-1.31444591 95.1196831,3.94268702 C109.704502,12.4654372 132.038695,25.5165186 146.623513,34.0389434 C155.619984,39.2960763 161.162131,49.0115885 161.162131,59.5258544 L161.162131,119.743745 Z"/>
      <path fill="#FFF" d="M119.360799,72.2870419 L119.360799,131.226601 L101.254306,141.623413 L41.8013321,106.922692 L41.8013321,47.9831322 L59.9078245,37.5863205 C79.7253741,49.1534445 99.5432491,60.7202432 119.360799,72.2870419 Z M65.8778166,93.0979091 L95.2843142,110.261514 L95.2843142,86.1118243 L65.8778166,68.9482191 L65.8778166,93.0979091 Z"/>
    </g>
  </g>
</svg>
